<mxfile host="Electron" agent="Mozilla/5.0 (Windows NT 10.0; Win64; x64) AppleWebKit/537.36 (KHTML, like Gecko) draw.io/24.7.5 Chrome/126.0.6478.183 Electron/31.3.0 Safari/537.36" version="24.7.5">
  <diagram name="PÃ¡gina-1" id="s3OMrO0p6jmiYu_DmSFK">
    <mxGraphModel dx="3160" dy="2549" grid="1" gridSize="10" guides="1" tooltips="1" connect="1" arrows="1" fold="1" page="1" pageScale="1" pageWidth="827" pageHeight="1169" math="0" shadow="0">
      <root>
        <mxCell id="0" />
        <mxCell id="1" parent="0" />
        <mxCell id="3uJrxtnBRZQrfx2Aj6_I-8" value="" style="verticalLabelPosition=bottom;aspect=fixed;html=1;verticalAlign=top;strokeColor=none;align=center;outlineConnect=0;shape=mxgraph.citrix.tower_server;rounded=1;" parent="1" vertex="1">
          <mxGeometry x="432" y="-1005" width="65" height="85" as="geometry" />
        </mxCell>
        <mxCell id="M51-cbpcoO0k1B-L0Ytx-9" value="" style="endArrow=baseDash;html=1;rounded=0;dashed=1;dashPattern=8 8;entryX=0.5;entryY=1;entryDx=0;entryDy=0;entryPerimeter=0;fillColor=#0050ef;strokeColor=#001DBC;endFill=0;strokeWidth=2;" parent="1" target="M51-cbpcoO0k1B-L0Ytx-3" edge="1">
          <mxGeometry width="50" height="50" relative="1" as="geometry">
            <mxPoint x="254" y="-583" as="sourcePoint" />
            <mxPoint x="461" y="-770" as="targetPoint" />
          </mxGeometry>
        </mxCell>
        <mxCell id="LZ3MUwEuHvVNPTTfiNw9-14" value="" style="rounded=0;whiteSpace=wrap;html=1;" parent="1" vertex="1">
          <mxGeometry x="593.5" y="-345" width="260" height="160" as="geometry" />
        </mxCell>
        <mxCell id="LZ3MUwEuHvVNPTTfiNw9-12" value="" style="rounded=0;whiteSpace=wrap;html=1;" parent="1" vertex="1">
          <mxGeometry x="73.5" y="-340.5" width="260" height="160" as="geometry" />
        </mxCell>
        <mxCell id="3uJrxtnBRZQrfx2Aj6_I-30" style="edgeStyle=none;rounded=1;orthogonalLoop=1;jettySize=auto;html=1;exitX=0.85;exitY=0.73;exitDx=0;exitDy=0;exitPerimeter=0;fontFamily=Helvetica;fontSize=12;fontColor=default;entryX=0;entryY=0.73;entryDx=0;entryDy=0;entryPerimeter=0;endArrow=baseDash;endFill=0;" parent="1" source="3uJrxtnBRZQrfx2Aj6_I-17" target="3uJrxtnBRZQrfx2Aj6_I-19" edge="1">
          <mxGeometry relative="1" as="geometry">
            <mxPoint x="410" y="-567" as="targetPoint" />
          </mxGeometry>
        </mxCell>
        <mxCell id="3uJrxtnBRZQrfx2Aj6_I-17" value="" style="shape=mxgraph.cisco.routers.isci_router;sketch=0;html=1;pointerEvents=1;dashed=0;strokeWidth=2;verticalLabelPosition=bottom;verticalAlign=top;align=center;outlineConnect=0;rounded=1;fontFamily=Helvetica;fontSize=12;fillColor=#bac8d3;strokeColor=#23445d;points=[[0,0.5,0,0,0],[0,0.76,0,0,0],[0.16,0.15,0,0,0],[0.5,0.15,0,0,0],[0.5,1,0,0,0],[0.85,0.73,0,0,0],[1,0,0,0,0],[1,0.5,0,0,0]];" parent="1" vertex="1">
          <mxGeometry x="153" y="-622" width="101" height="75" as="geometry" />
        </mxCell>
        <mxCell id="3uJrxtnBRZQrfx2Aj6_I-19" value="" style="shape=mxgraph.cisco.routers.isci_router;sketch=0;html=1;pointerEvents=1;dashed=0;strokeWidth=2;verticalLabelPosition=bottom;verticalAlign=top;align=center;outlineConnect=0;rounded=1;fontFamily=Helvetica;fontSize=12;fillColor=#bac8d3;strokeColor=#23445d;points=[[0,0.5,0,0,0],[0,0.73,0,0,0],[0.16,0.15,0,0,0],[0.5,0.15,0,0,0],[0.5,1,0,0,0],[0.94,0.73,0,0,0],[1,0,0,0,0],[1,0.5,0,0,0]];" parent="1" vertex="1">
          <mxGeometry x="416" y="-622" width="101" height="75" as="geometry" />
        </mxCell>
        <mxCell id="3uJrxtnBRZQrfx2Aj6_I-20" value="" style="shape=mxgraph.cisco.routers.isci_router;sketch=0;html=1;pointerEvents=1;dashed=0;strokeWidth=2;verticalLabelPosition=bottom;verticalAlign=top;align=center;outlineConnect=0;rounded=1;fontFamily=Helvetica;fontSize=12;fillColor=#bac8d3;strokeColor=#23445d;points=[[0,0.5,0,0,0],[0,0.73,0,0,0],[0.16,0.15,0,0,0],[0.5,0.15,0,0,0],[0.5,1,0,0,0],[0.94,0.73,0,0,0],[1,0,0,0,0],[1,0.5,0,0,0]];" parent="1" vertex="1">
          <mxGeometry x="673" y="-622" width="101" height="75" as="geometry" />
        </mxCell>
        <mxCell id="3uJrxtnBRZQrfx2Aj6_I-21" value="" style="shape=mxgraph.cisco.misc.bbsm;sketch=0;html=1;pointerEvents=1;dashed=0;fillColor=#55b5d8;strokeColor=#10739e;strokeWidth=2;verticalLabelPosition=bottom;verticalAlign=top;align=center;outlineConnect=0;rounded=1;fontFamily=Helvetica;fontSize=12;" parent="1" vertex="1">
          <mxGeometry x="414" y="-830" width="101" height="42" as="geometry" />
        </mxCell>
        <mxCell id="3uJrxtnBRZQrfx2Aj6_I-22" style="edgeStyle=none;rounded=1;orthogonalLoop=1;jettySize=auto;html=1;entryX=0.5;entryY=0.15;entryDx=0;entryDy=0;entryPerimeter=0;fontFamily=Helvetica;fontSize=12;fontColor=default;endArrow=baseDash;endFill=0;" parent="1" source="3uJrxtnBRZQrfx2Aj6_I-21" target="3uJrxtnBRZQrfx2Aj6_I-17" edge="1">
          <mxGeometry relative="1" as="geometry" />
        </mxCell>
        <mxCell id="3uJrxtnBRZQrfx2Aj6_I-23" style="edgeStyle=none;rounded=1;orthogonalLoop=1;jettySize=auto;html=1;entryX=0.5;entryY=0.15;entryDx=0;entryDy=0;entryPerimeter=0;fontFamily=Helvetica;fontSize=12;fontColor=default;endArrow=baseDash;endFill=0;" parent="1" source="3uJrxtnBRZQrfx2Aj6_I-21" target="3uJrxtnBRZQrfx2Aj6_I-19" edge="1">
          <mxGeometry relative="1" as="geometry" />
        </mxCell>
        <mxCell id="3uJrxtnBRZQrfx2Aj6_I-24" style="edgeStyle=none;rounded=1;orthogonalLoop=1;jettySize=auto;html=1;entryX=0.5;entryY=0.15;entryDx=0;entryDy=0;entryPerimeter=0;fontFamily=Helvetica;fontSize=12;fontColor=default;endArrow=baseDash;endFill=0;" parent="1" source="3uJrxtnBRZQrfx2Aj6_I-21" target="3uJrxtnBRZQrfx2Aj6_I-20" edge="1">
          <mxGeometry relative="1" as="geometry" />
        </mxCell>
        <mxCell id="3uJrxtnBRZQrfx2Aj6_I-27" style="edgeStyle=none;rounded=1;orthogonalLoop=1;jettySize=auto;html=1;entryX=0.5;entryY=0;entryDx=0;entryDy=0;entryPerimeter=0;fontFamily=Helvetica;fontSize=12;fontColor=default;endArrow=baseDash;endFill=0;" parent="1" source="3uJrxtnBRZQrfx2Aj6_I-8" target="3uJrxtnBRZQrfx2Aj6_I-21" edge="1">
          <mxGeometry relative="1" as="geometry" />
        </mxCell>
        <mxCell id="3uJrxtnBRZQrfx2Aj6_I-32" style="edgeStyle=none;rounded=1;orthogonalLoop=1;jettySize=auto;html=1;exitX=0.94;exitY=0.73;exitDx=0;exitDy=0;exitPerimeter=0;entryX=0;entryY=0.73;entryDx=0;entryDy=0;entryPerimeter=0;fontFamily=Helvetica;fontSize=12;fontColor=default;endArrow=baseDash;endFill=0;" parent="1" source="3uJrxtnBRZQrfx2Aj6_I-19" target="3uJrxtnBRZQrfx2Aj6_I-20" edge="1">
          <mxGeometry relative="1" as="geometry" />
        </mxCell>
        <mxCell id="3uJrxtnBRZQrfx2Aj6_I-45" value="" style="edgeStyle=none;rounded=1;orthogonalLoop=1;jettySize=auto;html=1;fontFamily=Helvetica;fontSize=12;fontColor=default;endArrow=baseDash;endFill=0;" parent="1" source="3uJrxtnBRZQrfx2Aj6_I-33" target="3uJrxtnBRZQrfx2Aj6_I-42" edge="1">
          <mxGeometry relative="1" as="geometry" />
        </mxCell>
        <mxCell id="3uJrxtnBRZQrfx2Aj6_I-33" value="" style="shape=mxgraph.cisco.routers.router;sketch=0;html=1;pointerEvents=1;dashed=0;fillColor=#bac8d3;strokeColor=#23445d;strokeWidth=2;verticalLabelPosition=bottom;verticalAlign=top;align=center;outlineConnect=0;rounded=1;fontFamily=Helvetica;fontSize=12;" parent="1" vertex="1">
          <mxGeometry x="-117" y="-589" width="78" height="53" as="geometry" />
        </mxCell>
        <mxCell id="3uJrxtnBRZQrfx2Aj6_I-48" value="" style="edgeStyle=none;rounded=1;orthogonalLoop=1;jettySize=auto;html=1;fontFamily=Helvetica;fontSize=12;fontColor=default;endArrow=baseDash;endFill=0;" parent="1" source="3uJrxtnBRZQrfx2Aj6_I-34" target="3uJrxtnBRZQrfx2Aj6_I-41" edge="1">
          <mxGeometry relative="1" as="geometry" />
        </mxCell>
        <mxCell id="3uJrxtnBRZQrfx2Aj6_I-34" value="" style="shape=mxgraph.cisco.routers.router;sketch=0;html=1;pointerEvents=1;dashed=0;fillColor=#bac8d3;strokeColor=#23445d;strokeWidth=2;verticalLabelPosition=bottom;verticalAlign=top;align=center;outlineConnect=0;rounded=1;fontFamily=Helvetica;fontSize=12;" parent="1" vertex="1">
          <mxGeometry x="1090" y="-596" width="78" height="53" as="geometry" />
        </mxCell>
        <mxCell id="3uJrxtnBRZQrfx2Aj6_I-35" style="edgeStyle=none;rounded=1;orthogonalLoop=1;jettySize=auto;html=1;exitX=0.94;exitY=0.73;exitDx=0;exitDy=0;exitPerimeter=0;entryX=0;entryY=0.5;entryDx=0;entryDy=0;entryPerimeter=0;fontFamily=Helvetica;fontSize=12;fontColor=default;endArrow=baseDash;endFill=0;" parent="1" source="3uJrxtnBRZQrfx2Aj6_I-20" target="3uJrxtnBRZQrfx2Aj6_I-34" edge="1">
          <mxGeometry relative="1" as="geometry" />
        </mxCell>
        <mxCell id="3uJrxtnBRZQrfx2Aj6_I-36" style="edgeStyle=none;rounded=1;orthogonalLoop=1;jettySize=auto;html=1;exitX=0;exitY=0.76;exitDx=0;exitDy=0;exitPerimeter=0;entryX=1;entryY=0.5;entryDx=0;entryDy=0;entryPerimeter=0;fontFamily=Helvetica;fontSize=12;fontColor=default;endArrow=baseDash;endFill=0;fillColor=#d5e8d4;gradientColor=#97d077;strokeColor=#000000;" parent="1" source="3uJrxtnBRZQrfx2Aj6_I-17" target="3uJrxtnBRZQrfx2Aj6_I-33" edge="1">
          <mxGeometry relative="1" as="geometry" />
        </mxCell>
        <mxCell id="3uJrxtnBRZQrfx2Aj6_I-46" value="" style="edgeStyle=none;rounded=1;orthogonalLoop=1;jettySize=auto;html=1;fontFamily=Helvetica;fontSize=12;fontColor=default;endArrow=baseDash;endFill=0;" parent="1" source="3uJrxtnBRZQrfx2Aj6_I-37" target="3uJrxtnBRZQrfx2Aj6_I-43" edge="1">
          <mxGeometry relative="1" as="geometry" />
        </mxCell>
        <mxCell id="3uJrxtnBRZQrfx2Aj6_I-37" value="" style="shape=mxgraph.cisco.routers.router;sketch=0;html=1;pointerEvents=1;dashed=0;fillColor=#bac8d3;strokeColor=#23445d;strokeWidth=2;verticalLabelPosition=bottom;verticalAlign=top;align=center;outlineConnect=0;rounded=1;fontFamily=Helvetica;fontSize=12;" parent="1" vertex="1">
          <mxGeometry x="-117" y="-408" width="78" height="53" as="geometry" />
        </mxCell>
        <mxCell id="3uJrxtnBRZQrfx2Aj6_I-47" value="" style="edgeStyle=none;rounded=1;orthogonalLoop=1;jettySize=auto;html=1;fontFamily=Helvetica;fontSize=12;fontColor=default;endArrow=baseDash;endFill=0;" parent="1" source="3uJrxtnBRZQrfx2Aj6_I-38" target="3uJrxtnBRZQrfx2Aj6_I-44" edge="1">
          <mxGeometry relative="1" as="geometry" />
        </mxCell>
        <mxCell id="3uJrxtnBRZQrfx2Aj6_I-38" value="" style="shape=mxgraph.cisco.routers.router;sketch=0;html=1;pointerEvents=1;dashed=0;fillColor=#bac8d3;strokeColor=#23445d;strokeWidth=2;verticalLabelPosition=bottom;verticalAlign=top;align=center;outlineConnect=0;rounded=1;fontFamily=Helvetica;fontSize=12;" parent="1" vertex="1">
          <mxGeometry x="-117" y="-228" width="78" height="53" as="geometry" />
        </mxCell>
        <mxCell id="3uJrxtnBRZQrfx2Aj6_I-39" style="edgeStyle=none;rounded=1;orthogonalLoop=1;jettySize=auto;html=1;entryX=0.5;entryY=0;entryDx=0;entryDy=0;entryPerimeter=0;fontFamily=Helvetica;fontSize=12;fontColor=default;endArrow=baseDash;endFill=0;" parent="1" source="3uJrxtnBRZQrfx2Aj6_I-33" target="3uJrxtnBRZQrfx2Aj6_I-37" edge="1">
          <mxGeometry relative="1" as="geometry" />
        </mxCell>
        <mxCell id="3uJrxtnBRZQrfx2Aj6_I-40" style="edgeStyle=none;rounded=1;orthogonalLoop=1;jettySize=auto;html=1;entryX=0.5;entryY=0;entryDx=0;entryDy=0;entryPerimeter=0;fontFamily=Helvetica;fontSize=12;fontColor=default;endArrow=baseDash;endFill=0;" parent="1" source="3uJrxtnBRZQrfx2Aj6_I-37" target="3uJrxtnBRZQrfx2Aj6_I-38" edge="1">
          <mxGeometry relative="1" as="geometry" />
        </mxCell>
        <mxCell id="3uJrxtnBRZQrfx2Aj6_I-41" value="" style="shape=mxgraph.cisco.misc.bbsm;sketch=0;html=1;pointerEvents=1;dashed=0;fillColor=#55b5d8;strokeColor=#10739e;strokeWidth=2;verticalLabelPosition=bottom;verticalAlign=top;align=center;outlineConnect=0;rounded=1;fontFamily=Helvetica;fontSize=12;" parent="1" vertex="1">
          <mxGeometry x="1078.5" y="-702" width="101" height="42" as="geometry" />
        </mxCell>
        <mxCell id="3uJrxtnBRZQrfx2Aj6_I-54" value="" style="edgeStyle=none;rounded=1;orthogonalLoop=1;jettySize=auto;html=1;fontFamily=Helvetica;fontSize=12;fontColor=default;endArrow=baseDash;endFill=0;" parent="1" source="3uJrxtnBRZQrfx2Aj6_I-42" edge="1">
          <mxGeometry relative="1" as="geometry">
            <mxPoint x="-318" y="-562.5" as="targetPoint" />
          </mxGeometry>
        </mxCell>
        <mxCell id="3uJrxtnBRZQrfx2Aj6_I-42" value="" style="shape=mxgraph.cisco.misc.bbsm;sketch=0;html=1;pointerEvents=1;dashed=0;fillColor=#55b5d8;strokeColor=#10739e;strokeWidth=2;verticalLabelPosition=bottom;verticalAlign=top;align=center;outlineConnect=0;rounded=1;fontFamily=Helvetica;fontSize=12;" parent="1" vertex="1">
          <mxGeometry x="-237" y="-583.5" width="101" height="42" as="geometry" />
        </mxCell>
        <mxCell id="3uJrxtnBRZQrfx2Aj6_I-53" value="" style="edgeStyle=none;rounded=1;orthogonalLoop=1;jettySize=auto;html=1;fontFamily=Helvetica;fontSize=12;fontColor=default;endArrow=baseDash;endFill=0;" parent="1" source="3uJrxtnBRZQrfx2Aj6_I-43" edge="1">
          <mxGeometry relative="1" as="geometry">
            <mxPoint x="-318" y="-381.5000000000002" as="targetPoint" />
          </mxGeometry>
        </mxCell>
        <mxCell id="3uJrxtnBRZQrfx2Aj6_I-43" value="" style="shape=mxgraph.cisco.misc.bbsm;sketch=0;html=1;pointerEvents=1;dashed=0;fillColor=#55b5d8;strokeColor=#10739e;strokeWidth=2;verticalLabelPosition=bottom;verticalAlign=top;align=center;outlineConnect=0;rounded=1;fontFamily=Helvetica;fontSize=12;" parent="1" vertex="1">
          <mxGeometry x="-237" y="-402.5" width="101" height="42" as="geometry" />
        </mxCell>
        <mxCell id="3uJrxtnBRZQrfx2Aj6_I-52" value="" style="edgeStyle=none;rounded=1;orthogonalLoop=1;jettySize=auto;html=1;fontFamily=Helvetica;fontSize=12;fontColor=default;endArrow=baseDash;endFill=0;" parent="1" source="3uJrxtnBRZQrfx2Aj6_I-44" edge="1">
          <mxGeometry relative="1" as="geometry">
            <mxPoint x="-318" y="-201.50000000000045" as="targetPoint" />
          </mxGeometry>
        </mxCell>
        <mxCell id="3uJrxtnBRZQrfx2Aj6_I-44" value="" style="shape=mxgraph.cisco.misc.bbsm;sketch=0;html=1;pointerEvents=1;dashed=0;fillColor=#55b5d8;strokeColor=#10739e;strokeWidth=2;verticalLabelPosition=bottom;verticalAlign=top;align=center;outlineConnect=0;rounded=1;fontFamily=Helvetica;fontSize=12;" parent="1" vertex="1">
          <mxGeometry x="-247" y="-222.5" width="101" height="42" as="geometry" />
        </mxCell>
        <mxCell id="3uJrxtnBRZQrfx2Aj6_I-57" value="" style="verticalLabelPosition=bottom;sketch=0;aspect=fixed;html=1;verticalAlign=top;strokeColor=none;align=center;outlineConnect=0;shape=mxgraph.citrix.provisioning_server;rounded=1;fontFamily=Helvetica;fontSize=12;fontColor=default;fillColor=default;" parent="1" vertex="1">
          <mxGeometry x="990" y="-825.5" width="76" height="87" as="geometry" />
        </mxCell>
        <mxCell id="3uJrxtnBRZQrfx2Aj6_I-58" value="" style="verticalLabelPosition=bottom;sketch=0;aspect=fixed;html=1;verticalAlign=top;strokeColor=none;align=center;outlineConnect=0;shape=mxgraph.citrix.xenapp_web;rounded=1;fontFamily=Helvetica;fontSize=12;fontColor=default;fillColor=default;" parent="1" vertex="1">
          <mxGeometry x="1217" y="-828.5" width="76" height="90" as="geometry" />
        </mxCell>
        <mxCell id="3uJrxtnBRZQrfx2Aj6_I-59" style="edgeStyle=none;rounded=1;orthogonalLoop=1;jettySize=auto;html=1;entryX=0.5;entryY=0;entryDx=0;entryDy=0;entryPerimeter=0;fontFamily=Helvetica;fontSize=12;fontColor=default;endArrow=baseDash;endFill=0;" parent="1" source="3uJrxtnBRZQrfx2Aj6_I-57" target="3uJrxtnBRZQrfx2Aj6_I-41" edge="1">
          <mxGeometry relative="1" as="geometry">
            <mxPoint x="1129" y="-738.5" as="targetPoint" />
          </mxGeometry>
        </mxCell>
        <mxCell id="3uJrxtnBRZQrfx2Aj6_I-60" style="edgeStyle=none;rounded=1;orthogonalLoop=1;jettySize=auto;html=1;entryX=0.5;entryY=0;entryDx=0;entryDy=0;entryPerimeter=0;fontFamily=Helvetica;fontSize=12;fontColor=default;endArrow=baseDash;endFill=0;" parent="1" source="3uJrxtnBRZQrfx2Aj6_I-58" target="3uJrxtnBRZQrfx2Aj6_I-41" edge="1">
          <mxGeometry relative="1" as="geometry">
            <mxPoint x="1129" y="-738.5" as="targetPoint" />
          </mxGeometry>
        </mxCell>
        <mxCell id="3uJrxtnBRZQrfx2Aj6_I-61" value="" style="outlineConnect=0;dashed=0;verticalLabelPosition=bottom;verticalAlign=top;align=center;html=1;shape=mxgraph.aws3.internet_2;fillColor=#bac8d3;rounded=1;fontFamily=Helvetica;fontSize=12;strokeColor=#23445d;" parent="1" vertex="1">
          <mxGeometry x="1256.5" y="-618.75" width="129.5" height="73" as="geometry" />
        </mxCell>
        <mxCell id="3uJrxtnBRZQrfx2Aj6_I-62" style="edgeStyle=none;rounded=1;orthogonalLoop=1;jettySize=auto;html=1;entryX=0;entryY=0.7;entryDx=0;entryDy=0;entryPerimeter=0;fontFamily=Helvetica;fontSize=12;fontColor=default;endArrow=baseDash;endFill=0;" parent="1" source="3uJrxtnBRZQrfx2Aj6_I-34" target="3uJrxtnBRZQrfx2Aj6_I-61" edge="1">
          <mxGeometry relative="1" as="geometry" />
        </mxCell>
        <mxCell id="3uJrxtnBRZQrfx2Aj6_I-64" value="" style="image;points=[];aspect=fixed;html=1;align=center;shadow=0;dashed=0;image=img/lib/allied_telesis/computer_and_terminals/Personal_Computer_with_Server.svg;rounded=1;verticalAlign=top;fontFamily=Helvetica;fontSize=12;fontColor=default;fillColor=default;flipH=1;" parent="1" vertex="1">
          <mxGeometry x="-420" y="-613.5" width="102" height="102" as="geometry" />
        </mxCell>
        <mxCell id="3uJrxtnBRZQrfx2Aj6_I-65" value="" style="image;points=[];aspect=fixed;html=1;align=center;shadow=0;dashed=0;image=img/lib/allied_telesis/computer_and_terminals/Personal_Computer_with_Server.svg;rounded=1;verticalAlign=top;fontFamily=Helvetica;fontSize=12;fontColor=default;fillColor=default;flipH=1;" parent="1" vertex="1">
          <mxGeometry x="-420" y="-432.5" width="102" height="102" as="geometry" />
        </mxCell>
        <mxCell id="3uJrxtnBRZQrfx2Aj6_I-66" value="" style="image;points=[];aspect=fixed;html=1;align=center;shadow=0;dashed=0;image=img/lib/allied_telesis/computer_and_terminals/Personal_Computer_with_Server.svg;rounded=1;verticalAlign=top;fontFamily=Helvetica;fontSize=12;fontColor=default;fillColor=default;flipH=1;" parent="1" vertex="1">
          <mxGeometry x="-420" y="-252.5" width="102" height="102" as="geometry" />
        </mxCell>
        <mxCell id="3uJrxtnBRZQrfx2Aj6_I-84" value="" style="shape=image;verticalLabelPosition=bottom;labelBackgroundColor=default;verticalAlign=top;aspect=fixed;imageAspect=0;image=data:image/png,iVBORw0KGgoAAAANSUhEUgAAAO8AAADsCAYAAACc5PEXAAAAAXNSR0IArs4c6QAAAARnQU1BAACxjwv8YQUAAAAJcEhZcwAADsMAAA7DAcdvqGQAAFGxSURBVHhe7V0FYBRHGz2Lh5AQnODubsXdXYoUhxYo1pYWKG4F/gLFoUChQAsULS7F3aVAcSe4JMQud7d7/7y93bC5TJLL5WTvsq995HbWd+ftzHzzzTdKo9GokCFDhutBxf+VIUOGi0EWrwwZLgpZvDJkuCjkNq8LgbwrpV6v94iJifHBb39//0iNRmPgV8tIY5DFK2GwLKv68OFD0L179wr8+++/pW7cuFEcv1+/fp3Zz88vat68eUNKlix5jd9cRhqDLF6JQafTeT5+/Dj3uXPnKh07dqzm+fPnKz58+DDvx48fAyBmfjNFxowZ3+7fv79h2bJlL/NJMtIYZPFKAKgKQ6BHjhypDUFCsM+fP89uMBg0/CYJkCNHjlCIO1++fA/4JBlpDLJ4nQS0WV+9epUFAty+fXvL48eP1wgNDc3BMIya3yRJFCtW7L9Dhw7VzZIlyys+KVlcuXKlzK1bt4rkzp37cc6cOZ9mypTpjZeXVyy/WoaLQRavgxEbG+t17dq1klu3bm2zc+fO5hATqsr8aotRvXr1E7t27WoWEBDwkU9KFpcuXSrXvn37TW/evMmUPXv250WLFr2J49SsWfNY8eLFb6AdzW8qwxUA8cq0P8PCwtJv27at5eeff76elHiv8ehTwzZt2mwh1W0N7VxJccGCBV97e3vHiI+VIUOGd40bN96zbNmyvqT0z07bT6b0SE2UaTu+fv0608qVK3vWqVPnkK+vL0q2ONGkhoMGDZpPO19yjI6O9hk2bNgvKpWKMT+mRqPRly5d+sovv/wyjLS5s9H2lykdUhNlpp6kappx+fLlfapWrXrKw8NDZy6U1HL69OkjaOe1hO/evcvQpUuXP2nHBdVqtaFixYrn1q1b1wlipx1DpvNJTZRpPSMiIvzXrl3buVq1aifsIVoQpeaaNWu+oJ3fUqJ63KJFi+204wtETaF3796/3bt3Lz/tGDKdS2qizJTTYDCoT5w4Ua1169ZbfXx8omlisBUhqgMHDtSjXUdKeP/+/Xz16tU7QDuHmOXKlbu4f//+BizLcgZOmdIgNVFmyogq8sSJE8dlzZr1BS3z25oZM2Z8c+3atRK0a0kp//vvv6JVqlQ5TTuPmNmzZw9dtWpVd3ykaMeR6XhSE2VazsuXL5dp0qTJbrQTaZneHixUqNDtp0+fhtCuxxpeuHChfIkSJeBmST2fwKCgoPdz584dotPpPGjHkelYUhNlWkZUJYsVK3aDltHtSZSU4eHhAbRrspYHDx6smzt37ke084kZEBAQ/uuvv37JMIyKdhyZjiM1UWbyvHXrVmGCW7QMbm/C0BQbG+tJu67UcP369Z+jdKWdU0xU2zdv3tyWdgyZjqM8ntdKkLZiMfgj84sOBWlbvyQvTxkWFhbIJ9kE8L4aNWrUtORcJt++fZsR25EmQ1k+SYYTIIvXSkC81rg12gIQL6k2p//rr78+T2rwQkpB2u3MwIEDF3Xr1m0Nn5Qo7ty5U2j8+PETMWSRT5LhYMjitQLwT8aQPX7R4cCAAgwPPHDgQH34KfPJNgH8m8eNGzcJPs98UqLYs2dPk9WrV3fnF2U4GLJ4rcCTJ09yXb16tTS/6FCgdMRYXpS4KP0w9pdfZTNgxNHkyZPHooTnk6jANSxevHgAroNPkuFAyOK1AmfOnKmC4Xv8okOBsDcQL0LhvHv3Lvju3bsF+VU2Ra1atY4OHTp0bnJhdm7fvl34jz/++IJflOFAyOJNITBwfvfu3U1t2dZMCWBMCgwMDIuKivKLjIz0v3//fn5+lU2hVCqN/fr1W1a3bt1DfFKi2LhxYwd71ABkJA1ZvCkEqogYOM8vOhze3t5atEsjIiLSoe0Ni7c4PI4tERwc/G7EiBEzUNLzSVSg9Ef7m1+U4SDI4k0h9u7d29hZVWbAXLy4FvzlV9scGKjftWtXjEBKFIj+gefiLOt7WoUs3hQA3SJ///13a37RKUC1GQJGVxH6ehFJEkLmV9scaPP2799/SYECBe7xSVSgz/fFixfZ+EUZDoAs3hTg5MmT1RBKhl90CgTxCv2r79+/zwAhcyvthCJFitzq3r37an6RCghXtjo7FrJ4LQQMVRs2bOgYHR3tyyc5BRAvuosE8cJo5QhHic6dO68rXLjwbX4xAfBczp49W5lflOEAyOK1ENevXy8hBaOMj49PjEqlYgXXSK1W642qM7fSjkC1GQLmF6k4evRoLXxM+EUZdoYsXguB7hCptOlgXRbECyORrb2sEgN8n3PlyvWEX0wAtHsxqwO/KMPOkMVrAdAdg1Ct/KJTgf5X9DELRioYrRwlXoSKbdKkyR5+UYEaQMGCBe96eHjosQynEViduZUy7A5ZvBZg27ZtreBJxC86Fag2o+QVW5gRvJ3/aVdArG3btt0ixHeGaL/88sul4lkbEIvaEdV4GbJ4kwWEsW7dus4o4fgkpwJ9uqgqi9uWEIujrq9SpUrnypQpcwW/YTyrXLny2fr16yMOFgdMiHbw4MF6/KIMO0IWbzLAyBkpjVtFqQvLt7jkRXcR0vhFuwKumY0aNdqH36gFZM6c+XW7du02CzM34MOCoYrwvcayDPtBFm8SQBcMhrw5ShiWAgIRe1XBeOVIsdSrV+9gunTpIjBlCoYnojSuUqXKGX41Z3WWu43sD1m8SQBdQ6dPn67KL0oCEC0GJYjFi4+MI8WLSc5KlSr1b/PmzXdmyJDhPdrAnTp1Wi+MQMLHZM2aNd2cNXgjrUAWbyJAtXTFihW90Y/KJ0kCuB60d8V+xLhWRzqPoIo8cuTI6V999dWvfJKiYcOG+yFqflGBkVeYlZBflGEHyOJNBJgr15mjhxIDSlyUbGLxotS1t4ukGLA6N2vWbBfmCOaTuPmCO3bsuIFfVLx8+TIrmhz2GvEkQxYvFaiWLlu2rB/+8kmSAcQLoYqrpCiNBacNRwH9zfzPOKAbKU+ePAgfy2Hz5s3tYH3mF2XYGLJ4KUBXx+HDh+vwi5ICSllEbxQb0ZwhXhowgKFVq1bb+EUFZvdfu3ZtF6l0s7kbZPGaAW1HtHWl6qOL64Mnk7g6ivG06C7iF50GlMZdunRZK56tf/369Z2cFe/L3SGL1wxo60q11AVQ4j569CiPeVsSpTH/06koW7bs5aZNm+7mFxVPnz7NiY+h3Pa1PeQHKgJK219//fWrjx8/BvBJkgPE++zZM8xTFK8qKhXxwmWyZ8+evwcFBX3gk7i2r2x5tj1k8YqAElfqrn2oIt+7d68A/vJJHKRQbRYAl8nGjRvv5Re5tu/SpUu/lPt9bQtZvDykbGE2B+JGi7uKAIjXPM1ZgM9z3759l8OVkk9SbNmypa3sdWVbyOLlIWULszlo1lt4WUlFvEC1atVOiocPYtjikiVL+os9w2SkDrJ4CdDGRVvXlaNAQLxSEgat9N2xY0cLGAT5RRmphCxegn379jVylVI3MeDDI7WPD0pf+D/ziwo4lyxcuPBr8YgoGdYjzYsXJRZKXVcfwoa2utSs5Ch94f8sDtqOwR67du1qxi/KSAXSvHiRkU6cOFGdX3RZoNR1pH+zpcBQQYz35Rc5DzGUvo4K3ePOSNPidScjCoxVUuouEoBhggiVIx7EgIna4HnFL8qwEmlavO7UfYE+VKnGjkLYHPGE3bhWNFUQ2I9PkmEF0qx44TiAfl13cRxA95FUxYshhH369PkN0Sf5JAVCxP7222995EEL1iPNihdB5aQUm8oWkHI7EkHbMecRZnvgkxSrVq3q4ezpY1wZaVK8Dx48yIevvrs5y2MAvLnbpJSAEUfVq1c/wS8q4KO9YMGCQbLjhnVIk+LFF//mzZtF+UW3AarNUvKyMge6jIYNGzYHwev4JM7uIM/tax3SnHjR1kJ4Fn7RrYBxvlL3EsOABXHXEfqm586dOxT97XySDAuRpsSLKiWMVBgPyye5FdBVJMW+XjEwPSlK37x58z7kk7gx1Ij1zC/KsBBpSrznz5+v6M79ixCuKzg/lC5d+uqgQYMWCMYrjFFG2xe2CG4DGRYhzYgXRpFFixYNdNS8Ps4AvJdCQ0Nz8IuSRo8ePVbVrVv3EL/INWfQ9ytlg5vUkGbEi6rZ9u3bW/KLbgkhRA6/KGkEBwe/GzVq1DRMl8IncYZEeF/xizKSQZoQL0axoFom9fagLXDnzp1C/E/Jo1atWkfR9wsnDiyjVjRnzpxhrhAQQRIwGo1uz7Vr13b28fGJxu26O2vXrn04MjLSj/YcpMiXL19mIdXng8L14z2tWbPmC9q2MuOTmuhOJF/zzNWrVz8uzuDuzJCQkKek/ViM9iykyqNHj9bMli3bc+EeKlSocP7p06cIskfdXqaJ6gkTJpDn5b6AJxVhX3KzaaKJgH5T0jwIrFOnzmFSimn5ZEkjV65cT8gf5ZEjR+qwLKt+8eJFNn9//0hSiziqVMquz4nCXM3uxPv37+crXrz4ddxmWqJarTaQj/J4hmFUtOciRZIPTkCnTp3WCfeQPXv20FOnTlWlbSvTRGqiO5B8wZWjR4+eIs7UaYmohp45c6Yy7dlIlTdv3ixSpkyZy8I99OzZc6Ver9fQtpVJHhEt0R146dKlsjlz5kR1LF6mTkvs2LHjX+/fvw+iPR+pcu/evY3KlSt3sUSJEtdWr17djbaNTBOV+MfdgP7Or7/+eiFcIfmkNAnMXlC/fv0D8CUuXLjwbfStguK+VamB5EelMBcTBjII3UgyKBAr2V24Z8+exoGBgZhuw+jt7R0TEBAQHhQU9B5Mly7dR5KpdViXVog2sK+vb1TBggXv7N69uwntmcl0PbpdyYshcejox1jR4sWL3wgJCXmWIUOG97BekntVwmED414xZci5c+cqnT59uiqsm/zubguUthMIEEsZJTKfLMOF4XbiRXULfswYvUKbABrA+sePH+c+derUZ2vWrOkG10l3G5gvwMfHJwaeTN9///3PtWvXPmKvaig+jPhwwjsKcwWDmPwMQ/3g2YYuLMwjjI8nnjWuAx9UPz+/KARmz5Qp0xsEqcP0oKja4/3xh5aRCNyyzWsOZCxkoOvXr5c4evRoLRCO8Bi87i4xrATgg4XB7ug7rVq16umWLVtur1mz5jHSdPjIb5Iq4FliAASGHyIOGOZNun//fn74VOODCBdHtFnxvPGRhP0huWeMa/b09NSRqn00aggYLli+fPmLuH5MGZo1a9aXcts3IdxavMhk165dK7l3797G+/fvbwjxIlPxq50OQWgIj4rRNMjoEAe/OgGQwbEPqr3YB6UqRInpNJHpc+fO/Zi0a+9ihnrEjEJpJo4ZZQ0wmTeaGfCZvnXrVhHw7t27BTHvLoYfYvC/vT6AKH3z5cv3QDC6VaxY8TzumV+d5uGW4kWJCrFu2LChI6rGKAn4VZIChIjSpXv37qsRWRHVSYiYVoXHtiiZUALhLzI2qpyYlQAZGkxN6YSPBqq9qOpCmBDpv//+WwofP9gHIGBUe/nNHY706dOHN2jQ4B/EgEZNAvfNr0qzcCvxotqGmEh//vlnV2Q6KcdzEgBRwqgGd0bMKF+hQoULWLZX5oRIIUKUmCg5YdhDtff27duFUbpiQDyEKrRN+d0kA4i4bdu2W7799tvZJUqUgPdcmoVbiBftLIRyXb58eV8ElnNV4xOqwmjfFSpU6A4s5SiNURVGGizmKF0hamxHqw4L7Uv8FYxDMByh5oHaCISKwfrCX5SyWI+2KUTNH8YlgGbBjz/++FPnzp3XpVXjlkuLF23anTt3Np89e/a3CHFjTRQGqFzKlhCIFVZZVJXRvsVviBjtX3PB4XlAtGinomTFb2HZXu1SZwLPpF+/fsvGjBkzRTyZWZoBxOuKhB8sfF9Juy8St5EiKk0kwjUStXN/qdtZSFR9Qdo6mfYlaeczpBq9+eHDh3lo+cSdSU2UMkmVULNp06Z2Vo8W4oWL3xCuB/83NQJWqshfFRGvcGzu+CoTuXUiis6PcwofENB0PH4/m5M/vvgazUnWC9f0iapkaNrP2WzQoMH+e/fu5aflGXclNVGqJG04/ylTpowWXB9TTLGASMbzJGnePDUkXU3S1aQloVLzguT349L5zE3qqZ8yLEnjtiPbc9QQAavV5C/oYaIH+R1Hsp7bxrQfqcdy5/Yj9CHnVSvINkqyT2JUaJKkKhGa1vMiVoqIaxeun/yFGNUJqEmGFBHjWdEo3sYOhIDTUgnsMm1eGF3QtlmxYkVvq6zIJHeBMPR4ajx1nipPvhHIKvRGVqXWGzT+er2HhmVV8B2ENUj4C7Mv/oqfFNdOJsdjiZpZrEDrEwPHiSo5eQtQilrURv439+AVCg+ySEpcjsjdseSADI4j3l8E8sr4X5bCrDWPa8HxBQi/8ZesQkeTkntQAujXIQauiI07j9nxzZHSy7cC6A9evHjxAPRx80luC5cQL4Q7fPjwmZjpICWWZPR7wtUOjgtFixW9WbBIwbshOUKeZQwKfufv50/ayigOjAoDY9DoIiL9X/69s82T9Ws//xAT4xOhYlWPDKwCVhAwjNCbZEyD0osTrIFliaCRbY3cMkRnVJF/yP9cJjXlauGfOEC0KAOxmanQM0kEW0HA4q3j74n18d+VsBRvOxw4MSS1DgeLO7zwiM0ftfkVkfXxjmm2Pv7lmsH8WLYB3jlGlM2YMWOEuzt0SF686MpAnx7CgloqXHx1P/vss1OYWgNOEHC3gycTb1RKFI/nLRobNfl/k6JIuQ6+ZKMVrwzRihdRUYq3pPh9oFUo0CeBEhnE0CSUysLvKEJDvNxMhE3+FbKpeWeMcDXxbypxhZmLF8cVUuKkIOye+GESwvypxJX84isTzhB3JoJP6z1IOqpDHqbFBEDNxfTsaMe0LdB19PPPP38PESf3zl0ZkhYv+h/Hjh07GV1BlnQDwbG9ffv2mzAbXalSpf5Naf/f29HjZsb+8st3KEHxVFCiciDLsSpPRbjGT/GBVSs+MrGKCFaneBjxRvGerH5HiNIZZm+U0PjcQ9QQtIEwrgpOjscdk8+/n568Kk7IpMXNlcxGUsVGSSxAyf9HtiT/Ydl0EPEHgavC88umdHIMHAfvGHV71IsTaO/TAYRzYyPTmUwXZdoC12PaRdhDeCH460MYSAhXNogYTRLcO5C7ePEbhatXP7Hl2LGaFxw0wVv27Nmfr127tgsGZfBJbgdJixdOF0OHDp2Lfko+iQq4CUK0Q4YMmYepNKz15w37fvhcdu7cIR4ke6pJJleTR4N2KZeNVWpFtIevIpr8jSVy1JL2ozG9jyKS0Sk+6rVE1CrFK9ZXEa7UcGmRSkbxPPID2Y4ImeRuRqM0vowl1WxSEhiMRiUyNkfyG28AhK4gDIhBSAORhr+CGATxAEI5JmgS25mDlgYI5wJwHIgOy0jHskAPcs34i3k4NeR6hW0CNDDvkR8EfgyjKOmbThFE2vweHh7oFVAEBpnmDstYscLJqksWdjx19mz5z3v0WOWoScXgtQbnHYxU4pPcCpIV74ULFyp06NBhY3IzACBCxLhx4ybBZS41njZGUiV/PmzgMr8ly3qTLMllSmRY/PUgxRieE2NUcyLWkAyqVMNkDPExCoY1KBiyzBBxx6pVimgi3miyfQz5AuhJTterVIpYIt7X4R+NjFrFsmqlkSV/X0ebSmW8gVjSVntJ/uIGyLmIXIjA8Zeko9bBaDSGSINBw5BlsQ8zo9d7sCIHDA08sPj1uH4DWa8myxryQTPodJ4Y1KAk26vIspLcM7dMjg+n5dyEECjOTS5CGeRNLhSfG6VS4cOyyvQ6pdKbQZc2eT6kiA4I8De138k/HiyrCNCb/orzFLbF3ehG/Tgjz/Dh48ZPmDDhf9OnjyQ1AnKR4s8Qd9/8L9sAzwlGzvHjx08UPzN3gSTFC++gnj17/r558+Z2fFICkExhxGgTtG1Q2vLJVgPifTK0/4oMS5b1gHgBoVRRkwzIGliuKog1alKFJjmDKIfkBzw/WJixjJUsQ46lJ1VnI1dt5qqyZBVEjGozER/XL8WiP4r8ZTRqI6tUG7UqjfGj2o/sR9aRo5JN9QzLIIMzRobRELnpoxUGTSx5Y6Qaz+C9cdVrg8GTJQIlp+JE4uHhpVUpTSZuXI7KwHhCqBq1kiFC9vJQE7EajRoPkmZUsuQKlKSuQERJrjuDLpYrQVVKtBvIZqSqTT5ZOJTCk9yrv9ZI/pLj8g8GokWZryKbqxhSySdtA3wwcF4Y3vFIBITWrXMm09YdDSKionx7kWbN7kMH69lbvABGW2GAijtWnyUpXrRV+vTp8xtc+/ikeIBwO3bsuGHWrFnfoZ3LJ6cKEG/o0AErsi5c2oNP4jIgwOVRAjwqGJRN2VMMPpcKydxflpTUMFiRUgriJ2lcVkepzZVGRMj4h0sjpRVJN6g8uO0EiN8Np2ZyBH6XRCF8cAR80s+nggfnF+4JwDL5hCg8SRr+CkB7WQDSIVA0JwSQj0TcCbkmNX6K1mO1gKhK5S9779rXUB0c/PbS8eM12nbpvO5ZaGgO3K+Kv2nxvdNgbV5t3rz5TgxWsdWYZskAD0RKRLRDTNmBS6ORZDT2888/X49pMmj7W01SLXw7eOBSkveQZTkSodBJCs94JLXLBEQ62TbecUj25khKWhM9ePLLKuzH70ujcBwrmeh9Ccen3YOYie0nWiecw/w8huJF/2NDQ7MLz3vu7Fnfent66MjXBTUJjuTdJklafrCEXl5e2hUrVvSK977dgKKKjTSAcbiIK8UvJkDDhg33o8S1uRGCZA5/DTefkU0hLn24hXgJaQdKlpcxj569+/zWolWrbaQNQhrqJBkubHZ6NOi1WLhw4deI/MEnuQUkJV5Uk9E+wcPmk+KhWLFi//3vf//7wVZVZXOoNRr06MhwAALSpw8fO27cpMIFC9/mk+yKK1eulMEINH7RLSAp8SJ6w8mTJ6vxi/GAQdgTJ04cj/5bPsnmYAPSRfA/qUDJwBG/kYCSgist+BRhGUTjGHafT2tJOqlMCuSAv/zvuDT7IUHBL1xrYhB2iCPSRBSDXxZvLobR00OvMItaWbJEyWtjRv041d/bLwq3jy45Uj1OQAHmyykBLPZ79uxpkljB4IqQlHhPnDhRPbGZ67t167YGwdT4RbuACQhIUrw2hVisDhCu04HIIJSQs+3bt9/Yp1uPVbBi2zszYsw3Qvrwiy4PyYjXYDBoEit1EVANDhgYgI4QomgTIwgav9pmMAYFhhlT0x9oJOWrmATodREoeZhfvzlTAdbfN5oTsBnQNz/8++//V6Ny5bNiS7Y9gPjciNXNL7o8JCNehBJFOFZ+MQ7oXEegcEQR3LdvXyN0EcFoNWLEiBk2j1EVHPxOYaV3loykoQ0KDKeVvEBI7lyPR02YMCHYztEw4BuPAsIoMpy5MiQjXsRUolkDEWQMUQMnTZo0Dj7LEDCcOEBbvwQlMo83KR1wVEKUNWKaJ8TrF+FKDX5HnpyTg4gJSzJ8JwjN07GKxpTCSF6vmOZIcPz415+A5tubMwnEZsv+RqnRCB6eCVC7Yf39A4YMmu+h8mDEQ/3FtAWuXr1a2lHumfaGbZ6IDQDxImAavxiHkiVLXps8efLYqVOnjkbpzCcrcubM+RTVaH7RJlCmTx+mSJe00coaGH19o42mfsq0iyzZXiqSeAaoYQ0YOHBho8aN9vJJdgGCxCOv8YsuDcmIF+FGEfWQX+SAF4qA6Qjnaj6qCNVopY0FoQkKeq9Inz6cX0wxEpS0SCNVcWWnTusVNv7Q2AUJagBmTAW8soc85X8mCoy9Hj9h/Pi8+fI+4JNsDpS6Dx8+zMsvujQkI16UqubVYLRRMBDffBwvRg1BvPyizaBCMDsbOn8YMYZ41I8/Kdu03UK+RHY2x0gXRi+vWI+cOR/zi0miXPlyF0eMHDHN29s7RvAksiVQQCQ32MVVIBnxImwp/zNZIEIC5uLhF20GlY9PtDJnLlJC4LEkJHxvLSUTkC5CNWXqaOU33/yiePMmk0Kr9eb6iEFyNJtkSbQDxW1BYdk8XUBy6+2FwMAwdfbsz/ilZNGla5c/v+j2xRp+MQ62EjNmhOB/ujQc+AZtB8wqZ5c4vSgd8+Z9yC9ZDbRvVV8PWqAYMGAxqT6ojIcP1VW6iYXTKmTL9kKdNesLfilZ4OM8YtSIaRUrVTxH5Mqn2g6ozZnX8lwRkhFvStqv8LbCDAL8ok2hLFvukjEoCNEprYayWLH/VP2+XKqAdfX8+YrGAwfq86scAzh90Bw/hPTE1tsaQglfqNAdZUBAimwJefLkeTRx0oRxmTIFvyF1GZJiu+vFNKTWBOiXGiQj3pQM1xKm/uAXbQpjk8Z72C2b27G9eq1ksmZ6heF6DHlKqAojsgbIbcdVgVVxND1K/nfjJntJ7nukwJC3cWMnK1+8yIbPPD5PHPGb0J2B58Nq1Iyu6mdnDf37L1Um0sebFOo3aPDPN99+O9vWk4FDvAY3mEFCMuKFIC2NdoApLW39QgUoEYmiVq3D6iWLv1Lv3NVMSTKPPl/uhwY1kR2ES4hxqxiXiwgZeqVGwRAaEUTG6KlgNN4GtmrV0zgWs/3v1sqDB+pzQuX3NZE8djFTC+E45iWqsGyebiniXTMSRBDdB/dT+CJBtORZMQXy3zf+NGW0ZsvGNh616xwka1IM5Iev+vdf0rxVi+0JBirLkI54MZmWpYJEKW0v8caBHF9ZrvxF1Yyfv/fcta+xesLEccYSJa4b4xwNIAZBFCaqjIT+6SLUuXKbLKuenjoG43OFjM1BMo885RDuw0xHgpEOMOYMeaYY/v3P6h27mqmHf/8/VQraujTAvjFx4qRxxW04IyBinmGyNn7RZSGZnITxuZZWnfHwLS2lUw1yHnXBgnc0o36cqtyzp4li7pxhbNUqZ5REmB5ErB5Gg0KNgK9KHcnXOoVGoSc1Z1Mxp6pc5QybLetLVLuFEDhsntyP2Yb1/2E9RJmHK7pMPyUFQaycMEkJy3pyNMWGNGUd3JterTYyefI+Zr8bPkuxc3dT1ZSfflQWKnw7KaeMlABDQSdNmjwWNS4+KVXAZG2yeG2IbNmyvbB0gL3DhMvDSNpHRrjUZc/+XDnw64XqbTtaaJav7KVo2GifwtcP4Zo/ISw8vfLylTL4iQysrFv/IEMeMzI4W736CeWGvzoqBg1awHgghhS3B4EVr8EW1e0UANeKjw8XgwtCJs0GA7kHQ9Eit5Rjx07W7NzdRDVt+ghliZLX4vzD8dzgFWfWT28NmrdosWPYsGFzaKJDfkhJnnCbGQWFvjNnMzY21rN169ZbcUnJccCAAYtox7AXDe/eBes7ddxg+O6b2ey1f0siZA637uPHdAwpjXVduqzXZsr6jlV4k1RvI1uq4lXjjf+KYRv25OnPops126sdM3oa8/RpTqTp5vzyrVajMepVGiOr1JAUITwOOV0SJO1sM2J/4Td9H1vRQPSq1aiM0R4qozZdQJSuVq1jhkWLv2aePMkV9zwEGgxq9szpKvqv+i7Tft1/CRsTQx6MaL2V/PDhQ2Dnzp3XivNC3rx5HyxatGjA7Nmzv8mcOTM+/vHyCo3z588fRDu+q5Ga6CxOnDhxHO1hm9PR4mUiItIZqlU9pdcojPpC+e+xWza3FWdYVqv1jjl9urp24OAlTPY8oYx3xhj9lu1tufVkOyYmxsfIMESdZJn8je7R7c9IT40xVm0mXnJvNOEIjC9c0LS/I8Sr91AxsblzPIvq231VzO5dLZiwsEDh/uNRp/NgFy76OjYk6wuth8IY3bnDxrh7twEfP36cq2nTpruEvPDVV18tYckzfvr0aUiBAgXuivMJjYhntXPnzma0Y7saqYnO4p49exr7+HBxpBI8dDEdLV4W4q3+2UmI16AmIsqV5zF77nylBNvq9Rr2yuUy7Nq/OkPwCdYTohSKaNFkXwQRL0pfyYs3MH0YW7fOIXb2rG/Z/24UY4k4afcl0LBjR0ttxgwf9OQ5ceLt2vkvW4oXDA0NzT5p0qSxAwcOXHjr1q3CSHvy5ElOS8RLmmfP//vvv6Lmx3RFUhOdxWfPnuUoUqTITdpDF7NHjx6/42tLO4Y9iOouU6jwHdJyM2VoIjT98JGzaNsmS1KljOjZc02khyepgpKqs1oQromCEE0UlpMj2Rb2pLjrEyg+Nj4S5jTtb1CBpg+TXqNk9YGB4bGf1TgdM37ClNhTp6ozHz8GUO/FjBB2zOefb4xFDYUcKxbV7Nq1T7Dhlu2fEoaFhaV/9+4d/OG5ZUvFW61atRPh4eE2vx5nUDIGKwDdRVWqVDnDLyYKDB00H4FkTxj3H2iofPQ4N2dDJlmAc9q4d7sgaainPB6SWs14t+u4UeMfFA4HEL3a5AQCAxD6i+MTaTxxTqVATJsipimdO07cG8UPT3K5CH2N2WLERBqsxp4KhJLXe3gx+pAcL/SNG/xjnDRpnGrHjuYeu7Y39R4/bqxn1aonVOnSWdQLwH78mF51924BjL0V5j1SXf23JHvqFDVCijUgmVa5cePGDphErlWrVtsuXrxYnl9lESpUqHDBbeI3m6vZ2Vy3bl0nDw8PDJ+L98UUE3GdIyMj/Wj725Skusfu/6chk7/wPVPpRZIJUVLpW7XZZtRqvaj7JUdSQjFLlvePzp/3EaqWptITBixP0g4WaGoTC0QJbSoh+VLSnKSk46r0hHHXqfQ06pW+RoPCnyyTwoaQVaZnWa9MWjZHkWdMjcbHYoZ+Nz9iw/quMbdvFmOio3yp12shmffvMxgqVLgoXCcMciBTpcrZ2CtXytH2SSm3bt3amnzk0XfM5YXBgwfPQ7olJS/au9jf/JiuSmqiMwnDQ7FixW7QHr7AkiVL/vvmzZuMtP1tQdbAqGOuXi8bMW7ctMicIS8MJAOKxQuxMd//8DNtX4uJD8P1G8XZKVNGsw0a7Gfz5buvDwoK0/mli9Z5+WBWIQNHXx+tLp1/lC448IM+Z45nhrKlryCAuV6tZAXBQryoOgvtVNbfL5LJnPFNbJ6Qp9HFCt2OqlrpfGyLFruYgYMXsbPmfmvYvbcpc/tOYeNH0i63ZfODtPkNnbuuw/MyZ0ThYvfez549Kub2naLWnnP//v0NcufO/UicF+rWrXswOjraxxKDFfIVtqMd2xVJTXQ2v/3221m0hy8wJCTkqWCosAeZqCi/qDadtoV5a4yRpOaJUiSeeDWeenb16u60fa0hEx3tq3vyJHfUpcsVPx461Chs+/b27zdt7vJhy5ZO4Xv3tog4drSe9vLl8szduwWNpJ3HTp82Ulza6jMEfmA0agN3fRBv3z7Lmf9uFNPfv1tAF/osxBD2IYi0Rz1tKtREyEyZOoYmXpTAXBt48NBFaPfT9k2Kp06e/Kxw4cK3zPNCjhw5nn333XczBw0aND8IwRTM1ouJUtqRthJ7k5robJ44caJahgwZMO1tghcA+vn5RR45cqQWbV9bUT9v3tBoIlwtnIriGYGwTDJk6XL/stu3t0RpQ9vfbiQltqFv79+4bitCnZfawAzsv1ifO+SpcH1M9c9OMu8/GXMcQTZG663/fVUvfb78DxMTb4y/f0z09u1taPsnxSuXr5QpV6bcZVpesJSknRt+8ODBurTjuyqpic5mTEyMd7t27TbRXgKoVCrZZcuW9aXtazPeuFEM1c5YtElJKUdOHEehfaoPDn5vGPXjdPZpqOOqYh8/pjPUqHYiTrxZgt+yRw7XZpo12Y2PDKgP8IvU/rO3MXV/O1B/525h7ZdfL9MGBEXShAtCvNpyFa7oX73KSjtGYkQNq0a1GifUpvFcVhN9wxEREQhaSD2PK5KaKAVu3769BUpY2osAhw0b9gttP5sxNtZT16nDBpS8GDhDTirqhiEZEsYgUmXVemoYQ8Wa53VrN3RNrG/XlmTv38uvy5vrMc7N9TtXrXzGGBaWnpn20yjOuEWqprjmyKEDFtm7mgzPs4ilvw58W6bizXCPQGOsypsI9VMXlmC4AnFt2h9GzKQdJzE+evQod6MGDfdjCm9+Gm+rCEPVX3/91ZF2DlcmNVEKhDW5RYsWmCEhwcsAYaiwt8VZv3pVjxhvtYGz4EK4ICdkk3UY/ZkgJ2TfoOjYFq13GbbtbGWM4MLScsewNQ3/7GuoTecTzYmXkBkyaD7S2ePHasQEZQ6P1nhy4o0qmu8+c+9eAfP9bUHmw4cg5o8/vtDVrXk0ws9LF+7pb4zQBHDPgbMN8DUAMbWBARH6g4fq045H44sXL7K2bdN2iyDc1Ii3Xr16BzD7JO08rkxqolSI0tff3x+hWBO8EHsbrUDDw0d59YUK3+VKOEKImHOGIJkRpYnJEcH0O65qSKqO+matd+k2be3AmMKtUI9tLfVXr5SJnTxxPDNxwgRmwoQJxnPnKnLrSOlrmL9osH7CpInMxPETmKmTxzB37hQy399qklLc8OJltpjfV/eOqVP/iM7HT4vuK5T0KFVx/2KjXtzHjqeuRo0TjIUCgvNFj+7dV6lJ84jvuuZIywfJEbW3zZs3m1xV3YzURKkQXQCYi5f2UtAXvH79+s9p+9mMDKPSDxyyiGtfkravYN01iddU8nHCJr9NFKqJRMi+/jHMZzVPsbPmfGu8eauIww1btqJW68VeulKWnTBxgqFsuSt6Lx+d0I79RNREyObkvSRG3Yzpo6jHN+NH0qb/+uuvF6jVavJIPwnXWvF27Njxr6io1PVfS5XURCkRlucsWbK8pL2Y/v37L7a36d9w8Eg9XYaAcJS6gng5xglWzE/i5ci1i70Zfa68T2J69lodvXVTB33osxBruko4kntl1v7RlR0yeB47Zepo9vmLbOL1+nv3CurGTZiM9cY9e6w2WLHkQ6N7+DCfftXqnmzbDpvZzJlfsaQUFGoc8YVLPlSkBMaHDM+FK2nJu4n7S8jmDHmqv3G9BO1cYuJjPXLEiOmCk05qxYtupDNnzlSmncsdSE2UEg0ko//www8zaC+nePHi1+GkTtvPVmRJ+zW2ZbNdCcQLWiBekFUQwrHDxzOWLVbkJtuv31J2w4aOzMOHeZNz9BdTd/ZsFSZ3zid4bWyxEjfY0Ofx7l13/XrJ2BwhLyEypnSpq1y/sGh9koyJ8WZv3yqMdn5sr26rdQXz3Wc1Gj3OFcckxIvmA7zFUBMRCxe/2S/7LU3ug4UhoVN/mvqjr7c3YpORXVMnXpTcU6dO/dGd+nXNSU2UGmF1LF++/AXzFwQr4qZNm9rR9rElYzf+9bnO3zvGGvFCuEaOQpvQRMbLNza6YKH7UZ07b4xauGCo9ty5Kvp3bzMmNgIH7efoFm13G5T8mOHuvVfFCYKvkrMREf76+vUOCm1Rfb+vlrOkNBMfJ45kX8OrF1l1x4/Uipk1fURMm+Y7YvKEPNV6a/SfqsC4Vlz3J4pF+4km8XL94kTAYvEyGTO8MxxLuk8eH+h58+cN9g+Ib99IjXgbNmy4z55eeFIgNVGKhEjTmRzk472kbt26rdbbuT3JhH0I1DVtuI9r31oqXq7UJSLjB+ibBPxJvCC2g5FLp/ZitRkyhWnLl78U07fXypjFCwfpThyvwT57GsL5TxNBM1Omj9ar0xlYha+RVfkyxmW/cf3czMUL5ZmhpJp89y5nWWbGj5uEQfMc0wVEMatW9+DuA+2+B4/yGv85VJ+dOfM7tkvntWyJEtdYf/8ICC7C61PJGTc6iROh+Jr5+4oTrUBTtTmu5EW2Asn++r49V7KkVBWepTlRMq5YsbJXYGAgQtzEe7fWijdnzpxPTp48+RntfO5EaqIUiWoV3NvMX1T27NlDr1y5Upq2jy2p37OzmTY4fViKxAuhcYMCfAlRcpFDxSMEjXWmbThrNRFAlJeSjQpO91FbtOAdPZwvevf+jc2S7aUgIiZrjpfs1X9LgUylSudxbLZB4/1GUkNh9u9vqE3nF81ZgQl1BQvcN/Tru5yp1+Agk7fIA9Y3Y5TpnOCnGgGun6v6ktIzGkImf7kuMp5cs4G7R3Phgqb9zZ1ZmFwhTw0Xz1egPU+BGzduap85Mxf+iOwSn9aIF+PBlyxZ8hXtXO5GaqJUiZEjGI9p/sLGjh07iba9LcnqYj0jB/dfIpS+yKjmQtalD/qobdpyb+SYCdOi/vfLKO34KZN1X/T5gylf4wIblOU9q1KycSUaV6pBOJ/Eyzk2iI4pnIt7TSIy9eoeRL8uU6nyOdMxIEJPI9O46V6kG0qWvB5XdSb7oxpsqgpjW9QCcD7hoyLUCEzngkdZpLdJwDpPJavLlvFNbM2qp6K/6rXi49TJEyJ/njVKO2L0z7ra9Y7q/fyicd9x18mdw0RWrWJ0P00ZnZSjyJ49exvnzIlpa+h9uCkVLzzv8IGHhx7tfO5GaqKUeejQoToobcUvDQP479+/n4+2vS0Z+/B+fm3V8he4EgklDfmLTIu/+ry5HzEbNndko2PitzExeujd+wzsmXOVjdOmjWRr1TyK6BQMEbLJEwmCMlEQmUCuNIMgQLwqkPxmmjXdxVSpdFbwZBJKZM4oVq/eQaZatVMoDYXjfPpYCNt+OqcgXIH4wOiyZnyja954j37B3CGGK5fKsuFh6c1FiAH27OJFA5jMwW8heJTa3L0ovcjzUBr1bZvvZpJocx4/dryGeBQQTaTiNHF6YmzevPmOly9fZqGdzx1JTZQy0UZCwDHzcDlTppCvPGV7W1N76J8GiOVEclOcKFgvLy2zYmVv2vYJ+PRpCDt58hgmC7pfTOJKCSF6xsc7xiR+ynpS4jHePlpO1GQ5SeL1m5HNm/eBccGCr42WGHvQFp86eYyWlNAQsFGFYLiexpjixa/rrlwuQ92H8OKFi+VLlSp9Vfz+aCIVp4nTaaxQocJ5dwlvYympiVInqkXffPPNbJVKhRCj3MvLnz//PUe9vJj167symYLfco+PkCVVeZSutG1B9v2HIGNYeHr2zNnKXKmZKeMbDOGjic+WpApWTP76xWQ9PHRstqwvDF06reNiVr1/H8SVvGQtjeyD+/n0hQvcZSFeckwmT56H+n/+SdQN8saNG8U+q1LldHJiBC0Vb8GCBe/AH4B2PncmNdEV+Pbt22B4z4hfIto79rY8c0RVeN3azmxOvs915Khp1O3Ap6EhTKPWe5mKtc4xefM/pInMXkwgVnPi9dNI1nFt+GKFb2krlb2k7dH1j0TjWBkM6piePdfA0MaWKXUjKeGiaVO3Tp1DyYlRoFi4iW0PN9ldu3Y1pZ3P3UlNdBWi/xcDFIQXiTHA+/bta0jb1uZEG/DokVpsndqHjRs3t6duA/6+pgerTm8wGYcStmttyQTiTI54/YmRrOeMUaQ9rw30j4g+eiTRsbARC5YOC2vXabv+6tVStPVg6PPn2Vu0bLndXJApoVi0IDzvHNHPL1VSE12J169fL165cmUEreNeaB3yZXek0UL/5nVmw4ewRB3umcGDFpgsvOAnI5I9mECcyRGvPymKto2cPesH2v2BsW/fZ9KHh9PjOBPCWaJH795/YlYDjA6iCdMSioWbKVOm12vWrPmCScSpJS2Qmig1YpTJ3r17GyU2rOvSpUtlS5cufQUvFe3gMWPGTDYk447nCLKxWq/IVk12azW8wwZnHaYLzxYUiw2kbQOabxePyBIU6vv3/5V2j8kRYVYHDRiwxJO8Fw05DigM8aMJNCkKwkWJ+8cff3RNy8IFqYlSoU6n80DoksaNG+/x9fWNwmiTxAR89uzZSrA44uUilpEUogQyH8MDImpUPoMYzVq1MFA9vpCYrFleMrVrHWE8PXTm61JCmhCRjqqvQNq2rJ9vFIt+4/QB4eJ0QbQC2TZttyBAAe0+EyNG84wZMXKmv0aDGR054aZWvGjjbtmypY07+yxbSmqiFHjv3r38iJYRHByMSaG4Fwdn8169eq2AsYq2z1XS5hKcODBo4d9//y1J285RZN68yWQoV/pKnKukWcnLdffMmvWt8e+/WzFenrHidSlhAsHxy1gntFvNBSyQCc7wznjy5GfssKFzzNfFY7OmuzB4gXafNGq1Wi9MXwP/c0F8anIcjrx4U0r0C+/evbuJLFwTqYnOJKpZcG8rWrTof/CYEYQrENVizJiQWLv2zp07BYW5bFBiP3/+PN6wOUeSef48O1u0yE14McHHOYF4M2d6bSRtdvSritPFZHLneszOmPEDU7PGMdp6kCZepCM8LNOu7WbD5EljdZmD39IEjBLfiLl7/vmnPvqPxeuE7bl9mjfbaal4YfHHxF9+fv6RYu+p1Ii3fNlyl9Jid1BSpCY6g3jhiAgJLxl8rYUXTiNE3aFDhw2JDQeEYPv06bMc40J79uy50lnTWzBv32Zkypa5zA0JFIlXEARTssQ1LpQrKaHEoonHcbzrZxICT1S83qQ037G9BfY39Om1QlwCi8muXtXdePt2IX2ObM9p60F982YWlbxohy5durRf+vSBYSbhgpg7wTrRapQqtmH9Bv9cv3Yt2fHAaY2kNuN83L9/P//IkSOnt2/fftPOnTubxyYzjQi5cOWmTZva9+/ff8mjR4/y8MlxwFy/c+bMGTaBAMcbP378xOjoaMzz4Vh4euoU3l6oDnPTkSRAIMngXl6xCm2MD58SD0Zvb62yUuWz3O/Xr7JwiZYAUiFQIlbzK9N+ygoVMKSSfPnwrxkMBo0iXboIhZ/ZXMMisD7e2rh5d5PAhg0bOv744+ifyAczPZ/EI+VZDXPxduna9c/fVq7oZcuZ8d0FThdvTEyMz+jRo6fOmjXrO9KWzcgnJwsIeMeOHS2+/PLLpbdv3y7MJ8cBs5+PGDFixvLly/uS6lb1n3766UdHC1jpSUo+IlAIBkwgYB+fGE7gEDANmDCaCJj7HRqag/trIYRTGYX9cJ7EgBnsfX2jlYldBwETHPxe4eEBw1OiwIdy+PDhM03vEVcgMOVIRz4mI8gHfd6C+YNCQkKe8ckyRHC6eH1IBm7btu0Wayd/+ueffxqQKvJvV69eLc0nxUFNSgpMRvXnn392ff/+fYa5c+cOxSRl/Gq7g4hXp8gZ8oybJIxPoyJdIveOGsjr15nJl0rJ/U0KfGlrDuUb036keh7MJZjBiNIUzx4fCm52eWSJhNnCGBKCwSCJ4tjhw3WGDR06lzRlyMfCOsEKyJkz59Nf5s4ZOnrsmMnp06cP55NlmMEh4kUpyf+kok2bNlshQNKWTSQLJo2TJ09W692794ozZ85U4ZPioVChQndmzpw5vECBAve2bt3aJmGVzk7A/eTL94AmXHFJrMyV64mRVBFNS5+gZBi18eHDvBCxMSwskE82acNCfXD74TgPHuTjk+KD1FAU2bI/56rODGlmxon3E41E1Kr8+e+RBSounjtX6YfBg+c/TuwcKUCVqlVPr/nzj649evb83TOp2oIMTlh2o8FgUK9evbrbr7/++mVy0ephZBK7OlpDDA0kJXGivrXoYsAcwJhdnbbeHjRs+7t1lK9/LGb+gxGJGwesUnEzLhhq1jluROxpDKzPnPUVl44hhmSbOPbutYIzalWodJ4InjNGmZObO4kzhmF4n2iIH1nHtGq5zfj+fZC+UeP9GOxv6ms2kRtIX7TYLZY8e5Y8l9jChe/iOrlrI+swxA/b6YOD3sdeoEwmTnjt+rUStSpWPBdAzufBvwcieCppBimBft4+MX179/kNLq+088hMSGqiLQihrFy5siccJmA9RghXRLxIqo/u3LlzFZOb6S05YhY5dOJLxfsGQeBi8+Z9AtEYiRghKPT5xioDjbEV650zfggLNJIPG1unwSEIJ9rDNCCfGyusIeJr1mS38fmLbGyFqufJDZIjxiebMfgt2+/LZZhdEJ5ciKEsFjDbvMUO9lloDm3ZilcR2eNTSB5YwH2Nuh59VnNRKUkJ/6Fw4YcRnt4mhxKlaRv4YxsqVrxAi0F9997dArXq1DriTc7jR0iKbSOpEXyimXhp7wvEbPWkSTPEIdO2uhGpiaklBIp5ds1DtubNm/fBL7/8Mkw8o7k5MS1FcrO9JUecFx8Oh4wwSoasNtYrql2Hv7lIExAvoV5lEq+2RPXrxpevTf3VcxcO0Wp8GcyWL96WG/jw+EkuqniJQNjPO/5lfPIkJ1Or1jGtRmMETeI1kW3eagd7/35+bZGid1CamtLxF7M8ZIwy/L2D80TT37xZ7H2e3M/hDfZJuCYygwYvEN8TiKkym7ZouktBrhUlrichqWSnSLzo8qtevfpxdBFKzdUR14NBLlKeEpSamFpu27atpXm0C4Hoe8X0E3v27GmMuFTm+xpIVfvnn38e7i0KAWoN06dPHzZr1qxv4eljfg5HM+L3Ff103moDKZpM4lWruNItNl/xh8IkZYjBrKte9yRKZYiS3ARHtlmzncbXrzOxlaueEdI4km20mGTsED/z3Zo1X+j9vGNMfbmoHpvItOuw2UiqxfD0YhHtAiTXwK1v33ETIk5if92ly+WjsmR996nqbRI54xcUye7e10S4F/A1uZ6O5KMB4XIk18IJV6AF4kUwQXjQ2Tt0r7W8efNmkUKFCt3+4osv1nz48CHRQRfOJDUxNaRNgEwjogV++eWXv8KF0fyri+Db33///f80vE+stYQ/9OjRo6c4e3Y43bNnObVlS1wTwucg5hMXIC5H7ufiKUkMR4/X0hcoeddU4kE8RGjffTeTm0m/ebOdJmGh1DS1RXXfDJsjDvuKidFwXFMJ7MlRP3DQYuyv69zxL70nOTchSnZtlUrnDTduxDk+6E+cqKHzD4wSzstRqTZGNWm2XzyWFxm5d5/ev6k0Kga2rDgKghUznnA/ibdEiRLXUMOifbylQNTYhgwZMhfXCpdczBeNPEnb1pmkJlrL48ePV8fXSnhJljBXrlyPx40bN/HBgwd5xceCV9SAAQMWpVbAKOkxs4KzY/jqFi4YrPfS6Lk2L1c6EiFlyvLWcOlyOfF27Jnzldm2nTezGbO/YYOD3xoPH6qDdP3okdO4djM/vJCt0eAYqtPiffXXrpWKKlX2RoSnpxH86OXF6n5d2p9b98ef3T4G+UfF5Mr2HPP7Gm7dKiLe17hrV1PEkubES64RtQRDUPqIiG1b48bLok069Nuhc9SeakM84YoZJ1wwvngRuqh3796/wYU13rklRoxgE88PjVogArhjoAxte2eRmmgNL168WK5UqVLx4hJZSrR94Ms8bdq0kbA2CkYtfOUhvNQKGP7QcKd0piWTCQsLjOnYaRNnvSUlL6q3+vRBH3XHj9dMsG10tK/26rWykSdO1Ga1JpdEw7kzlXX58j9iEbu5eqPj7MWr8UQvMOrI0Xrvy1e4FuHlwUZVKHfFQNq7SDeQ0jP86NH60bduFkckTPP9jGvXdmbVXgbOwkyuTeehZGOHDFrAaLXc+RF6aOz4sZM8fT1juaqyuVjFy3HP/pNwixUrceP333/vIcUSTMxXr15lxphwcf4BUc1H7DQptc2piSklYkdVqVLltPkNp5QQGUSM0Sg4Jtq/mHhqxIgR080DzllDdEU5c6SR/uGjfLqmrfZEeXqwsCprfQNjYvYfsGxOIZJpmLNnK7ObtrQ3hr5Isp2oe/AgP7NhQ0f2WgrudenSfqzSj+VC0GrUBl23Ln8yr19nxjo9KXFmz5rxQwB5B3EWZXPxihn3zFVGf/+AiL59+y2TemkLQpjjx4+fgHwozjcCM2bM+AaGWNq+ziA1MSV8+PBhHhigaDdrLVESI+r9V199tQT9tpirdcGCBV8nZgRLCcuUKXP56NGjCUo7R1H//EX2qDGjp0cXKng/xi8wJmr7zja07RzOOXOHan2CtNqSFa8bZs78nnlvCqjHoK9+8eL+IVmzfYRFmW5VTki8w/LlK17YsGFjB1eJo4zqMiJ00O5HICYvw7BE2v6OJjXRUkJUrVu33kq7SVsR8/N+9tlnJ9EuHjVq1E+p7QcG8+TJ8xCxj5xWBSKCQNRFZvfupvpnz3JSt3EwmTu3C8fs29fIEPo8hxCjGc2XrWvWfJGLtP/UCk+uH5duVY7PTJmyvP7hhxEzECTf/DxSJRx3LK09Ilol7Du04ziS1ERLiIgW3bt3X4UvLO0G7cGAgIBwVF1scU4cZ/78+YOk0JUkVe7durV1rmzZnnsoNES4nuS5kfarWKxm4vX29Ixt2qTJ7sOHj9SWQh+7pUQ7HLaVuPuygAi7hPBLtOM5itTE5MhZHYcOnQMzOu3GXIWYNX3kyJHTwsISj0ucVnmCNFeKkBoK167ljE6aT2I1Ey0+poULF761aOHCgVLtE02KCP5gjU0FNcLbt2/HdfU5mtTEpIi+ORiUPMlXlnZDrkZYstER70pVPHvz1KlTVYsWK3LTZJRCactbjSniRZgifMhdwSBF47Fjx2rAvmKeLywlphJ1pK+8mNTExIg2IgxHaIfSbsSVie4BR8w2KHVeuXK1dLkKlS8qVKSarCSlLSdaQrFlmaR5e/vGtGzZahuqyFLr/7SUMLai9KTlh5Swbdu2m50xRxI1MTHCK0YcEM7dWKxYsRtpOcDZ7dt3ClWvUec4J1wVhKsxqohQQe4ZEeGqNWpDhQqVzq9Z88cX6MajHccViGuHzcY8D1hDNBtwrKR89u1BaiKN6LKBNxTt4t2JWbNmfYE2UFozZD15/CRXw0YN90GgGGgAwrqMv74oaQkL5Ctw/6efpo2Sqj+ypYQxbfLkyWPgfUfLA9YQfcMDBw5c6MgPGjXRnJcvXy5TsmTJf2kX7Y6EIeuHH36Y4egvqbP46tWrLO3addjMlazk/jHEDxREnCtz5lffDRk6F5OEuUOtBAHbMXCF9u5TQ3wMkG8c5UVGTRQTLoW1a9c+TLtYdyYs6e3atdvkqoYYS4kPFELpCt1v6MeFgMHAgIDwL7p2/eP0qVNVXanrJynCQQf9/Obv21aEH/SECRPGO2LQBTVRIF4sBtHTLjKtELMwYEJvd2wHo4qHWSjMu/wwGgsheOFx5E6zzGOYnzCrhj2JmhuGtdrbkEdNBFH0Dx8+/GdX78u1BTHFBmIRu1M7GO8Xfdzidh8insDqvmHDhg6ubIyiEdZgfJDE79WeREAJTNVDuxZbkZoIHj58uLZ4WFRaJ76mmNAbA9Fpz8uViCodhrgJAQ/Q140uE0QfgeccbR9XJj5E/fr1W+pIb0BMu2PvKBzURBA3bKvRPO5CWBSbNGmyGwY82jNzBWKk1rx58wbjYwTRVqxY8dzixYv72+KjJMWmBT5UGClkjWUZ79ua4agYvIDCj3Y9tiQ1USCqVlOmTBntjk4ZqSFcAVG1dDXnBIjrt99+640qHXxzMT7VVs4FiFYCzywpPRM4FS1cuHCgNfkXzUUYaiFE2vrEiI8ioqXSrsfWpCaKiS8XHPhTGxTO3YiuBoTYSWzGQqkRwkVUzQYNGuxHbC+EwKVtZw1h2ESTAt53tPXO4saNG9tjAArt/SVFlLiY6wo1kpTUPFFKw47gKNsINdGcqGphFnJbjKd1J+Lr3KxZs52uUI1GhIgdO3Y0t7UPN7rS2rRpswXdLwigQNvGGYSxyJJYauZE9Rrhl+CI0rFjx79o29CI9jRC/DhykAs1kUZ8uXft2tUUYxlpF5+WiTHGCC4v5W4VfIBt2SZFlfTAgQP1ypcvjwnMjAgmiHPQtnU0L1y4UB7zM5u/p+SIUhYlJ0bNYTrRlLgCO8O/mZqYFNGugZGDdgNpmWjrwD0uLYxOQuaeM2fOULiS4t7RpELsZdq2juatW7cKV61a9ZT5+0mOiGY6c+bM7/ABxkeob9++y2jb0Yh5oJ3x3qmJyREPCFZXR5reXYF4HojGAOcGqZRCtibePYZQiudQhiNPamodtqoRQEAYoid+J5YQQwLhMil4kWHmDsziQNvWnLAh3Lt3jwvy52hSEy0h5hbq1avXCls6d7sLUd0aO3bsJGcME7MXIc61a9d2Nq+OwnCX1PxQSRFVbwzDtEU3Fdr0iBAqvjZLWLZs2Uvo1hE+ILCWW1Lq4kPdtGnTXc4SLkhNtJSIrYxMKnclJaTQ1QDDiauXwogWAScHNA3M77NTp07rrCl10Q0J6zQs9ql15Ef0DhQkKakJ4v20aNFiu7mRDb7PyVmoYY1GG9fZU6FQE1NCdCWhX0to/8iMT0QjxAcOwfpoz0/KxMcZbqGYfTGxe7MmEiciT+BjAEPf+fPnK9C2sZRofw8ePHheStx48RH67rvvZpoH4o+KivJNzsKM7iB8KKRQq6ImppSocqCdh2ksaDec1okvNdzl0FXjiNEmqSWqjhiMAV9gcdvWnBBNSkYbCRZq2AXwTCZNmjQ2Ne1dlPg//vjj1JSEZEL30fLly/vQ+mIRbIJWuxAIazS8DqUS84yaaC2vXr1aCgYD2ZBFJ9qHiEWN0S227LaxFSEuvENEUkzOrx1eZjBe0Y5DIzL8jBkzfhBmjoQvNewmtG0tIT4w8P6z1IkCHwsMukBvCe3Zo1+3cuXKZ2j7gqhKw8KeGsOcrUlNTA3xQvDyUzvLnzsTfeWY6lQqgxwgWnxQUIpZEi0FJR28j2jHohFGKThyCMZNTB0Cby/atpYQwp09e/Y3ltpacD5MFpZY0wX3j6ZNYoUO5t/aunVra2xH299ZpCamlmg7wAUvuejzaZloO9WoUeMYXPicNYshDGmIjgHRYu5kS2tMCLSP9jDtmGIiH6DNnD9//nvi/dHetdaFENeMMEWI4S0+ZmJEUw5+6Ek1V9BHbT6XNIjSun79+v9gHi7afs4mNdEWxFcK8/QiqJv5Q5H5iRj43qpVq78xkXNqra6WElU/VB8xjSVK2pQ0c/Lly3cfHky044oJK263bt1Wm9fAYPyy1o0SeQrtVUv87FGd7tmz58rkIqGgiwkCNd8f72XQoEHzpWxopCbakpjYC/1h+IqZPyCZn4iSpH379hvtJWK089CkwURZqMJaM1Ybgli2bFlf2vEFwvq7YsWKXmgTm+8P41dy+ydGXD/6mS2pzaEvGu6qyT1HlOJjxoyZbJ43UQvBPUipfUsjNdHWRNsOpnm5Pzh5QsQoiVGdTu2IJWR4jPhBXzOeP4IIpiZYPkLmJJahcS4M0EC/b2L2js6dO6+1pomAY+OjQ6vaigmDIFxULY07hna3uBRHUwYWdktqFlIgNdEeRBsHkRqsGemRFgkBoEtl+vTpI2DwsbQUgDEHboI7d+5shjBGlSpVOguDDe0cKSGqlomFfMUHAgakpAK7wUhn7fSqf//9d6uk3BUhupo1ax5NSVfc9evXi4u7NnH8n376aRTuhba9FElNtCfPnDlTGSZ7uTvJMuI5wQGmZcuW29BVcfr06SqoyaB/FdU+RDy5e/dugT179jSG0BHxEkKxpbUf1VDasEd8KPbv398A/r1JucmiugzDlfn+lhCCTMoCDkcPDChIieUe28K7CvtD+I0aNdqLUURSsyYnR2qivYkvOKpgSXWIy0xICBmjX0qVKnUVIu3SpcufcP5A5rZX1xyc9iFQ8ftDNRZdSzDoWGI8QnUZbWHxMSxhUsLNnDnzKxjcUtpnjnYwnEvwLFELhPBdqbQVk5roCKIaiJAs9oyhKzN1hEAwj7H4vcEtEBne0nHdsC6jiio+hiVMTLj4eHXt2vUPWMtTGksa26NqjA8OjoHaREqELzVSEx1FPLizZ89WgleWbI2WFmHVRfQUoSoJDylYcOGFZKkfMWpWOIb5e0+ONOGi3Y7aBtwrrekjRhMDNheMvUW/r6O65exJaqKjib42RDCwxxQUMlNOxKmGtRsfVzhj4DfatUn5OdMIy29KhWYuXJSSqHaj6g6nD9o+lhDGMnx8UuOSKTVSE51BGD9QRUtLcyJJkTBOYXwuhtnBUR+1Ikv9h8VENIuUzlu7ffv2FvhwYH9EbYQf+PHjx6vbor8VbW6UvrR1rkpqojOJsaM0zxyZ9iWqwnXr1j2Ivk+4H1avXv24te8AbWVzI1dSRAkP32F4b8EYh9FGaCentE2b1khNdDbxlYTju2zMchxhWIKHF/6mZGysOdFlhNFDKTEEYUwv+qThQQWDmCsbkRxJaqIUiBcITxf0x8mhduxLdJvA88oWfe+IZ2XJoAWBeM8YFO8OBiRHk5ooJWLuHMy4JrSFZEqXmIUB/a609yjT9qQmSo3oroBnEQKcy6WwNInB6jA40d6fTPuQmihVyqWwNIkPKlwzXc290NVJTZQykUFg4ED0vpT2O8q0D7t3777K3ebzdQVSE12ByCwYmI3B/rYwtMi0johF9fDhwzy0dyTTvqQmuhIxombYsGG/WDMbnMzUEY79GI1Dey8y7U9qoqsRnfmIQwTfV3nAv2MIV1ZMEUJ7HzIdQ64z3F0QHR3te/jw4TqbN29ud/v27cIvX77M+v79+wwxMTE+Op0Og7SV/KYyUgGNRmMYM2bMlNGjR0/Fbz5ZhoPhVuIVwDCMGkKGcF+/fp0ZIgZfvHiR7dWrV1nevn2bMTw8PH1ERES6qKgoP4hbq9VidjgN9oXISWmOGd45sZM2ddxDEn7jr/Ab++F8+EBg2d3Ro0ePVfPmzRsSEBCACB0ynAS3FK8YECAEit+enp46lmVVIAQHsYEQKpYhYPzG+sjISH8IGfvFxsZ6YT3+ghDqhw8fgvBhCA0NzXHv3r0Ct27dKoKPAbZ3Z9SvX//AypUre4WEhDzjk2Q4CWlCvDt37my+ePHiAR8/fgxQq9UMSNrGkfiLbcxLVuwjrmoLokYaiI8B0iBkbAOx87u7NUqVKvXvmjVruuEvnyTDmYB43Z1EYB6Y1R8B3Yg45W4lK4hwOBgIT3u+Mp1DaqK7EgOxMTuAPJNDyogYzxjxQ3umMp1HaqI7k7Rd1ZhMGeFQZD/p5ImZAxC1Es+N9jxlOo/UxLRARIqYP3/+IEsDqaVF4uOGGQVSGspGpmNITUxLxDSViLVkSQjTtEQEBMRzcdYkaDKTJzUxrREGLcRtatKkyW55sINpcD5Co6Z2uhWZ9iU1Ma0S4U0xwVTZsmUvpeVQtJgryZ2iLLorqYlpnU+fPg3BrOuYLY6Wud2ZCPH66NGj3LTnIlNapCbKNI0bxsTTmFIjudnp3IWYQ8rSGfZkOp/URJmfiBFLCMGDcLTuHBQeDizWTnot0zmkJspMSHSXwKiFiandbYI0TGFy9erVUrT7lildUhNlJk7ElN62bVtLOHlYM5OA1CgL13VJTZSZPIU5fDDptKt2L8nCdW1SE2VaTnhqIaJErVq1jriSiHG9165dK0G7J5muQWqizJQTYWkxnSVEIfV5lurVq3dAtiq7PqmJMq0nRJya2fXsSXhOYfoYOdqje5CaKDP1RJsYU5Y2b958hxSs05g8rEuXLn+GhoZmp12vTNcjNVGm7QjH/p07dzbDDHzO6ifG6KABAwYskn2V3YvURJm2J2bBO3ToUB3MLuDIYAAo9ceOHTtJHh3kfqQmyrQfMYLpzJkzlQcPHjwPoWXsGZYnODj47bx58wbL43Hdk24fgE6qQGRKRJzcsGFDx40bN3a4c+dOISFapS2QN2/ehzNmzBjRtm3bLUKgPRnuBVm8TgZ5/sqnT5/m/Pvvv1uvW7eu8+XLl8siKiW/2ipUqFDhwuzZs7+tUaPGcT5JhjtCKIJlOp8wKBEBd4KFOiAgIByvJyXEGGSMxb19+3Yh2vFluhflkleCQFxo0i6ugpJ4z549TTDTA3lPSU7V4uvrG92/f/8lo0aNmpYxY8a3fLIMN4YsXgkDszT8999/xTZt2tR+y5YtbTH/EtL41XHIkSNH6Lhx4yZ17959tbe3N1w0ZaQByOJ1AaDUff78eXaUwuvXr+909uzZypiOBeuqVKlyZtq0aaNq1ap1FLM9cDvISBOQxetiwJQtp06d+uyvv/763MvLK3bkyJHT8+TJ84hfLSMNQRaviwJzJ+Gvh4eHnkuQkeYgi1eGDBdFmpjdToYMd4QsXhkyXBSyeGXIcEkoFP8HaP8R+ky6jY8AAAAASUVORK5CYII=;" parent="1" vertex="1">
          <mxGeometry x="151.6" y="-422.5" width="103.8" height="102.5" as="geometry" />
        </mxCell>
        <mxCell id="3uJrxtnBRZQrfx2Aj6_I-88" value="" style="shape=image;verticalLabelPosition=bottom;labelBackgroundColor=default;verticalAlign=top;aspect=fixed;imageAspect=0;image=data:image/png,iVBORw0KGgoAAAANSUhEUgAAAO8AAADsCAYAAACc5PEXAAAAAXNSR0IArs4c6QAAAARnQU1BAACxjwv8YQUAAAAJcEhZcwAADsMAAA7DAcdvqGQAAFGxSURBVHhe7V0FYBRHGz2Lh5AQnODubsXdXYoUhxYo1pYWKG4F/gLFoUChQAsULS7F3aVAcSe4JMQud7d7/7y93bC5TJLL5WTvsq995HbWd+ftzHzzzTdKo9GokCFDhutBxf+VIUOGi0EWrwwZLgpZvDJkuCjkNq8LgbwrpV6v94iJifHBb39//0iNRmPgV8tIY5DFK2GwLKv68OFD0L179wr8+++/pW7cuFEcv1+/fp3Zz88vat68eUNKlix5jd9cRhqDLF6JQafTeT5+/Dj3uXPnKh07dqzm+fPnKz58+DDvx48fAyBmfjNFxowZ3+7fv79h2bJlL/NJMtIYZPFKAKgKQ6BHjhypDUFCsM+fP89uMBg0/CYJkCNHjlCIO1++fA/4JBlpDLJ4nQS0WV+9epUFAty+fXvL48eP1wgNDc3BMIya3yRJFCtW7L9Dhw7VzZIlyys+KVlcuXKlzK1bt4rkzp37cc6cOZ9mypTpjZeXVyy/WoaLQRavgxEbG+t17dq1klu3bm2zc+fO5hATqsr8aotRvXr1E7t27WoWEBDwkU9KFpcuXSrXvn37TW/evMmUPXv250WLFr2J49SsWfNY8eLFb6AdzW8qwxUA8cq0P8PCwtJv27at5eeff76elHiv8ehTwzZt2mwh1W0N7VxJccGCBV97e3vHiI+VIUOGd40bN96zbNmyvqT0z07bT6b0SE2UaTu+fv0608qVK3vWqVPnkK+vL0q2ONGkhoMGDZpPO19yjI6O9hk2bNgvKpWKMT+mRqPRly5d+sovv/wyjLS5s9H2lykdUhNlpp6kappx+fLlfapWrXrKw8NDZy6U1HL69OkjaOe1hO/evcvQpUuXP2nHBdVqtaFixYrn1q1b1wlipx1DpvNJTZRpPSMiIvzXrl3buVq1aifsIVoQpeaaNWu+oJ3fUqJ63KJFi+204wtETaF3796/3bt3Lz/tGDKdS2qizJTTYDCoT5w4Ua1169ZbfXx8omlisBUhqgMHDtSjXUdKeP/+/Xz16tU7QDuHmOXKlbu4f//+BizLcgZOmdIgNVFmyogq8sSJE8dlzZr1BS3z25oZM2Z8c+3atRK0a0kp//vvv6JVqlQ5TTuPmNmzZw9dtWpVd3ykaMeR6XhSE2VazsuXL5dp0qTJbrQTaZneHixUqNDtp0+fhtCuxxpeuHChfIkSJeBmST2fwKCgoPdz584dotPpPGjHkelYUhNlWkZUJYsVK3aDltHtSZSU4eHhAbRrspYHDx6smzt37ke084kZEBAQ/uuvv37JMIyKdhyZjiM1UWbyvHXrVmGCW7QMbm/C0BQbG+tJu67UcP369Z+jdKWdU0xU2zdv3tyWdgyZjqM8ntdKkLZiMfgj84sOBWlbvyQvTxkWFhbIJ9kE8L4aNWrUtORcJt++fZsR25EmQ1k+SYYTIIvXSkC81rg12gIQL6k2p//rr78+T2rwQkpB2u3MwIEDF3Xr1m0Nn5Qo7ty5U2j8+PETMWSRT5LhYMjitQLwT8aQPX7R4cCAAgwPPHDgQH34KfPJNgH8m8eNGzcJPs98UqLYs2dPk9WrV3fnF2U4GLJ4rcCTJ09yXb16tTS/6FCgdMRYXpS4KP0w9pdfZTNgxNHkyZPHooTnk6jANSxevHgAroNPkuFAyOK1AmfOnKmC4Xv8okOBsDcQL0LhvHv3Lvju3bsF+VU2Ra1atY4OHTp0bnJhdm7fvl34jz/++IJflOFAyOJNITBwfvfu3U1t2dZMCWBMCgwMDIuKivKLjIz0v3//fn5+lU2hVCqN/fr1W1a3bt1DfFKi2LhxYwd71ABkJA1ZvCkEqogYOM8vOhze3t5atEsjIiLSoe0Ni7c4PI4tERwc/G7EiBEzUNLzSVSg9Ef7m1+U4SDI4k0h9u7d29hZVWbAXLy4FvzlV9scGKjftWtXjEBKFIj+gefiLOt7WoUs3hQA3SJ///13a37RKUC1GQJGVxH6ehFJEkLmV9scaPP2799/SYECBe7xSVSgz/fFixfZ+EUZDoAs3hTg5MmT1RBKhl90CgTxCv2r79+/zwAhcyvthCJFitzq3r37an6RCghXtjo7FrJ4LQQMVRs2bOgYHR3tyyc5BRAvuosE8cJo5QhHic6dO68rXLjwbX4xAfBczp49W5lflOEAyOK1ENevXy8hBaOMj49PjEqlYgXXSK1W642qM7fSjkC1GQLmF6k4evRoLXxM+EUZdoYsXguB7hCptOlgXRbECyORrb2sEgN8n3PlyvWEX0wAtHsxqwO/KMPOkMVrAdAdg1Ct/KJTgf5X9DELRioYrRwlXoSKbdKkyR5+UYEaQMGCBe96eHjosQynEViduZUy7A5ZvBZg27ZtreBJxC86Fag2o+QVW5gRvJ3/aVdArG3btt0ixHeGaL/88sul4lkbEIvaEdV4GbJ4kwWEsW7dus4o4fgkpwJ9uqgqi9uWEIujrq9SpUrnypQpcwW/YTyrXLny2fr16yMOFgdMiHbw4MF6/KIMO0IWbzLAyBkpjVtFqQvLt7jkRXcR0vhFuwKumY0aNdqH36gFZM6c+XW7du02CzM34MOCoYrwvcayDPtBFm8SQBcMhrw5ShiWAgIRe1XBeOVIsdSrV+9gunTpIjBlCoYnojSuUqXKGX41Z3WWu43sD1m8SQBdQ6dPn67KL0oCEC0GJYjFi4+MI8WLSc5KlSr1b/PmzXdmyJDhPdrAnTp1Wi+MQMLHZM2aNd2cNXgjrUAWbyJAtXTFihW90Y/KJ0kCuB60d8V+xLhWRzqPoIo8cuTI6V999dWvfJKiYcOG+yFqflGBkVeYlZBflGEHyOJNBJgr15mjhxIDSlyUbGLxotS1t4ukGLA6N2vWbBfmCOaTuPmCO3bsuIFfVLx8+TIrmhz2GvEkQxYvFaiWLlu2rB/+8kmSAcQLoYqrpCiNBacNRwH9zfzPOKAbKU+ePAgfy2Hz5s3tYH3mF2XYGLJ4KUBXx+HDh+vwi5ICSllEbxQb0ZwhXhowgKFVq1bb+EUFZvdfu3ZtF6l0s7kbZPGaAW1HtHWl6qOL64Mnk7g6ivG06C7iF50GlMZdunRZK56tf/369Z2cFe/L3SGL1wxo60q11AVQ4j569CiPeVsSpTH/06koW7bs5aZNm+7mFxVPnz7NiY+h3Pa1PeQHKgJK219//fWrjx8/BvBJkgPE++zZM8xTFK8qKhXxwmWyZ8+evwcFBX3gk7i2r2x5tj1k8YqAElfqrn2oIt+7d68A/vJJHKRQbRYAl8nGjRvv5Re5tu/SpUu/lPt9bQtZvDykbGE2B+JGi7uKAIjXPM1ZgM9z3759l8OVkk9SbNmypa3sdWVbyOLlIWULszlo1lt4WUlFvEC1atVOiocPYtjikiVL+os9w2SkDrJ4CdDGRVvXlaNAQLxSEgat9N2xY0cLGAT5RRmphCxegn379jVylVI3MeDDI7WPD0pf+D/ziwo4lyxcuPBr8YgoGdYjzYsXJRZKXVcfwoa2utSs5Ch94f8sDtqOwR67du1qxi/KSAXSvHiRkU6cOFGdX3RZoNR1pH+zpcBQQYz35Rc5DzGUvo4K3ePOSNPidScjCoxVUuouEoBhggiVIx7EgIna4HnFL8qwEmlavO7UfYE+VKnGjkLYHPGE3bhWNFUQ2I9PkmEF0qx44TiAfl13cRxA95FUxYshhH369PkN0Sf5JAVCxP7222995EEL1iPNihdB5aQUm8oWkHI7EkHbMecRZnvgkxSrVq3q4ezpY1wZaVK8Dx48yIevvrs5y2MAvLnbpJSAEUfVq1c/wS8q4KO9YMGCQbLjhnVIk+LFF//mzZtF+UW3AarNUvKyMge6jIYNGzYHwev4JM7uIM/tax3SnHjR1kJ4Fn7RrYBxvlL3EsOABXHXEfqm586dOxT97XySDAuRpsSLKiWMVBgPyye5FdBVJMW+XjEwPSlK37x58z7kk7gx1Ij1zC/KsBBpSrznz5+v6M79ixCuKzg/lC5d+uqgQYMWCMYrjFFG2xe2CG4DGRYhzYgXRpFFixYNdNS8Ps4AvJdCQ0Nz8IuSRo8ePVbVrVv3EL/INWfQ9ytlg5vUkGbEi6rZ9u3bW/KLbgkhRA6/KGkEBwe/GzVq1DRMl8IncYZEeF/xizKSQZoQL0axoFom9fagLXDnzp1C/E/Jo1atWkfR9wsnDiyjVjRnzpxhrhAQQRIwGo1uz7Vr13b28fGJxu26O2vXrn04MjLSj/YcpMiXL19mIdXng8L14z2tWbPmC9q2MuOTmuhOJF/zzNWrVz8uzuDuzJCQkKek/ViM9iykyqNHj9bMli3bc+EeKlSocP7p06cIskfdXqaJ6gkTJpDn5b6AJxVhX3KzaaKJgH5T0jwIrFOnzmFSimn5ZEkjV65cT8gf5ZEjR+qwLKt+8eJFNn9//0hSiziqVMquz4nCXM3uxPv37+crXrz4ddxmWqJarTaQj/J4hmFUtOciRZIPTkCnTp3WCfeQPXv20FOnTlWlbSvTRGqiO5B8wZWjR4+eIs7UaYmohp45c6Yy7dlIlTdv3ixSpkyZy8I99OzZc6Ver9fQtpVJHhEt0R146dKlsjlz5kR1LF6mTkvs2LHjX+/fvw+iPR+pcu/evY3KlSt3sUSJEtdWr17djbaNTBOV+MfdgP7Or7/+eiFcIfmkNAnMXlC/fv0D8CUuXLjwbfStguK+VamB5EelMBcTBjII3UgyKBAr2V24Z8+exoGBgZhuw+jt7R0TEBAQHhQU9B5Mly7dR5KpdViXVog2sK+vb1TBggXv7N69uwntmcl0PbpdyYshcejox1jR4sWL3wgJCXmWIUOG97BekntVwmED414xZci5c+cqnT59uiqsm/zubguUthMIEEsZJTKfLMOF4XbiRXULfswYvUKbABrA+sePH+c+derUZ2vWrOkG10l3G5gvwMfHJwaeTN9///3PtWvXPmKvaig+jPhwwjsKcwWDmPwMQ/3g2YYuLMwjjI8nnjWuAx9UPz+/KARmz5Qp0xsEqcP0oKja4/3xh5aRCNyyzWsOZCxkoOvXr5c4evRoLRCO8Bi87i4xrATgg4XB7ug7rVq16umWLVtur1mz5jHSdPjIb5Iq4FliAASGHyIOGOZNun//fn74VOODCBdHtFnxvPGRhP0huWeMa/b09NSRqn00aggYLli+fPmLuH5MGZo1a9aXcts3IdxavMhk165dK7l3797G+/fvbwjxIlPxq50OQWgIj4rRNMjoEAe/OgGQwbEPqr3YB6UqRInpNJHpc+fO/Zi0a+9ihnrEjEJpJo4ZZQ0wmTeaGfCZvnXrVhHw7t27BTHvLoYfYvC/vT6AKH3z5cv3QDC6VaxY8TzumV+d5uGW4kWJCrFu2LChI6rGKAn4VZIChIjSpXv37qsRWRHVSYiYVoXHtiiZUALhLzI2qpyYlQAZGkxN6YSPBqq9qOpCmBDpv//+WwofP9gHIGBUe/nNHY706dOHN2jQ4B/EgEZNAvfNr0qzcCvxotqGmEh//vlnV2Q6KcdzEgBRwqgGd0bMKF+hQoULWLZX5oRIIUKUmCg5YdhDtff27duFUbpiQDyEKrRN+d0kA4i4bdu2W7799tvZJUqUgPdcmoVbiBftLIRyXb58eV8ElnNV4xOqwmjfFSpU6A4s5SiNURVGGizmKF0hamxHqw4L7Uv8FYxDMByh5oHaCISKwfrCX5SyWI+2KUTNH8YlgGbBjz/++FPnzp3XpVXjlkuLF23anTt3Np89e/a3CHFjTRQGqFzKlhCIFVZZVJXRvsVviBjtX3PB4XlAtGinomTFb2HZXu1SZwLPpF+/fsvGjBkzRTyZWZoBxOuKhB8sfF9Juy8St5EiKk0kwjUStXN/qdtZSFR9Qdo6mfYlaeczpBq9+eHDh3lo+cSdSU2UMkmVULNp06Z2Vo8W4oWL3xCuB/83NQJWqshfFRGvcGzu+CoTuXUiis6PcwofENB0PH4/m5M/vvgazUnWC9f0iapkaNrP2WzQoMH+e/fu5aflGXclNVGqJG04/ylTpowWXB9TTLGASMbzJGnePDUkXU3S1aQloVLzguT349L5zE3qqZ8yLEnjtiPbc9QQAavV5C/oYaIH+R1Hsp7bxrQfqcdy5/Yj9CHnVSvINkqyT2JUaJKkKhGa1vMiVoqIaxeun/yFGNUJqEmGFBHjWdEo3sYOhIDTUgnsMm1eGF3QtlmxYkVvq6zIJHeBMPR4ajx1nipPvhHIKvRGVqXWGzT+er2HhmVV8B2ENUj4C7Mv/oqfFNdOJsdjiZpZrEDrEwPHiSo5eQtQilrURv439+AVCg+ySEpcjsjdseSADI4j3l8E8sr4X5bCrDWPa8HxBQi/8ZesQkeTkntQAujXIQauiI07j9nxzZHSy7cC6A9evHjxAPRx80luC5cQL4Q7fPjwmZjpICWWZPR7wtUOjgtFixW9WbBIwbshOUKeZQwKfufv50/ayigOjAoDY9DoIiL9X/69s82T9Ws//xAT4xOhYlWPDKwCVhAwjNCbZEyD0osTrIFliaCRbY3cMkRnVJF/yP9cJjXlauGfOEC0KAOxmanQM0kEW0HA4q3j74n18d+VsBRvOxw4MSS1DgeLO7zwiM0ftfkVkfXxjmm2Pv7lmsH8WLYB3jlGlM2YMWOEuzt0SF686MpAnx7CgloqXHx1P/vss1OYWgNOEHC3gycTb1RKFI/nLRobNfl/k6JIuQ6+ZKMVrwzRihdRUYq3pPh9oFUo0CeBEhnE0CSUysLvKEJDvNxMhE3+FbKpeWeMcDXxbypxhZmLF8cVUuKkIOye+GESwvypxJX84isTzhB3JoJP6z1IOqpDHqbFBEDNxfTsaMe0LdB19PPPP38PESf3zl0ZkhYv+h/Hjh07GV1BlnQDwbG9ffv2mzAbXalSpf5Naf/f29HjZsb+8st3KEHxVFCiciDLsSpPRbjGT/GBVSs+MrGKCFaneBjxRvGerH5HiNIZZm+U0PjcQ9QQtIEwrgpOjscdk8+/n568Kk7IpMXNlcxGUsVGSSxAyf9HtiT/Ydl0EPEHgavC88umdHIMHAfvGHV71IsTaO/TAYRzYyPTmUwXZdoC12PaRdhDeCH460MYSAhXNogYTRLcO5C7ePEbhatXP7Hl2LGaFxw0wVv27Nmfr127tgsGZfBJbgdJixdOF0OHDp2Lfko+iQq4CUK0Q4YMmYepNKz15w37fvhcdu7cIR4ke6pJJleTR4N2KZeNVWpFtIevIpr8jSVy1JL2ozG9jyKS0Sk+6rVE1CrFK9ZXEa7UcGmRSkbxPPID2Y4ImeRuRqM0vowl1WxSEhiMRiUyNkfyG28AhK4gDIhBSAORhr+CGATxAEI5JmgS25mDlgYI5wJwHIgOy0jHskAPcs34i3k4NeR6hW0CNDDvkR8EfgyjKOmbThFE2vweHh7oFVAEBpnmDstYscLJqksWdjx19mz5z3v0WOWoScXgtQbnHYxU4pPcCpIV74ULFyp06NBhY3IzACBCxLhx4ybBZS41njZGUiV/PmzgMr8ly3qTLMllSmRY/PUgxRieE2NUcyLWkAyqVMNkDPExCoY1KBiyzBBxx6pVimgi3miyfQz5AuhJTterVIpYIt7X4R+NjFrFsmqlkSV/X0ebSmW8gVjSVntJ/uIGyLmIXIjA8Zeko9bBaDSGSINBw5BlsQ8zo9d7sCIHDA08sPj1uH4DWa8myxryQTPodJ4Y1KAk26vIspLcM7dMjg+n5dyEECjOTS5CGeRNLhSfG6VS4cOyyvQ6pdKbQZc2eT6kiA4I8De138k/HiyrCNCb/orzFLbF3ehG/Tgjz/Dh48ZPmDDhf9OnjyQ1AnKR4s8Qd9/8L9sAzwlGzvHjx08UPzN3gSTFC++gnj17/r558+Z2fFICkExhxGgTtG1Q2vLJVgPifTK0/4oMS5b1gHgBoVRRkwzIGliuKog1alKFJjmDKIfkBzw/WJixjJUsQ46lJ1VnI1dt5qqyZBVEjGozER/XL8WiP4r8ZTRqI6tUG7UqjfGj2o/sR9aRo5JN9QzLIIMzRobRELnpoxUGTSx5Y6Qaz+C9cdVrg8GTJQIlp+JE4uHhpVUpTSZuXI7KwHhCqBq1kiFC9vJQE7EajRoPkmZUsuQKlKSuQERJrjuDLpYrQVVKtBvIZqSqTT5ZOJTCk9yrv9ZI/pLj8g8GokWZryKbqxhSySdtA3wwcF4Y3vFIBITWrXMm09YdDSKionx7kWbN7kMH69lbvABGW2GAijtWnyUpXrRV+vTp8xtc+/ikeIBwO3bsuGHWrFnfoZ3LJ6cKEG/o0AErsi5c2oNP4jIgwOVRAjwqGJRN2VMMPpcKydxflpTUMFiRUgriJ2lcVkepzZVGRMj4h0sjpRVJN6g8uO0EiN8Np2ZyBH6XRCF8cAR80s+nggfnF+4JwDL5hCg8SRr+CkB7WQDSIVA0JwSQj0TcCbkmNX6K1mO1gKhK5S9779rXUB0c/PbS8eM12nbpvO5ZaGgO3K+Kv2nxvdNgbV5t3rz5TgxWsdWYZskAD0RKRLRDTNmBS6ORZDT2888/X49pMmj7W01SLXw7eOBSkveQZTkSodBJCs94JLXLBEQ62TbecUj25khKWhM9ePLLKuzH70ujcBwrmeh9Ccen3YOYie0nWiecw/w8huJF/2NDQ7MLz3vu7Fnfent66MjXBTUJjuTdJklafrCEXl5e2hUrVvSK977dgKKKjTSAcbiIK8UvJkDDhg33o8S1uRGCZA5/DTefkU0hLn24hXgJaQdKlpcxj569+/zWolWrbaQNQhrqJBkubHZ6NOi1WLhw4deI/MEnuQUkJV5Uk9E+wcPmk+KhWLFi//3vf//7wVZVZXOoNRr06MhwAALSpw8fO27cpMIFC9/mk+yKK1eulMEINH7RLSAp8SJ6w8mTJ6vxi/GAQdgTJ04cj/5bPsnmYAPSRfA/qUDJwBG/kYCSgist+BRhGUTjGHafT2tJOqlMCuSAv/zvuDT7IUHBL1xrYhB2iCPSRBSDXxZvLobR00OvMItaWbJEyWtjRv041d/bLwq3jy45Uj1OQAHmyykBLPZ79uxpkljB4IqQlHhPnDhRPbGZ67t167YGwdT4RbuACQhIUrw2hVisDhCu04HIIJSQs+3bt9/Yp1uPVbBi2zszYsw3Qvrwiy4PyYjXYDBoEit1EVANDhgYgI4QomgTIwgav9pmMAYFhhlT0x9oJOWrmATodREoeZhfvzlTAdbfN5oTsBnQNz/8++//V6Ny5bNiS7Y9gPjciNXNL7o8JCNehBJFOFZ+MQ7oXEegcEQR3LdvXyN0EcFoNWLEiBk2j1EVHPxOYaV3loykoQ0KDKeVvEBI7lyPR02YMCHYztEw4BuPAsIoMpy5MiQjXsRUolkDEWQMUQMnTZo0Dj7LEDCcOEBbvwQlMo83KR1wVEKUNWKaJ8TrF+FKDX5HnpyTg4gJSzJ8JwjN07GKxpTCSF6vmOZIcPz415+A5tubMwnEZsv+RqnRCB6eCVC7Yf39A4YMmu+h8mDEQ/3FtAWuXr1a2lHumfaGbZ6IDQDxImAavxiHkiVLXps8efLYqVOnjkbpzCcrcubM+RTVaH7RJlCmTx+mSJe00coaGH19o42mfsq0iyzZXiqSeAaoYQ0YOHBho8aN9vJJdgGCxCOv8YsuDcmIF+FGEfWQX+SAF4qA6Qjnaj6qCNVopY0FoQkKeq9Inz6cX0wxEpS0SCNVcWWnTusVNv7Q2AUJagBmTAW8soc85X8mCoy9Hj9h/Pi8+fI+4JNsDpS6Dx8+zMsvujQkI16UqubVYLRRMBDffBwvRg1BvPyizaBCMDsbOn8YMYZ41I8/Kdu03UK+RHY2x0gXRi+vWI+cOR/zi0miXPlyF0eMHDHN29s7RvAksiVQQCQ32MVVIBnxImwp/zNZIEIC5uLhF20GlY9PtDJnLlJC4LEkJHxvLSUTkC5CNWXqaOU33/yiePMmk0Kr9eb6iEFyNJtkSbQDxW1BYdk8XUBy6+2FwMAwdfbsz/ilZNGla5c/v+j2xRp+MQ62EjNmhOB/ujQc+AZtB8wqZ5c4vSgd8+Z9yC9ZDbRvVV8PWqAYMGAxqT6ojIcP1VW6iYXTKmTL9kKdNesLfilZ4OM8YtSIaRUrVTxH5Mqn2g6ozZnX8lwRkhFvStqv8LbCDAL8ok2hLFvukjEoCNEprYayWLH/VP2+XKqAdfX8+YrGAwfq86scAzh90Bw/hPTE1tsaQglfqNAdZUBAimwJefLkeTRx0oRxmTIFvyF1GZJiu+vFNKTWBOiXGiQj3pQM1xKm/uAXbQpjk8Z72C2b27G9eq1ksmZ6heF6DHlKqAojsgbIbcdVgVVxND1K/nfjJntJ7nukwJC3cWMnK1+8yIbPPD5PHPGb0J2B58Nq1Iyu6mdnDf37L1Um0sebFOo3aPDPN99+O9vWk4FDvAY3mEFCMuKFIC2NdoApLW39QgUoEYmiVq3D6iWLv1Lv3NVMSTKPPl/uhwY1kR2ES4hxqxiXiwgZeqVGwRAaEUTG6KlgNN4GtmrV0zgWs/3v1sqDB+pzQuX3NZE8djFTC+E45iWqsGyebiniXTMSRBDdB/dT+CJBtORZMQXy3zf+NGW0ZsvGNh616xwka1IM5Iev+vdf0rxVi+0JBirLkI54MZmWpYJEKW0v8caBHF9ZrvxF1Yyfv/fcta+xesLEccYSJa4b4xwNIAZBFCaqjIT+6SLUuXKbLKuenjoG43OFjM1BMo885RDuw0xHgpEOMOYMeaYY/v3P6h27mqmHf/8/VQraujTAvjFx4qRxxW04IyBinmGyNn7RZSGZnITxuZZWnfHwLS2lUw1yHnXBgnc0o36cqtyzp4li7pxhbNUqZ5REmB5ErB5Gg0KNgK9KHcnXOoVGoSc1Z1Mxp6pc5QybLetLVLuFEDhsntyP2Yb1/2E9RJmHK7pMPyUFQaycMEkJy3pyNMWGNGUd3JterTYyefI+Zr8bPkuxc3dT1ZSfflQWKnw7KaeMlABDQSdNmjwWNS4+KVXAZG2yeG2IbNmyvbB0gL3DhMvDSNpHRrjUZc/+XDnw64XqbTtaaJav7KVo2GifwtcP4Zo/ISw8vfLylTL4iQysrFv/IEMeMzI4W736CeWGvzoqBg1awHgghhS3B4EVr8EW1e0UANeKjw8XgwtCJs0GA7kHQ9Eit5Rjx07W7NzdRDVt+ghliZLX4vzD8dzgFWfWT28NmrdosWPYsGFzaKJDfkhJnnCbGQWFvjNnMzY21rN169ZbcUnJccCAAYtox7AXDe/eBes7ddxg+O6b2ey1f0siZA637uPHdAwpjXVduqzXZsr6jlV4k1RvI1uq4lXjjf+KYRv25OnPops126sdM3oa8/RpTqTp5vzyrVajMepVGiOr1JAUITwOOV0SJO1sM2J/4Td9H1vRQPSq1aiM0R4qozZdQJSuVq1jhkWLv2aePMkV9zwEGgxq9szpKvqv+i7Tft1/CRsTQx6MaL2V/PDhQ2Dnzp3XivNC3rx5HyxatGjA7Nmzv8mcOTM+/vHyCo3z588fRDu+q5Ga6CxOnDhxHO1hm9PR4mUiItIZqlU9pdcojPpC+e+xWza3FWdYVqv1jjl9urp24OAlTPY8oYx3xhj9lu1tufVkOyYmxsfIMESdZJn8je7R7c9IT40xVm0mXnJvNOEIjC9c0LS/I8Sr91AxsblzPIvq231VzO5dLZiwsEDh/uNRp/NgFy76OjYk6wuth8IY3bnDxrh7twEfP36cq2nTpruEvPDVV18tYckzfvr0aUiBAgXuivMJjYhntXPnzma0Y7saqYnO4p49exr7+HBxpBI8dDEdLV4W4q3+2UmI16AmIsqV5zF77nylBNvq9Rr2yuUy7Nq/OkPwCdYTohSKaNFkXwQRL0pfyYs3MH0YW7fOIXb2rG/Z/24UY4k4afcl0LBjR0ttxgwf9OQ5ceLt2vkvW4oXDA0NzT5p0qSxAwcOXHjr1q3CSHvy5ElOS8RLmmfP//vvv6Lmx3RFUhOdxWfPnuUoUqTITdpDF7NHjx6/42tLO4Y9iOouU6jwHdJyM2VoIjT98JGzaNsmS1KljOjZc02khyepgpKqs1oQromCEE0UlpMj2Rb2pLjrEyg+Nj4S5jTtb1CBpg+TXqNk9YGB4bGf1TgdM37ClNhTp6ozHz8GUO/FjBB2zOefb4xFDYUcKxbV7Nq1T7Dhlu2fEoaFhaV/9+4d/OG5ZUvFW61atRPh4eE2vx5nUDIGKwDdRVWqVDnDLyYKDB00H4FkTxj3H2iofPQ4N2dDJlmAc9q4d7sgaainPB6SWs14t+u4UeMfFA4HEL3a5AQCAxD6i+MTaTxxTqVATJsipimdO07cG8UPT3K5CH2N2WLERBqsxp4KhJLXe3gx+pAcL/SNG/xjnDRpnGrHjuYeu7Y39R4/bqxn1aonVOnSWdQLwH78mF51924BjL0V5j1SXf23JHvqFDVCijUgmVa5cePGDphErlWrVtsuXrxYnl9lESpUqHDBbeI3m6vZ2Vy3bl0nDw8PDJ+L98UUE3GdIyMj/Wj725Skusfu/6chk7/wPVPpRZIJUVLpW7XZZtRqvaj7JUdSQjFLlvePzp/3EaqWptITBixP0g4WaGoTC0QJbSoh+VLSnKSk46r0hHHXqfQ06pW+RoPCnyyTwoaQVaZnWa9MWjZHkWdMjcbHYoZ+Nz9iw/quMbdvFmOio3yp12shmffvMxgqVLgoXCcMciBTpcrZ2CtXytH2SSm3bt3amnzk0XfM5YXBgwfPQ7olJS/au9jf/JiuSmqiMwnDQ7FixW7QHr7AkiVL/vvmzZuMtP1tQdbAqGOuXi8bMW7ctMicIS8MJAOKxQuxMd//8DNtX4uJD8P1G8XZKVNGsw0a7Gfz5buvDwoK0/mli9Z5+WBWIQNHXx+tLp1/lC448IM+Z45nhrKlryCAuV6tZAXBQryoOgvtVNbfL5LJnPFNbJ6Qp9HFCt2OqlrpfGyLFruYgYMXsbPmfmvYvbcpc/tOYeNH0i63ZfODtPkNnbuuw/MyZ0ThYvfez549Kub2naLWnnP//v0NcufO/UicF+rWrXswOjraxxKDFfIVtqMd2xVJTXQ2v/3221m0hy8wJCTkqWCosAeZqCi/qDadtoV5a4yRpOaJUiSeeDWeenb16u60fa0hEx3tq3vyJHfUpcsVPx461Chs+/b27zdt7vJhy5ZO4Xv3tog4drSe9vLl8szduwWNpJ3HTp82Ulza6jMEfmA0agN3fRBv3z7Lmf9uFNPfv1tAF/osxBD2IYi0Rz1tKtREyEyZOoYmXpTAXBt48NBFaPfT9k2Kp06e/Kxw4cK3zPNCjhw5nn333XczBw0aND8IwRTM1ouJUtqRthJ7k5robJ44caJahgwZMO1tghcA+vn5RR45cqQWbV9bUT9v3tBoIlwtnIriGYGwTDJk6XL/stu3t0RpQ9vfbiQltqFv79+4bitCnZfawAzsv1ifO+SpcH1M9c9OMu8/GXMcQTZG663/fVUvfb78DxMTb4y/f0z09u1taPsnxSuXr5QpV6bcZVpesJSknRt+8ODBurTjuyqpic5mTEyMd7t27TbRXgKoVCrZZcuW9aXtazPeuFEM1c5YtElJKUdOHEehfaoPDn5vGPXjdPZpqOOqYh8/pjPUqHYiTrxZgt+yRw7XZpo12Y2PDKgP8IvU/rO3MXV/O1B/525h7ZdfL9MGBEXShAtCvNpyFa7oX73KSjtGYkQNq0a1GifUpvFcVhN9wxEREQhaSD2PK5KaKAVu3769BUpY2osAhw0b9gttP5sxNtZT16nDBpS8GDhDTirqhiEZEsYgUmXVemoYQ8Wa53VrN3RNrG/XlmTv38uvy5vrMc7N9TtXrXzGGBaWnpn20yjOuEWqprjmyKEDFtm7mgzPs4ilvw58W6bizXCPQGOsypsI9VMXlmC4AnFt2h9GzKQdJzE+evQod6MGDfdjCm9+Gm+rCEPVX3/91ZF2DlcmNVEKhDW5RYsWmCEhwcsAYaiwt8VZv3pVjxhvtYGz4EK4ICdkk3UY/ZkgJ2TfoOjYFq13GbbtbGWM4MLScsewNQ3/7GuoTecTzYmXkBkyaD7S2ePHasQEZQ6P1nhy4o0qmu8+c+9eAfP9bUHmw4cg5o8/vtDVrXk0ws9LF+7pb4zQBHDPgbMN8DUAMbWBARH6g4fq045H44sXL7K2bdN2iyDc1Ii3Xr16BzD7JO08rkxqolSI0tff3x+hWBO8EHsbrUDDw0d59YUK3+VKOEKImHOGIJkRpYnJEcH0O65qSKqO+matd+k2be3AmMKtUI9tLfVXr5SJnTxxPDNxwgRmwoQJxnPnKnLrSOlrmL9osH7CpInMxPETmKmTxzB37hQy399qklLc8OJltpjfV/eOqVP/iM7HT4vuK5T0KFVx/2KjXtzHjqeuRo0TjIUCgvNFj+7dV6lJ84jvuuZIywfJEbW3zZs3m1xV3YzURKkQXQCYi5f2UtAXvH79+s9p+9mMDKPSDxyyiGtfkravYN01iddU8nHCJr9NFKqJRMi+/jHMZzVPsbPmfGu8eauIww1btqJW68VeulKWnTBxgqFsuSt6Lx+d0I79RNREyObkvSRG3Yzpo6jHN+NH0qb/+uuvF6jVavJIPwnXWvF27Njxr6io1PVfS5XURCkRlucsWbK8pL2Y/v37L7a36d9w8Eg9XYaAcJS6gng5xglWzE/i5ci1i70Zfa68T2J69lodvXVTB33osxBruko4kntl1v7RlR0yeB47Zepo9vmLbOL1+nv3CurGTZiM9cY9e6w2WLHkQ6N7+DCfftXqnmzbDpvZzJlfsaQUFGoc8YVLPlSkBMaHDM+FK2nJu4n7S8jmDHmqv3G9BO1cYuJjPXLEiOmCk05qxYtupDNnzlSmncsdSE2UEg0ko//www8zaC+nePHi1+GkTtvPVmRJ+zW2ZbNdCcQLWiBekFUQwrHDxzOWLVbkJtuv31J2w4aOzMOHeZNz9BdTd/ZsFSZ3zid4bWyxEjfY0Ofx7l13/XrJ2BwhLyEypnSpq1y/sGh9koyJ8WZv3yqMdn5sr26rdQXz3Wc1Gj3OFcckxIvmA7zFUBMRCxe/2S/7LU3ug4UhoVN/mvqjr7c3YpORXVMnXpTcU6dO/dGd+nXNSU2UGmF1LF++/AXzFwQr4qZNm9rR9rElYzf+9bnO3zvGGvFCuEaOQpvQRMbLNza6YKH7UZ07b4xauGCo9ty5Kvp3bzMmNgIH7efoFm13G5T8mOHuvVfFCYKvkrMREf76+vUOCm1Rfb+vlrOkNBMfJ45kX8OrF1l1x4/Uipk1fURMm+Y7YvKEPNV6a/SfqsC4Vlz3J4pF+4km8XL94kTAYvEyGTO8MxxLuk8eH+h58+cN9g+Ib99IjXgbNmy4z55eeFIgNVGKhEjTmRzk472kbt26rdbbuT3JhH0I1DVtuI9r31oqXq7UJSLjB+ibBPxJvCC2g5FLp/ZitRkyhWnLl78U07fXypjFCwfpThyvwT57GsL5TxNBM1Omj9ar0xlYha+RVfkyxmW/cf3czMUL5ZmhpJp89y5nWWbGj5uEQfMc0wVEMatW9+DuA+2+B4/yGv85VJ+dOfM7tkvntWyJEtdYf/8ICC7C61PJGTc6iROh+Jr5+4oTrUBTtTmu5EW2Asn++r49V7KkVBWepTlRMq5YsbJXYGAgQtzEe7fWijdnzpxPTp48+RntfO5EaqIUiWoV3NvMX1T27NlDr1y5Upq2jy2p37OzmTY4fViKxAuhcYMCfAlRcpFDxSMEjXWmbThrNRFAlJeSjQpO91FbtOAdPZwvevf+jc2S7aUgIiZrjpfs1X9LgUylSudxbLZB4/1GUkNh9u9vqE3nF81ZgQl1BQvcN/Tru5yp1+Agk7fIA9Y3Y5TpnOCnGgGun6v6ktIzGkImf7kuMp5cs4G7R3Phgqb9zZ1ZmFwhTw0Xz1egPU+BGzduap85Mxf+iOwSn9aIF+PBlyxZ8hXtXO5GaqJUiZEjGI9p/sLGjh07iba9LcnqYj0jB/dfIpS+yKjmQtalD/qobdpyb+SYCdOi/vfLKO34KZN1X/T5gylf4wIblOU9q1KycSUaV6pBOJ/Eyzk2iI4pnIt7TSIy9eoeRL8uU6nyOdMxIEJPI9O46V6kG0qWvB5XdSb7oxpsqgpjW9QCcD7hoyLUCEzngkdZpLdJwDpPJavLlvFNbM2qp6K/6rXi49TJEyJ/njVKO2L0z7ra9Y7q/fyicd9x18mdw0RWrWJ0P00ZnZSjyJ49exvnzIlpa+h9uCkVLzzv8IGHhx7tfO5GaqKUeejQoToobcUvDQP479+/n4+2vS0Z+/B+fm3V8he4EgklDfmLTIu/+ry5HzEbNndko2PitzExeujd+wzsmXOVjdOmjWRr1TyK6BQMEbLJEwmCMlEQmUCuNIMgQLwqkPxmmjXdxVSpdFbwZBJKZM4oVq/eQaZatVMoDYXjfPpYCNt+OqcgXIH4wOiyZnyja954j37B3CGGK5fKsuFh6c1FiAH27OJFA5jMwW8heJTa3L0ovcjzUBr1bZvvZpJocx4/dryGeBQQTaTiNHF6YmzevPmOly9fZqGdzx1JTZQy0UZCwDHzcDlTppCvPGV7W1N76J8GiOVEclOcKFgvLy2zYmVv2vYJ+PRpCDt58hgmC7pfTOJKCSF6xsc7xiR+ynpS4jHePlpO1GQ5SeL1m5HNm/eBccGCr42WGHvQFp86eYyWlNAQsFGFYLiexpjixa/rrlwuQ92H8OKFi+VLlSp9Vfz+aCIVp4nTaaxQocJ5dwlvYympiVInqkXffPPNbJVKhRCj3MvLnz//PUe9vJj167symYLfco+PkCVVeZSutG1B9v2HIGNYeHr2zNnKXKmZKeMbDOGjic+WpApWTP76xWQ9PHRstqwvDF06reNiVr1/H8SVvGQtjeyD+/n0hQvcZSFeckwmT56H+n/+SdQN8saNG8U+q1LldHJiBC0Vb8GCBe/AH4B2PncmNdEV+Pbt22B4z4hfIto79rY8c0RVeN3azmxOvs915Khp1O3Ap6EhTKPWe5mKtc4xefM/pInMXkwgVnPi9dNI1nFt+GKFb2krlb2k7dH1j0TjWBkM6piePdfA0MaWKXUjKeGiaVO3Tp1DyYlRoFi4iW0PN9ldu3Y1pZ3P3UlNdBWi/xcDFIQXiTHA+/bta0jb1uZEG/DokVpsndqHjRs3t6duA/6+pgerTm8wGYcStmttyQTiTI54/YmRrOeMUaQ9rw30j4g+eiTRsbARC5YOC2vXabv+6tVStPVg6PPn2Vu0bLndXJApoVi0IDzvHNHPL1VSE12J169fL165cmUEreNeaB3yZXek0UL/5nVmw4ewRB3umcGDFpgsvOAnI5I9mECcyRGvPymKto2cPesH2v2BsW/fZ9KHh9PjOBPCWaJH795/YlYDjA6iCdMSioWbKVOm12vWrPmCScSpJS2Qmig1YpTJ3r17GyU2rOvSpUtlS5cufQUvFe3gMWPGTDYk447nCLKxWq/IVk12azW8wwZnHaYLzxYUiw2kbQOabxePyBIU6vv3/5V2j8kRYVYHDRiwxJO8Fw05DigM8aMJNCkKwkWJ+8cff3RNy8IFqYlSoU6n80DoksaNG+/x9fWNwmiTxAR89uzZSrA44uUilpEUogQyH8MDImpUPoMYzVq1MFA9vpCYrFleMrVrHWE8PXTm61JCmhCRjqqvQNq2rJ9vFIt+4/QB4eJ0QbQC2TZttyBAAe0+EyNG84wZMXKmv0aDGR054aZWvGjjbtmypY07+yxbSmqiFHjv3r38iJYRHByMSaG4Fwdn8169eq2AsYq2z1XS5hKcODBo4d9//y1J285RZN68yWQoV/pKnKukWcnLdffMmvWt8e+/WzFenrHidSlhAsHxy1gntFvNBSyQCc7wznjy5GfssKFzzNfFY7OmuzB4gXafNGq1Wi9MXwP/c0F8anIcjrx4U0r0C+/evbuJLFwTqYnOJKpZcG8rWrTof/CYEYQrENVizJiQWLv2zp07BYW5bFBiP3/+PN6wOUeSef48O1u0yE14McHHOYF4M2d6bSRtdvSritPFZHLneszOmPEDU7PGMdp6kCZepCM8LNOu7WbD5EljdZmD39IEjBLfiLl7/vmnPvqPxeuE7bl9mjfbaal4YfHHxF9+fv6RYu+p1Ii3fNlyl9Jid1BSpCY6g3jhiAgJLxl8rYUXTiNE3aFDhw2JDQeEYPv06bMc40J79uy50lnTWzBv32Zkypa5zA0JFIlXEARTssQ1LpQrKaHEoonHcbzrZxICT1S83qQ037G9BfY39Om1QlwCi8muXtXdePt2IX2ObM9p60F982YWlbxohy5durRf+vSBYSbhgpg7wTrRapQqtmH9Bv9cv3Yt2fHAaY2kNuN83L9/P//IkSOnt2/fftPOnTubxyYzjQi5cOWmTZva9+/ff8mjR4/y8MlxwFy/c+bMGTaBAMcbP378xOjoaMzz4Vh4euoU3l6oDnPTkSRAIMngXl6xCm2MD58SD0Zvb62yUuWz3O/Xr7JwiZYAUiFQIlbzK9N+ygoVMKSSfPnwrxkMBo0iXboIhZ/ZXMMisD7e2rh5d5PAhg0bOv744+ifyAczPZ/EI+VZDXPxduna9c/fVq7oZcuZ8d0FThdvTEyMz+jRo6fOmjXrO9KWzcgnJwsIeMeOHS2+/PLLpbdv3y7MJ8cBs5+PGDFixvLly/uS6lb1n3766UdHC1jpSUo+IlAIBkwgYB+fGE7gEDANmDCaCJj7HRqag/trIYRTGYX9cJ7EgBnsfX2jlYldBwETHPxe4eEBw1OiwIdy+PDhM03vEVcgMOVIRz4mI8gHfd6C+YNCQkKe8ckyRHC6eH1IBm7btu0Wayd/+ueffxqQKvJvV69eLc0nxUFNSgpMRvXnn392ff/+fYa5c+cOxSRl/Gq7g4hXp8gZ8oybJIxPoyJdIveOGsjr15nJl0rJ/U0KfGlrDuUb036keh7MJZjBiNIUzx4fCm52eWSJhNnCGBKCwSCJ4tjhw3WGDR06lzRlyMfCOsEKyJkz59Nf5s4ZOnrsmMnp06cP55NlmMEh4kUpyf+kok2bNlshQNKWTSQLJo2TJ09W692794ozZ85U4ZPioVChQndmzpw5vECBAve2bt3aJmGVzk7A/eTL94AmXHFJrMyV64mRVBFNS5+gZBi18eHDvBCxMSwskE82acNCfXD74TgPHuTjk+KD1FAU2bI/56rODGlmxon3E41E1Kr8+e+RBSounjtX6YfBg+c/TuwcKUCVqlVPr/nzj649evb83TOp2oIMTlh2o8FgUK9evbrbr7/++mVy0ephZBK7OlpDDA0kJXGivrXoYsAcwJhdnbbeHjRs+7t1lK9/LGb+gxGJGwesUnEzLhhq1jluROxpDKzPnPUVl44hhmSbOPbutYIzalWodJ4InjNGmZObO4kzhmF4n2iIH1nHtGq5zfj+fZC+UeP9GOxv6ms2kRtIX7TYLZY8e5Y8l9jChe/iOrlrI+swxA/b6YOD3sdeoEwmTnjt+rUStSpWPBdAzufBvwcieCppBimBft4+MX179/kNLq+088hMSGqiLQihrFy5siccJmA9RghXRLxIqo/u3LlzFZOb6S05YhY5dOJLxfsGQeBi8+Z9AtEYiRghKPT5xioDjbEV650zfggLNJIPG1unwSEIJ9rDNCCfGyusIeJr1mS38fmLbGyFqufJDZIjxiebMfgt2+/LZZhdEJ5ciKEsFjDbvMUO9lloDm3ZilcR2eNTSB5YwH2Nuh59VnNRKUkJ/6Fw4YcRnt4mhxKlaRv4YxsqVrxAi0F9997dArXq1DriTc7jR0iKbSOpEXyimXhp7wvEbPWkSTPEIdO2uhGpiaklBIp5ds1DtubNm/fBL7/8Mkw8o7k5MS1FcrO9JUecFx8Oh4wwSoasNtYrql2Hv7lIExAvoV5lEq+2RPXrxpevTf3VcxcO0Wp8GcyWL96WG/jw+EkuqniJQNjPO/5lfPIkJ1Or1jGtRmMETeI1kW3eagd7/35+bZGid1CamtLxF7M8ZIwy/L2D80TT37xZ7H2e3M/hDfZJuCYygwYvEN8TiKkym7ZouktBrhUlrichqWSnSLzo8qtevfpxdBFKzdUR14NBLlKeEpSamFpu27atpXm0C4Hoe8X0E3v27GmMuFTm+xpIVfvnn38e7i0KAWoN06dPHzZr1qxv4eljfg5HM+L3Ff103moDKZpM4lWruNItNl/xh8IkZYjBrKte9yRKZYiS3ARHtlmzncbXrzOxlaueEdI4km20mGTsED/z3Zo1X+j9vGNMfbmoHpvItOuw2UiqxfD0YhHtAiTXwK1v33ETIk5if92ly+WjsmR996nqbRI54xcUye7e10S4F/A1uZ6O5KMB4XIk18IJV6AF4kUwQXjQ2Tt0r7W8efNmkUKFCt3+4osv1nz48CHRQRfOJDUxNaRNgEwjogV++eWXv8KF0fyri+Db33///f80vE+stYQ/9OjRo6c4e3Y43bNnObVlS1wTwucg5hMXIC5H7ufiKUkMR4/X0hcoeddU4kE8RGjffTeTm0m/ebOdJmGh1DS1RXXfDJsjDvuKidFwXFMJ7MlRP3DQYuyv69zxL70nOTchSnZtlUrnDTduxDk+6E+cqKHzD4wSzstRqTZGNWm2XzyWFxm5d5/ev6k0Kga2rDgKghUznnA/ibdEiRLXUMOifbylQNTYhgwZMhfXCpdczBeNPEnb1pmkJlrL48ePV8fXSnhJljBXrlyPx40bN/HBgwd5xceCV9SAAQMWpVbAKOkxs4KzY/jqFi4YrPfS6Lk2L1c6EiFlyvLWcOlyOfF27Jnzldm2nTezGbO/YYOD3xoPH6qDdP3okdO4djM/vJCt0eAYqtPiffXXrpWKKlX2RoSnpxH86OXF6n5d2p9b98ef3T4G+UfF5Mr2HPP7Gm7dKiLe17hrV1PEkubES64RtQRDUPqIiG1b48bLok069Nuhc9SeakM84YoZJ1wwvngRuqh3796/wYU13rklRoxgE88PjVogArhjoAxte2eRmmgNL168WK5UqVLx4hJZSrR94Ms8bdq0kbA2CkYtfOUhvNQKGP7QcKd0piWTCQsLjOnYaRNnvSUlL6q3+vRBH3XHj9dMsG10tK/26rWykSdO1Ga1JpdEw7kzlXX58j9iEbu5eqPj7MWr8UQvMOrI0Xrvy1e4FuHlwUZVKHfFQNq7SDeQ0jP86NH60bduFkckTPP9jGvXdmbVXgbOwkyuTeehZGOHDFrAaLXc+RF6aOz4sZM8fT1juaqyuVjFy3HP/pNwixUrceP333/vIcUSTMxXr15lxphwcf4BUc1H7DQptc2piSklYkdVqVLltPkNp5QQGUSM0Sg4Jtq/mHhqxIgR080DzllDdEU5c6SR/uGjfLqmrfZEeXqwsCprfQNjYvYfsGxOIZJpmLNnK7ObtrQ3hr5Isp2oe/AgP7NhQ0f2WgrudenSfqzSj+VC0GrUBl23Ln8yr19nxjo9KXFmz5rxQwB5B3EWZXPxihn3zFVGf/+AiL59+y2TemkLQpjjx4+fgHwozjcCM2bM+AaGWNq+ziA1MSV8+PBhHhigaDdrLVESI+r9V199tQT9tpirdcGCBV8nZgRLCcuUKXP56NGjCUo7R1H//EX2qDGjp0cXKng/xi8wJmr7zja07RzOOXOHan2CtNqSFa8bZs78nnlvCqjHoK9+8eL+IVmzfYRFmW5VTki8w/LlK17YsGFjB1eJo4zqMiJ00O5HICYvw7BE2v6OJjXRUkJUrVu33kq7SVsR8/N+9tlnJ9EuHjVq1E+p7QcG8+TJ8xCxj5xWBSKCQNRFZvfupvpnz3JSt3EwmTu3C8fs29fIEPo8hxCjGc2XrWvWfJGLtP/UCk+uH5duVY7PTJmyvP7hhxEzECTf/DxSJRx3LK09Ilol7Du04ziS1ERLiIgW3bt3X4UvLO0G7cGAgIBwVF1scU4cZ/78+YOk0JUkVe7durV1rmzZnnsoNES4nuS5kfarWKxm4vX29Ixt2qTJ7sOHj9SWQh+7pUQ7HLaVuPuygAi7hPBLtOM5itTE5MhZHYcOnQMzOu3GXIWYNX3kyJHTwsISj0ucVnmCNFeKkBoK167ljE6aT2I1Ey0+poULF761aOHCgVLtE02KCP5gjU0FNcLbt2/HdfU5mtTEpIi+ORiUPMlXlnZDrkZYstER70pVPHvz1KlTVYsWK3LTZJRCactbjSniRZgifMhdwSBF47Fjx2rAvmKeLywlphJ1pK+8mNTExIg2IgxHaIfSbsSVie4BR8w2KHVeuXK1dLkKlS8qVKSarCSlLSdaQrFlmaR5e/vGtGzZahuqyFLr/7SUMLai9KTlh5Swbdu2m50xRxI1MTHCK0YcEM7dWKxYsRtpOcDZ7dt3ClWvUec4J1wVhKsxqohQQe4ZEeGqNWpDhQqVzq9Z88cX6MajHccViGuHzcY8D1hDNBtwrKR89u1BaiKN6LKBNxTt4t2JWbNmfYE2UFozZD15/CRXw0YN90GgGGgAwrqMv74oaQkL5Ctw/6efpo2Sqj+ypYQxbfLkyWPgfUfLA9YQfcMDBw5c6MgPGjXRnJcvXy5TsmTJf2kX7Y6EIeuHH36Y4egvqbP46tWrLO3addjMlazk/jHEDxREnCtz5lffDRk6F5OEuUOtBAHbMXCF9u5TQ3wMkG8c5UVGTRQTLoW1a9c+TLtYdyYs6e3atdvkqoYYS4kPFELpCt1v6MeFgMHAgIDwL7p2/eP0qVNVXanrJynCQQf9/Obv21aEH/SECRPGO2LQBTVRIF4sBtHTLjKtELMwYEJvd2wHo4qHWSjMu/wwGgsheOFx5E6zzGOYnzCrhj2JmhuGtdrbkEdNBFH0Dx8+/GdX78u1BTHFBmIRu1M7GO8Xfdzidh8insDqvmHDhg6ubIyiEdZgfJDE79WeREAJTNVDuxZbkZoIHj58uLZ4WFRaJ76mmNAbA9Fpz8uViCodhrgJAQ/Q140uE0QfgeccbR9XJj5E/fr1W+pIb0BMu2PvKBzURBA3bKvRPO5CWBSbNGmyGwY82jNzBWKk1rx58wbjYwTRVqxY8dzixYv72+KjJMWmBT5UGClkjWUZ79ua4agYvIDCj3Y9tiQ1USCqVlOmTBntjk4ZqSFcAVG1dDXnBIjrt99+640qHXxzMT7VVs4FiFYCzywpPRM4FS1cuHCgNfkXzUUYaiFE2vrEiI8ioqXSrsfWpCaKiS8XHPhTGxTO3YiuBoTYSWzGQqkRwkVUzQYNGuxHbC+EwKVtZw1h2ESTAt53tPXO4saNG9tjAArt/SVFlLiY6wo1kpTUPFFKw47gKNsINdGcqGphFnJbjKd1J+Lr3KxZs52uUI1GhIgdO3Y0t7UPN7rS2rRpswXdLwigQNvGGYSxyJJYauZE9Rrhl+CI0rFjx79o29CI9jRC/DhykAs1kUZ8uXft2tUUYxlpF5+WiTHGCC4v5W4VfIBt2SZFlfTAgQP1ypcvjwnMjAgmiHPQtnU0L1y4UB7zM5u/p+SIUhYlJ0bNYTrRlLgCO8O/mZqYFNGugZGDdgNpmWjrwD0uLYxOQuaeM2fOULiS4t7RpELsZdq2juatW7cKV61a9ZT5+0mOiGY6c+bM7/ABxkeob9++y2jb0Yh5oJ3x3qmJyREPCFZXR5reXYF4HojGAOcGqZRCtibePYZQiudQhiNPamodtqoRQEAYoid+J5YQQwLhMil4kWHmDsziQNvWnLAh3Lt3jwvy52hSEy0h5hbq1avXCls6d7sLUd0aO3bsJGcME7MXIc61a9d2Nq+OwnCX1PxQSRFVbwzDtEU3Fdr0iBAqvjZLWLZs2Uvo1hE+ILCWW1Lq4kPdtGnTXc4SLkhNtJSIrYxMKnclJaTQ1QDDiauXwogWAScHNA3M77NTp07rrCl10Q0J6zQs9ql15Ef0DhQkKakJ4v20aNFiu7mRDb7PyVmoYY1GG9fZU6FQE1NCdCWhX0to/8iMT0QjxAcOwfpoz0/KxMcZbqGYfTGxe7MmEiciT+BjAEPf+fPnK9C2sZRofw8ePHheStx48RH67rvvZpoH4o+KivJNzsKM7iB8KKRQq6ImppSocqCdh2ksaDec1okvNdzl0FXjiNEmqSWqjhiMAV9gcdvWnBBNSkYbCRZq2AXwTCZNmjQ2Ne1dlPg//vjj1JSEZEL30fLly/vQ+mIRbIJWuxAIazS8DqUS84yaaC2vXr1aCgYD2ZBFJ9qHiEWN0S227LaxFSEuvENEUkzOrx1eZjBe0Y5DIzL8jBkzfhBmjoQvNewmtG0tIT4w8P6z1IkCHwsMukBvCe3Zo1+3cuXKZ2j7gqhKw8KeGsOcrUlNTA3xQvDyUzvLnzsTfeWY6lQqgxwgWnxQUIpZEi0FJR28j2jHohFGKThyCMZNTB0Cby/atpYQwp09e/Y3ltpacD5MFpZY0wX3j6ZNYoUO5t/aunVra2xH299ZpCamlmg7wAUvuejzaZloO9WoUeMYXPicNYshDGmIjgHRYu5kS2tMCLSP9jDtmGIiH6DNnD9//nvi/dHetdaFENeMMEWI4S0+ZmJEUw5+6Ek1V9BHbT6XNIjSun79+v9gHi7afs4mNdEWxFcK8/QiqJv5Q5H5iRj43qpVq78xkXNqra6WElU/VB8xjSVK2pQ0c/Lly3cfHky044oJK263bt1Wm9fAYPyy1o0SeQrtVUv87FGd7tmz58rkIqGgiwkCNd8f72XQoEHzpWxopCbakpjYC/1h+IqZPyCZn4iSpH379hvtJWK089CkwURZqMJaM1Ybgli2bFlf2vEFwvq7YsWKXmgTm+8P41dy+ydGXD/6mS2pzaEvGu6qyT1HlOJjxoyZbJ43UQvBPUipfUsjNdHWRNsOpnm5Pzh5QsQoiVGdTu2IJWR4jPhBXzOeP4IIpiZYPkLmJJahcS4M0EC/b2L2js6dO6+1pomAY+OjQ6vaigmDIFxULY07hna3uBRHUwYWdktqFlIgNdEeRBsHkRqsGemRFgkBoEtl+vTpI2DwsbQUgDEHboI7d+5shjBGlSpVOguDDe0cKSGqlomFfMUHAgakpAK7wUhn7fSqf//9d6uk3BUhupo1ax5NSVfc9evXi4u7NnH8n376aRTuhba9FElNtCfPnDlTGSZ7uTvJMuI5wQGmZcuW29BVcfr06SqoyaB/FdU+RDy5e/dugT179jSG0BHxEkKxpbUf1VDasEd8KPbv398A/r1JucmiugzDlfn+lhCCTMoCDkcPDChIieUe28K7CvtD+I0aNdqLUURSsyYnR2qivYkvOKpgSXWIy0xICBmjX0qVKnUVIu3SpcufcP5A5rZX1xyc9iFQ8ftDNRZdSzDoWGI8QnUZbWHxMSxhUsLNnDnzKxjcUtpnjnYwnEvwLFELhPBdqbQVk5roCKIaiJAs9oyhKzN1hEAwj7H4vcEtEBne0nHdsC6jiio+hiVMTLj4eHXt2vUPWMtTGksa26NqjA8OjoHaREqELzVSEx1FPLizZ89WgleWbI2WFmHVRfQUoSoJDylYcOGFZKkfMWpWOIb5e0+ONOGi3Y7aBtwrrekjRhMDNheMvUW/r6O65exJaqKjib42RDCwxxQUMlNOxKmGtRsfVzhj4DfatUn5OdMIy29KhWYuXJSSqHaj6g6nD9o+lhDGMnx8UuOSKTVSE51BGD9QRUtLcyJJkTBOYXwuhtnBUR+1Ikv9h8VENIuUzlu7ffv2FvhwYH9EbYQf+PHjx6vbor8VbW6UvrR1rkpqojOJsaM0zxyZ9iWqwnXr1j2Ivk+4H1avXv24te8AbWVzI1dSRAkP32F4b8EYh9FGaCentE2b1khNdDbxlYTju2zMchxhWIKHF/6mZGysOdFlhNFDKTEEYUwv+qThQQWDmCsbkRxJaqIUiBcITxf0x8mhduxLdJvA88oWfe+IZ2XJoAWBeM8YFO8OBiRHk5ooJWLuHMy4JrSFZEqXmIUB/a609yjT9qQmSo3oroBnEQKcy6WwNInB6jA40d6fTPuQmihVyqWwNIkPKlwzXc290NVJTZQykUFg4ED0vpT2O8q0D7t3777K3ebzdQVSE12ByCwYmI3B/rYwtMi0johF9fDhwzy0dyTTvqQmuhIxombYsGG/WDMbnMzUEY79GI1Dey8y7U9qoqsRnfmIQwTfV3nAv2MIV1ZMEUJ7HzIdQ64z3F0QHR3te/jw4TqbN29ud/v27cIvX77M+v79+wwxMTE+Op0Og7SV/KYyUgGNRmMYM2bMlNGjR0/Fbz5ZhoPhVuIVwDCMGkKGcF+/fp0ZIgZfvHiR7dWrV1nevn2bMTw8PH1ERES6qKgoP4hbq9VidjgN9oXISWmOGd45sZM2ddxDEn7jr/Ab++F8+EBg2d3Ro0ePVfPmzRsSEBCACB0ynAS3FK8YECAEit+enp46lmVVIAQHsYEQKpYhYPzG+sjISH8IGfvFxsZ6YT3+ghDqhw8fgvBhCA0NzXHv3r0Ct27dKoKPAbZ3Z9SvX//AypUre4WEhDzjk2Q4CWlCvDt37my+ePHiAR8/fgxQq9UMSNrGkfiLbcxLVuwjrmoLokYaiI8B0iBkbAOx87u7NUqVKvXvmjVruuEvnyTDmYB43Z1EYB6Y1R8B3Yg45W4lK4hwOBgIT3u+Mp1DaqK7EgOxMTuAPJNDyogYzxjxQ3umMp1HaqI7k7Rd1ZhMGeFQZD/p5ImZAxC1Es+N9jxlOo/UxLRARIqYP3/+IEsDqaVF4uOGGQVSGspGpmNITUxLxDSViLVkSQjTtEQEBMRzcdYkaDKTJzUxrREGLcRtatKkyW55sINpcD5Co6Z2uhWZ9iU1Ma0S4U0xwVTZsmUvpeVQtJgryZ2iLLorqYlpnU+fPg3BrOuYLY6Wud2ZCPH66NGj3LTnIlNapCbKNI0bxsTTmFIjudnp3IWYQ8rSGfZkOp/URJmfiBFLCMGDcLTuHBQeDizWTnot0zmkJspMSHSXwKiFiandbYI0TGFy9erVUrT7lildUhNlJk7ElN62bVtLOHlYM5OA1CgL13VJTZSZPIU5fDDptKt2L8nCdW1SE2VaTnhqIaJErVq1jriSiHG9165dK0G7J5muQWqizJQTYWkxnSVEIfV5lurVq3dAtiq7PqmJMq0nRJya2fXsSXhOYfoYOdqje5CaKDP1RJsYU5Y2b958hxSs05g8rEuXLn+GhoZmp12vTNcjNVGm7QjH/p07dzbDDHzO6ifG6KABAwYskn2V3YvURJm2J2bBO3ToUB3MLuDIYAAo9ceOHTtJHh3kfqQmyrQfMYLpzJkzlQcPHjwPoWXsGZYnODj47bx58wbL43Hdk24fgE6qQGRKRJzcsGFDx40bN3a4c+dOISFapS2QN2/ehzNmzBjRtm3bLUKgPRnuBVm8TgZ5/sqnT5/m/Pvvv1uvW7eu8+XLl8siKiW/2ipUqFDhwuzZs7+tUaPGcT5JhjtCKIJlOp8wKBEBd4KFOiAgIByvJyXEGGSMxb19+3Yh2vFluhflkleCQFxo0i6ugpJ4z549TTDTA3lPSU7V4uvrG92/f/8lo0aNmpYxY8a3fLIMN4YsXgkDszT8999/xTZt2tR+y5YtbTH/EtL41XHIkSNH6Lhx4yZ17959tbe3N1w0ZaQByOJ1AaDUff78eXaUwuvXr+909uzZypiOBeuqVKlyZtq0aaNq1ap1FLM9cDvISBOQxetiwJQtp06d+uyvv/763MvLK3bkyJHT8+TJ84hfLSMNQRaviwJzJ+Gvh4eHnkuQkeYgi1eGDBdFmpjdToYMd4QsXhkyXBSyeGXIcEkoFP8HaP8R+ky6jY8AAAAASUVORK5CYII=;" parent="1" vertex="1">
          <mxGeometry x="671.6" y="-422.5" width="103.8" height="102.5" as="geometry" />
        </mxCell>
        <mxCell id="3uJrxtnBRZQrfx2Aj6_I-91" value="R1" style="text;html=1;align=center;verticalAlign=middle;whiteSpace=wrap;rounded=0;fontFamily=Helvetica;fontSize=26;fontColor=default;" parent="1" vertex="1">
          <mxGeometry x="1078.5" y="-626" width="60" height="30" as="geometry" />
        </mxCell>
        <mxCell id="3uJrxtnBRZQrfx2Aj6_I-92" value="R2" style="text;html=1;align=center;verticalAlign=middle;whiteSpace=wrap;rounded=0;fontFamily=Helvetica;fontSize=26;fontColor=default;" parent="1" vertex="1">
          <mxGeometry x="-108" y="-622" width="60" height="30" as="geometry" />
        </mxCell>
        <mxCell id="3uJrxtnBRZQrfx2Aj6_I-93" value="R3" style="text;html=1;align=center;verticalAlign=middle;whiteSpace=wrap;rounded=0;fontFamily=Helvetica;fontSize=26;fontColor=default;" parent="1" vertex="1">
          <mxGeometry x="-39" y="-396.5" width="60" height="30" as="geometry" />
        </mxCell>
        <mxCell id="3uJrxtnBRZQrfx2Aj6_I-94" value="R4" style="text;html=1;align=center;verticalAlign=middle;whiteSpace=wrap;rounded=0;fontFamily=Helvetica;fontSize=26;fontColor=default;" parent="1" vertex="1">
          <mxGeometry x="-30" y="-216.5" width="60" height="30" as="geometry" />
        </mxCell>
        <mxCell id="3uJrxtnBRZQrfx2Aj6_I-111" value="&lt;font style=&quot;font-size: 15px;&quot;&gt;&lt;b&gt;&lt;i&gt;Host IlegÃ­timo 1&lt;/i&gt;&lt;/b&gt;&lt;/font&gt;" style="text;html=1;align=center;verticalAlign=middle;whiteSpace=wrap;rounded=0;fontFamily=Helvetica;fontSize=26;fontColor=default;" parent="1" vertex="1">
          <mxGeometry x="231" y="-370.5" width="154" height="30" as="geometry" />
        </mxCell>
        <mxCell id="3uJrxtnBRZQrfx2Aj6_I-112" value="&lt;font style=&quot;font-size: 15px;&quot;&gt;&lt;b&gt;&lt;i&gt;Host IlegÃ­timo 2&lt;/i&gt;&lt;/b&gt;&lt;/font&gt;" style="text;html=1;align=center;verticalAlign=middle;whiteSpace=wrap;rounded=0;fontFamily=Helvetica;fontSize=26;fontColor=default;" parent="1" vertex="1">
          <mxGeometry x="540" y="-370.5" width="154" height="30" as="geometry" />
        </mxCell>
        <mxCell id="3uJrxtnBRZQrfx2Aj6_I-113" value="&lt;font style=&quot;font-size: 15px;&quot;&gt;&lt;b&gt;&lt;i&gt;Open Vswitch 1&lt;/i&gt;&lt;/b&gt;&lt;/font&gt;" style="text;html=1;align=center;verticalAlign=middle;whiteSpace=wrap;rounded=0;fontFamily=Helvetica;fontSize=26;fontColor=default;" parent="1" vertex="1">
          <mxGeometry x="21" y="-547" width="154" height="30" as="geometry" />
        </mxCell>
        <mxCell id="3uJrxtnBRZQrfx2Aj6_I-114" value="&lt;font style=&quot;font-size: 15px;&quot;&gt;&lt;b&gt;&lt;i&gt;Open Vswitch 2&lt;/i&gt;&lt;/b&gt;&lt;/font&gt;" style="text;html=1;align=center;verticalAlign=middle;whiteSpace=wrap;rounded=0;fontFamily=Helvetica;fontSize=26;fontColor=default;" parent="1" vertex="1">
          <mxGeometry x="385" y="-547" width="154" height="30" as="geometry" />
        </mxCell>
        <mxCell id="3uJrxtnBRZQrfx2Aj6_I-115" value="&lt;font style=&quot;font-size: 15px;&quot;&gt;&lt;b&gt;&lt;i&gt;Open Vswitch 3&lt;/i&gt;&lt;/b&gt;&lt;/font&gt;" style="text;html=1;align=center;verticalAlign=middle;whiteSpace=wrap;rounded=0;fontFamily=Helvetica;fontSize=26;fontColor=default;" parent="1" vertex="1">
          <mxGeometry x="724.5" y="-547" width="154" height="30" as="geometry" />
        </mxCell>
        <mxCell id="3uJrxtnBRZQrfx2Aj6_I-116" value="&lt;font style=&quot;font-size: 15px;&quot;&gt;&lt;b&gt;&lt;i&gt;Controlador SDN&lt;/i&gt;&lt;/b&gt;&lt;/font&gt;" style="text;html=1;align=center;verticalAlign=middle;whiteSpace=wrap;rounded=0;fontFamily=Helvetica;fontSize=26;fontColor=default;" parent="1" vertex="1">
          <mxGeometry x="401.5" y="-1050" width="130" height="25" as="geometry" />
        </mxCell>
        <mxCell id="3uJrxtnBRZQrfx2Aj6_I-117" value="&lt;font size=&quot;1&quot; style=&quot;&quot;&gt;&lt;b style=&quot;&quot;&gt;&lt;i style=&quot;font-size: 18px;&quot;&gt;RED HÃBRIDA SDN&lt;br&gt;192.168.11.0/27&lt;/i&gt;&lt;/b&gt;&lt;/font&gt;" style="text;html=1;align=center;verticalAlign=middle;whiteSpace=wrap;rounded=0;fontFamily=Helvetica;fontSize=26;fontColor=default;" parent="1" vertex="1">
          <mxGeometry x="361.75" y="-390.5" width="205.5" height="60" as="geometry" />
        </mxCell>
        <mxCell id="3uJrxtnBRZQrfx2Aj6_I-118" value="Internet" style="text;html=1;align=center;verticalAlign=middle;whiteSpace=wrap;rounded=0;fontFamily=Helvetica;fontSize=26;fontColor=default;" parent="1" vertex="1">
          <mxGeometry x="1291.25" y="-540.25" width="60" height="30" as="geometry" />
        </mxCell>
        <mxCell id="zH8QP84IoBUkZcivjVWc-2" style="edgeStyle=orthogonalEdgeStyle;rounded=0;orthogonalLoop=1;jettySize=auto;html=1;endArrow=baseDash;endFill=0;" parent="1" source="3uJrxtnBRZQrfx2Aj6_I-84" edge="1">
          <mxGeometry relative="1" as="geometry">
            <mxPoint x="204" y="-500" as="targetPoint" />
            <Array as="points">
              <mxPoint x="204" y="-461" />
              <mxPoint x="204" y="-461" />
            </Array>
          </mxGeometry>
        </mxCell>
        <mxCell id="zH8QP84IoBUkZcivjVWc-3" style="edgeStyle=orthogonalEdgeStyle;rounded=0;orthogonalLoop=1;jettySize=auto;html=1;endArrow=baseDash;endFill=0;" parent="1" source="3uJrxtnBRZQrfx2Aj6_I-88" edge="1">
          <mxGeometry relative="1" as="geometry">
            <mxPoint x="724" y="-500" as="targetPoint" />
          </mxGeometry>
        </mxCell>
        <mxCell id="LZ3MUwEuHvVNPTTfiNw9-3" value="" style="html=1;verticalLabelPosition=bottom;align=center;labelBackgroundColor=#ffffff;verticalAlign=top;strokeWidth=2;strokeColor=#0080F0;shadow=0;dashed=0;shape=mxgraph.ios7.icons.window;" parent="1" vertex="1">
          <mxGeometry x="83.5" y="-320.5" width="120" height="60" as="geometry" />
        </mxCell>
        <mxCell id="LZ3MUwEuHvVNPTTfiNw9-4" value="&lt;font style=&quot;font-size: 17px;&quot;&gt;ICMP Flooding -&amp;gt; R1&lt;/font&gt;" style="text;html=1;align=center;verticalAlign=middle;whiteSpace=wrap;rounded=0;fontSize=18;" parent="1" vertex="1">
          <mxGeometry x="83.5" y="-300.5" width="120" height="30" as="geometry" />
        </mxCell>
        <mxCell id="LZ3MUwEuHvVNPTTfiNw9-5" value="" style="html=1;verticalLabelPosition=bottom;align=center;labelBackgroundColor=#ffffff;verticalAlign=top;strokeWidth=2;strokeColor=#0080F0;shadow=0;dashed=0;shape=mxgraph.ios7.icons.window;" parent="1" vertex="1">
          <mxGeometry x="83.5" y="-260.5" width="120" height="60" as="geometry" />
        </mxCell>
        <mxCell id="LZ3MUwEuHvVNPTTfiNw9-6" value="&lt;span style=&quot;font-size: 17px;&quot;&gt;ICMP Flooding -&amp;gt; R1&lt;/span&gt;" style="text;html=1;align=center;verticalAlign=middle;whiteSpace=wrap;rounded=0;fontSize=18;" parent="1" vertex="1">
          <mxGeometry x="83.5" y="-240.5" width="120" height="30" as="geometry" />
        </mxCell>
        <mxCell id="LZ3MUwEuHvVNPTTfiNw9-7" value="" style="html=1;verticalLabelPosition=bottom;align=center;labelBackgroundColor=#ffffff;verticalAlign=top;strokeWidth=2;strokeColor=#0080F0;shadow=0;dashed=0;shape=mxgraph.ios7.icons.window;" parent="1" vertex="1">
          <mxGeometry x="204.5" y="-320.5" width="120" height="60" as="geometry" />
        </mxCell>
        <mxCell id="LZ3MUwEuHvVNPTTfiNw9-8" value="&lt;span style=&quot;font-size: 17px;&quot;&gt;ICMP Flooding -&amp;gt; R1&lt;/span&gt;" style="text;html=1;align=center;verticalAlign=middle;whiteSpace=wrap;rounded=0;fontSize=18;" parent="1" vertex="1">
          <mxGeometry x="203.5" y="-300.5" width="120" height="30" as="geometry" />
        </mxCell>
        <mxCell id="LZ3MUwEuHvVNPTTfiNw9-9" value="" style="html=1;verticalLabelPosition=bottom;align=center;labelBackgroundColor=#ffffff;verticalAlign=top;strokeWidth=2;strokeColor=#0080F0;shadow=0;dashed=0;shape=mxgraph.ios7.icons.window;" parent="1" vertex="1">
          <mxGeometry x="204.5" y="-260.5" width="120" height="60" as="geometry" />
        </mxCell>
        <mxCell id="LZ3MUwEuHvVNPTTfiNw9-10" value="&lt;span style=&quot;font-size: 17px;&quot;&gt;ICMP Flooding -&amp;gt; R1&lt;/span&gt;" style="text;html=1;align=center;verticalAlign=middle;whiteSpace=wrap;rounded=0;fontSize=18;" parent="1" vertex="1">
          <mxGeometry x="204.5" y="-240.5" width="120" height="30" as="geometry" />
        </mxCell>
        <mxCell id="LZ3MUwEuHvVNPTTfiNw9-15" value="" style="html=1;verticalLabelPosition=bottom;align=center;labelBackgroundColor=#ffffff;verticalAlign=top;strokeWidth=2;strokeColor=#0080F0;shadow=0;dashed=0;shape=mxgraph.ios7.icons.window;" parent="1" vertex="1">
          <mxGeometry x="603.5" y="-325" width="120" height="60" as="geometry" />
        </mxCell>
        <mxCell id="LZ3MUwEuHvVNPTTfiNw9-16" value="&lt;span style=&quot;font-size: 17px;&quot;&gt;ICMP Flooding -&amp;gt; R2&lt;/span&gt;" style="text;html=1;align=center;verticalAlign=middle;whiteSpace=wrap;rounded=0;fontSize=18;" parent="1" vertex="1">
          <mxGeometry x="603.5" y="-305" width="120" height="30" as="geometry" />
        </mxCell>
        <mxCell id="LZ3MUwEuHvVNPTTfiNw9-17" value="" style="html=1;verticalLabelPosition=bottom;align=center;labelBackgroundColor=#ffffff;verticalAlign=top;strokeWidth=2;strokeColor=#0080F0;shadow=0;dashed=0;shape=mxgraph.ios7.icons.window;" parent="1" vertex="1">
          <mxGeometry x="603.5" y="-265" width="120" height="60" as="geometry" />
        </mxCell>
        <mxCell id="LZ3MUwEuHvVNPTTfiNw9-18" value="&lt;span style=&quot;font-size: 17px;&quot;&gt;ICMP Flooding -&amp;gt; R2&lt;/span&gt;" style="text;html=1;align=center;verticalAlign=middle;whiteSpace=wrap;rounded=0;fontSize=18;" parent="1" vertex="1">
          <mxGeometry x="603.5" y="-245" width="120" height="30" as="geometry" />
        </mxCell>
        <mxCell id="LZ3MUwEuHvVNPTTfiNw9-19" value="" style="html=1;verticalLabelPosition=bottom;align=center;labelBackgroundColor=#ffffff;verticalAlign=top;strokeWidth=2;strokeColor=#0080F0;shadow=0;dashed=0;shape=mxgraph.ios7.icons.window;" parent="1" vertex="1">
          <mxGeometry x="724.5" y="-325" width="120" height="60" as="geometry" />
        </mxCell>
        <mxCell id="LZ3MUwEuHvVNPTTfiNw9-20" value="&lt;span style=&quot;font-size: 17px;&quot;&gt;ICMP Flooding -&amp;gt; R2&lt;/span&gt;" style="text;html=1;align=center;verticalAlign=middle;whiteSpace=wrap;rounded=0;fontSize=18;" parent="1" vertex="1">
          <mxGeometry x="723.5" y="-305" width="120" height="30" as="geometry" />
        </mxCell>
        <mxCell id="LZ3MUwEuHvVNPTTfiNw9-21" value="" style="html=1;verticalLabelPosition=bottom;align=center;labelBackgroundColor=#ffffff;verticalAlign=top;strokeWidth=2;strokeColor=#0080F0;shadow=0;dashed=0;shape=mxgraph.ios7.icons.window;" parent="1" vertex="1">
          <mxGeometry x="724.5" y="-265" width="120" height="60" as="geometry" />
        </mxCell>
        <mxCell id="LZ3MUwEuHvVNPTTfiNw9-22" value="&lt;span style=&quot;font-size: 17px;&quot;&gt;ICMP Flooding -&amp;gt; R1&lt;/span&gt;" style="text;html=1;align=center;verticalAlign=middle;whiteSpace=wrap;rounded=0;fontSize=18;" parent="1" vertex="1">
          <mxGeometry x="724.5" y="-245" width="120" height="30" as="geometry" />
        </mxCell>
        <mxCell id="M51-cbpcoO0k1B-L0Ytx-3" value="" style="shape=mxgraph.cisco.routers.isci_router;sketch=0;html=1;pointerEvents=1;dashed=0;strokeWidth=2;verticalLabelPosition=bottom;verticalAlign=top;align=center;outlineConnect=0;rounded=1;fontFamily=Helvetica;fontSize=12;fillColor=#bac8d3;strokeColor=#23445d;points=[[0,0.5,0,0,0],[0,0.73,0,0,0],[0.16,0.15,0,0,0],[0.5,0.15,0,0,0],[0.5,1,0,0,0],[0.94,0.73,0,0,0],[1,0,0,0,0],[1,0.5,0,0,0]];" parent="1" vertex="1">
          <mxGeometry x="673" y="-839" width="101" height="75" as="geometry" />
        </mxCell>
        <mxCell id="M51-cbpcoO0k1B-L0Ytx-5" value="" style="endArrow=baseDash;html=1;rounded=0;dashed=1;dashPattern=8 8;entryX=0.5;entryY=1;entryDx=0;entryDy=0;entryPerimeter=0;fillColor=#0050ef;strokeColor=#001DBC;endFill=0;strokeWidth=2;" parent="1" target="M51-cbpcoO0k1B-L0Ytx-3" edge="1">
          <mxGeometry width="50" height="50" relative="1" as="geometry">
            <mxPoint x="722.07" y="-628" as="sourcePoint" />
            <mxPoint x="722" y="-780" as="targetPoint" />
          </mxGeometry>
        </mxCell>
        <mxCell id="M51-cbpcoO0k1B-L0Ytx-8" value="" style="endArrow=baseDash;html=1;rounded=0;dashed=1;dashPattern=8 8;entryX=0.5;entryY=1;entryDx=0;entryDy=0;entryPerimeter=0;fillColor=#0050ef;strokeColor=#001DBC;endFill=0;strokeWidth=2;" parent="1" target="M51-cbpcoO0k1B-L0Ytx-3" edge="1">
          <mxGeometry width="50" height="50" relative="1" as="geometry">
            <mxPoint x="515" y="-584" as="sourcePoint" />
            <mxPoint x="720" y="-790" as="targetPoint" />
          </mxGeometry>
        </mxCell>
        <mxCell id="M51-cbpcoO0k1B-L0Ytx-16" value="&lt;p style=&quot;line-height: 50%;&quot;&gt;&lt;font style=&quot;font-size: 15px;&quot;&gt;&lt;b&gt;&lt;i&gt;Open&lt;br&gt;Vswitch 4&lt;/i&gt;&lt;/b&gt;&lt;/font&gt;&lt;/p&gt;" style="text;html=1;align=center;verticalAlign=middle;whiteSpace=wrap;rounded=0;fontFamily=Helvetica;fontSize=26;fontColor=default;" parent="1" vertex="1">
          <mxGeometry x="555.87" y="-809.5" width="154" height="30" as="geometry" />
        </mxCell>
        <mxCell id="M51-cbpcoO0k1B-L0Ytx-17" value="&lt;font style=&quot;font-size: 12px;&quot;&gt;&lt;b style=&quot;font-size: 12px;&quot;&gt;&lt;i style=&quot;font-size: 12px;&quot;&gt;enp0s3&amp;nbsp;&lt;br style=&quot;font-size: 12px;&quot;&gt;&lt;/i&gt;&lt;/b&gt;&lt;/font&gt;" style="text;html=1;align=center;verticalAlign=middle;whiteSpace=wrap;rounded=0;fontFamily=Helvetica;fontSize=12;fontColor=default;" parent="1" vertex="1">
          <mxGeometry x="403" y="-920" width="67" height="20" as="geometry" />
        </mxCell>
        <mxCell id="M51-cbpcoO0k1B-L0Ytx-18" value="&lt;font size=&quot;1&quot; style=&quot;&quot;&gt;&lt;b style=&quot;&quot;&gt;&lt;i style=&quot;font-size: 12px;&quot;&gt;enp0s8&lt;/i&gt;&lt;/b&gt;&lt;/font&gt;" style="text;html=1;align=center;verticalAlign=middle;whiteSpace=wrap;rounded=0;fontFamily=Helvetica;fontSize=18;fontColor=default;" parent="1" vertex="1">
          <mxGeometry x="497" y="-940" width="64" height="30" as="geometry" />
        </mxCell>
        <mxCell id="M51-cbpcoO0k1B-L0Ytx-23" value="&lt;font size=&quot;1&quot; style=&quot;&quot;&gt;&lt;b style=&quot;&quot;&gt;&lt;i style=&quot;font-size: 18px;&quot;&gt;DMZ&lt;br&gt;192.168.11.32/28&lt;/i&gt;&lt;/b&gt;&lt;/font&gt;" style="text;html=1;align=center;verticalAlign=middle;whiteSpace=wrap;rounded=0;fontFamily=Helvetica;fontSize=26;fontColor=default;" parent="1" vertex="1">
          <mxGeometry x="1030" y="-895.5" width="205.5" height="60" as="geometry" />
        </mxCell>
        <mxCell id="M51-cbpcoO0k1B-L0Ytx-24" value="&lt;font size=&quot;1&quot; style=&quot;&quot;&gt;&lt;b style=&quot;&quot;&gt;&lt;i style=&quot;font-size: 18px;&quot;&gt;LAN A&lt;br&gt;192.168.11.48/28&lt;/i&gt;&lt;/b&gt;&lt;/font&gt;" style="text;html=1;align=center;verticalAlign=middle;whiteSpace=wrap;rounded=0;fontFamily=Helvetica;fontSize=26;fontColor=default;" parent="1" vertex="1">
          <mxGeometry x="-370" y="-658" width="205.5" height="60" as="geometry" />
        </mxCell>
        <mxCell id="M51-cbpcoO0k1B-L0Ytx-25" value="&lt;font size=&quot;1&quot; style=&quot;&quot;&gt;&lt;b style=&quot;&quot;&gt;&lt;i style=&quot;font-size: 18px;&quot;&gt;LAN B&lt;br&gt;192.168.11.64/28&lt;/i&gt;&lt;/b&gt;&lt;/font&gt;" style="text;html=1;align=center;verticalAlign=middle;whiteSpace=wrap;rounded=0;fontFamily=Helvetica;fontSize=26;fontColor=default;" parent="1" vertex="1">
          <mxGeometry x="-370" y="-482.5" width="205.5" height="60" as="geometry" />
        </mxCell>
        <mxCell id="M51-cbpcoO0k1B-L0Ytx-26" value="&lt;font size=&quot;1&quot; style=&quot;&quot;&gt;&lt;b style=&quot;&quot;&gt;&lt;i style=&quot;font-size: 18px;&quot;&gt;LAN C&lt;br&gt;192.168.11.80/28&lt;/i&gt;&lt;/b&gt;&lt;/font&gt;" style="text;html=1;align=center;verticalAlign=middle;whiteSpace=wrap;rounded=0;fontFamily=Helvetica;fontSize=26;fontColor=default;" parent="1" vertex="1">
          <mxGeometry x="-370" y="-295" width="205.5" height="60" as="geometry" />
        </mxCell>
        <mxCell id="ZVZ7YWTeKr3WiFVKRpSO-6" value="" style="endArrow=classic;html=1;rounded=0;dashed=1;dashPattern=8 8;" parent="1" edge="1">
          <mxGeometry width="50" height="50" relative="1" as="geometry">
            <mxPoint x="411" y="-787" as="sourcePoint" />
            <mxPoint x="214.5" y="-635.5" as="targetPoint" />
          </mxGeometry>
        </mxCell>
        <mxCell id="ZVZ7YWTeKr3WiFVKRpSO-7" value="&lt;b&gt;&lt;i&gt;OFPT_&lt;br&gt;FLOW_MOD&lt;/i&gt;&lt;/b&gt;" style="edgeLabel;html=1;align=center;verticalAlign=middle;resizable=0;points=[];" parent="ZVZ7YWTeKr3WiFVKRpSO-6" vertex="1" connectable="0">
          <mxGeometry x="-0.1937" y="2" relative="1" as="geometry">
            <mxPoint as="offset" />
          </mxGeometry>
        </mxCell>
        <mxCell id="ZVZ7YWTeKr3WiFVKRpSO-8" value="" style="endArrow=classic;html=1;rounded=0;dashed=1;dashPattern=8 8;" parent="1" edge="1">
          <mxGeometry width="50" height="50" relative="1" as="geometry">
            <mxPoint x="511" y="-788" as="sourcePoint" />
            <mxPoint x="707.5" y="-636.5" as="targetPoint" />
          </mxGeometry>
        </mxCell>
        <mxCell id="ZVZ7YWTeKr3WiFVKRpSO-9" value="&lt;b&gt;&lt;i&gt;OFPT_&lt;br&gt;FLOW_MOD&lt;/i&gt;&lt;/b&gt;" style="edgeLabel;html=1;align=center;verticalAlign=middle;resizable=0;points=[];" parent="ZVZ7YWTeKr3WiFVKRpSO-8" vertex="1" connectable="0">
          <mxGeometry x="-0.1937" y="2" relative="1" as="geometry">
            <mxPoint as="offset" />
          </mxGeometry>
        </mxCell>
        <mxCell id="ZVZ7YWTeKr3WiFVKRpSO-10" value="" style="endArrow=classic;html=1;rounded=0;dashed=1;dashPattern=8 8;" parent="1" edge="1">
          <mxGeometry width="50" height="50" relative="1" as="geometry">
            <mxPoint x="458" y="-780" as="sourcePoint" />
            <mxPoint x="458" y="-628" as="targetPoint" />
          </mxGeometry>
        </mxCell>
        <mxCell id="ZVZ7YWTeKr3WiFVKRpSO-11" value="&lt;b&gt;&lt;i&gt;OFPT_&lt;br&gt;FLOW_MOD&lt;/i&gt;&lt;/b&gt;" style="edgeLabel;html=1;align=center;verticalAlign=middle;resizable=0;points=[];" parent="ZVZ7YWTeKr3WiFVKRpSO-10" vertex="1" connectable="0">
          <mxGeometry x="-0.1937" y="2" relative="1" as="geometry">
            <mxPoint as="offset" />
          </mxGeometry>
        </mxCell>
        <mxCell id="ZVZ7YWTeKr3WiFVKRpSO-15" value="" style="endArrow=classic;html=1;rounded=0;dashed=1;dashPattern=8 8;fillColor=#f8cecc;strokeColor=#b85450;strokeWidth=2;" parent="1" edge="1">
          <mxGeometry width="50" height="50" relative="1" as="geometry">
            <mxPoint x="194" y="-423.5" as="sourcePoint" />
            <mxPoint x="194" y="-500" as="targetPoint" />
          </mxGeometry>
        </mxCell>
        <mxCell id="ZVZ7YWTeKr3WiFVKRpSO-16" value="&lt;p style=&quot;line-height: 60%;&quot;&gt;&lt;font style=&quot;font-size: 15px;&quot;&gt;&lt;b style=&quot;font-size: 14px;&quot;&gt;&lt;i&gt;ICMP echo (request)&lt;br&gt;Flooding&lt;/i&gt;&lt;/b&gt;&lt;/font&gt;&lt;/p&gt;" style="text;html=1;align=center;verticalAlign=middle;whiteSpace=wrap;rounded=0;fontFamily=Helvetica;fontSize=26;fontColor=default;" parent="1" vertex="1">
          <mxGeometry x="21.5" y="-480" width="158.5" height="50" as="geometry" />
        </mxCell>
        <mxCell id="ZVZ7YWTeKr3WiFVKRpSO-17" value="" style="endArrow=classic;html=1;rounded=0;dashed=1;dashPattern=8 8;fillColor=#f8cecc;strokeColor=#b85450;strokeWidth=2;" parent="1" edge="1">
          <mxGeometry width="50" height="50" relative="1" as="geometry">
            <mxPoint x="733" y="-422.5" as="sourcePoint" />
            <mxPoint x="733" y="-500" as="targetPoint" />
          </mxGeometry>
        </mxCell>
        <mxCell id="ZVZ7YWTeKr3WiFVKRpSO-18" value="&lt;p style=&quot;line-height: 50%;&quot;&gt;&lt;b style=&quot;font-size: 14px;&quot;&gt;&lt;i&gt;ICMP echo (request)&lt;br&gt;Flooding&lt;/i&gt;&lt;/b&gt;&lt;/p&gt;" style="text;html=1;align=center;verticalAlign=middle;whiteSpace=wrap;rounded=0;fontFamily=Helvetica;fontSize=26;fontColor=default;" parent="1" vertex="1">
          <mxGeometry x="740" y="-480" width="158.5" height="30" as="geometry" />
        </mxCell>
        <mxCell id="3x31MsnCpi4qH06DEA2G-7" value="" style="endArrow=classic;html=1;rounded=0;dashed=1;" parent="1" edge="1">
          <mxGeometry width="50" height="50" relative="1" as="geometry">
            <mxPoint x="464.26" y="-913" as="sourcePoint" />
            <mxPoint x="464.26" y="-833" as="targetPoint" />
          </mxGeometry>
        </mxCell>
        <mxCell id="3x31MsnCpi4qH06DEA2G-8" value="&lt;b&gt;&lt;i&gt;OFPT_&lt;br&gt;FLOW_MOD&lt;/i&gt;&lt;/b&gt;" style="edgeLabel;html=1;align=center;verticalAlign=middle;resizable=0;points=[];" parent="3x31MsnCpi4qH06DEA2G-7" vertex="1" connectable="0">
          <mxGeometry x="-0.1937" y="2" relative="1" as="geometry">
            <mxPoint as="offset" />
          </mxGeometry>
        </mxCell>
        <mxCell id="3x31MsnCpi4qH06DEA2G-118" style="edgeStyle=orthogonalEdgeStyle;rounded=0;orthogonalLoop=1;jettySize=auto;html=1;entryX=0.5;entryY=0;entryDx=0;entryDy=0;" parent="1" source="3x31MsnCpi4qH06DEA2G-103" target="3x31MsnCpi4qH06DEA2G-109" edge="1">
          <mxGeometry relative="1" as="geometry" />
        </mxCell>
        <mxCell id="3x31MsnCpi4qH06DEA2G-103" value="" style="rounded=0;whiteSpace=wrap;html=1;" parent="1" vertex="1">
          <mxGeometry x="-32" y="-925" width="211.5" height="95" as="geometry" />
        </mxCell>
        <mxCell id="3x31MsnCpi4qH06DEA2G-104" value="&lt;b style=&quot;&quot;&gt;&lt;font style=&quot;font-size: 15px;&quot;&gt;Conmutadores SDN&lt;/font&gt;&lt;/b&gt;" style="text;html=1;align=center;verticalAlign=middle;whiteSpace=wrap;rounded=0;fontFamily=Helvetica;fontSize=26;fontColor=default;" parent="1" vertex="1">
          <mxGeometry x="-32" y="-919" width="211.5" height="20" as="geometry" />
        </mxCell>
        <mxCell id="3x31MsnCpi4qH06DEA2G-105" value="&lt;font style=&quot;font-size: 24px;&quot;&gt;9&lt;/font&gt;" style="ellipse;whiteSpace=wrap;html=1;aspect=fixed;fontStyle=1;fillColor=#f5f5f5;strokeColor=#666666;fontColor=#333333;" parent="1" vertex="1">
          <mxGeometry x="-58.5" y="-949.9999999999999" width="41.5" height="41.5" as="geometry" />
        </mxCell>
        <mxCell id="3x31MsnCpi4qH06DEA2G-106" value="&lt;span style=&quot;font-weight: normal;&quot;&gt;&lt;font size=&quot;1&quot; style=&quot;&quot;&gt;&lt;i style=&quot;font-size: 14px;&quot;&gt;Regla de flujo aÃ±adida y operativa para mitigar el ataque&lt;/i&gt;&lt;/font&gt;&lt;/span&gt;" style="text;whiteSpace=wrap;html=1;align=center;fontStyle=1;fontSize=10;" parent="1" vertex="1">
          <mxGeometry x="-27" y="-895.5" width="196.5" height="58.5" as="geometry" />
        </mxCell>
        <mxCell id="3x31MsnCpi4qH06DEA2G-107" value="" style="shape=image;verticalLabelPosition=bottom;labelBackgroundColor=default;verticalAlign=top;aspect=fixed;imageAspect=0;image=https://cdn-icons-png.flaticon.com/512/2943/2943210.png;" parent="1" vertex="1">
          <mxGeometry x="394" y="-985" width="65" height="65" as="geometry" />
        </mxCell>
        <mxCell id="3x31MsnCpi4qH06DEA2G-109" value="" style="rounded=0;whiteSpace=wrap;html=1;" parent="1" vertex="1">
          <mxGeometry x="-32" y="-795" width="211.5" height="125" as="geometry" />
        </mxCell>
        <mxCell id="3x31MsnCpi4qH06DEA2G-110" value="&lt;b style=&quot;&quot;&gt;&lt;font style=&quot;font-size: 11px;&quot;&gt;Match de las reglas de flujo aÃ±adidas&lt;/font&gt;&lt;/b&gt;" style="text;html=1;align=center;verticalAlign=middle;whiteSpace=wrap;rounded=0;fontFamily=Helvetica;fontSize=26;fontColor=default;" parent="1" vertex="1">
          <mxGeometry x="-27" y="-789" width="202" height="20" as="geometry" />
        </mxCell>
        <mxCell id="3x31MsnCpi4qH06DEA2G-111" value="&lt;font style=&quot;font-size: 24px;&quot;&gt;10&lt;/font&gt;" style="ellipse;whiteSpace=wrap;html=1;aspect=fixed;fontStyle=1;fillColor=#f5f5f5;strokeColor=#666666;fontColor=#333333;" parent="1" vertex="1">
          <mxGeometry x="-58.5" y="-819.9999999999999" width="41.5" height="41.5" as="geometry" />
        </mxCell>
        <mxCell id="3x31MsnCpi4qH06DEA2G-112" value="&lt;span style=&quot;font-weight: 400; font-size: 13px;&quot;&gt;&lt;i style=&quot;&quot;&gt;&lt;font style=&quot;font-size: 13px;&quot;&gt;Paquete entrante en el switch&lt;br&gt;&lt;br&gt;MAC_Origen = MAC_Atacante&lt;/font&gt;&lt;/i&gt;&lt;/span&gt;&lt;div style=&quot;font-size: 13px;&quot;&gt;&lt;span style=&quot;font-weight: 400;&quot;&gt;&lt;i style=&quot;&quot;&gt;&lt;font style=&quot;font-size: 13px;&quot;&gt;Entonces&lt;br&gt;Trafico MAC_Origen =DROP&lt;/font&gt;&lt;/i&gt;&lt;/span&gt;&lt;/div&gt;" style="text;whiteSpace=wrap;html=1;align=center;fontStyle=1;fontSize=10;" parent="1" vertex="1">
          <mxGeometry x="-30" y="-768.5" width="210" height="58.5" as="geometry" />
        </mxCell>
        <mxCell id="3x31MsnCpi4qH06DEA2G-128" value="" style="rounded=0;whiteSpace=wrap;html=1;" parent="1" vertex="1">
          <mxGeometry x="795.5" y="-735" width="211.5" height="125" as="geometry" />
        </mxCell>
        <mxCell id="3x31MsnCpi4qH06DEA2G-129" value="&lt;b style=&quot;&quot;&gt;&lt;font style=&quot;font-size: 11px;&quot;&gt;Match de las reglas de flujo aÃ±adidas&lt;/font&gt;&lt;/b&gt;" style="text;html=1;align=center;verticalAlign=middle;whiteSpace=wrap;rounded=0;fontFamily=Helvetica;fontSize=26;fontColor=default;" parent="1" vertex="1">
          <mxGeometry x="800.5" y="-729" width="202" height="20" as="geometry" />
        </mxCell>
        <mxCell id="3x31MsnCpi4qH06DEA2G-130" value="&lt;font style=&quot;font-size: 24px;&quot;&gt;10&lt;/font&gt;" style="ellipse;whiteSpace=wrap;html=1;aspect=fixed;fontStyle=1;fillColor=#f5f5f5;strokeColor=#666666;fontColor=#333333;" parent="1" vertex="1">
          <mxGeometry x="769" y="-759.9999999999999" width="41.5" height="41.5" as="geometry" />
        </mxCell>
        <mxCell id="3x31MsnCpi4qH06DEA2G-131" value="&lt;i style=&quot;font-size: 13px; font-weight: 400;&quot;&gt;Paquete entrante en el switch&lt;/i&gt;&lt;span style=&quot;font-weight: 400; font-size: 13px;&quot;&gt;&lt;i style=&quot;&quot;&gt;&lt;font style=&quot;font-size: 13px;&quot;&gt;&lt;br&gt;&lt;br&gt;MAC_Origen = MAC_Atacante&lt;/font&gt;&lt;/i&gt;&lt;/span&gt;&lt;div style=&quot;font-size: 13px;&quot;&gt;&lt;span style=&quot;font-weight: 400;&quot;&gt;&lt;i style=&quot;&quot;&gt;&lt;font style=&quot;font-size: 13px;&quot;&gt;Entonces&lt;br&gt;Trafico MAC_Origen =DROP&lt;/font&gt;&lt;/i&gt;&lt;/span&gt;&lt;/div&gt;" style="text;whiteSpace=wrap;html=1;align=center;fontStyle=1;fontSize=10;" parent="1" vertex="1">
          <mxGeometry x="797.5" y="-708.5" width="207" height="58.5" as="geometry" />
        </mxCell>
        <mxCell id="3x31MsnCpi4qH06DEA2G-132" value="" style="endArrow=none;html=1;rounded=0;entryX=1;entryY=0.5;entryDx=0;entryDy=0;endFill=0;startArrow=classic;startFill=1;" parent="1" target="3x31MsnCpi4qH06DEA2G-109" edge="1">
          <mxGeometry width="50" height="50" relative="1" as="geometry">
            <mxPoint x="203.1" y="-613" as="sourcePoint" />
            <mxPoint x="203" y="-740" as="targetPoint" />
            <Array as="points">
              <mxPoint x="203" y="-732" />
            </Array>
          </mxGeometry>
        </mxCell>
        <mxCell id="3x31MsnCpi4qH06DEA2G-135" value="" style="endArrow=none;html=1;rounded=0;entryX=0;entryY=0.5;entryDx=0;entryDy=0;endFill=0;startArrow=classic;startFill=1;" parent="1" edge="1" target="3x31MsnCpi4qH06DEA2G-128">
          <mxGeometry width="50" height="50" relative="1" as="geometry">
            <mxPoint x="730.0000000000006" y="-613" as="sourcePoint" />
            <mxPoint x="753.1000000000006" y="-732" as="targetPoint" />
            <Array as="points">
              <mxPoint x="730" y="-672" />
            </Array>
          </mxGeometry>
        </mxCell>
        <mxCell id="3x31MsnCpi4qH06DEA2G-136" value="" style="verticalLabelPosition=bottom;verticalAlign=top;html=1;shape=mxgraph.basic.x;fillColor=#e51400;fontColor=#ffffff;strokeColor=#B20000;" parent="1" vertex="1">
          <mxGeometry x="182.87" y="-540.25" width="41.25" height="34.25" as="geometry" />
        </mxCell>
        <mxCell id="3x31MsnCpi4qH06DEA2G-138" value="" style="verticalLabelPosition=bottom;verticalAlign=top;html=1;shape=mxgraph.basic.x;fillColor=#e51400;fontColor=#ffffff;strokeColor=#B20000;" parent="1" vertex="1">
          <mxGeometry x="702.87" y="-540.25" width="41.25" height="34.25" as="geometry" />
        </mxCell>
        <mxCell id="3x31MsnCpi4qH06DEA2G-150" value="" style="rounded=0;whiteSpace=wrap;html=1;" parent="1" vertex="1">
          <mxGeometry x="342.25" y="-492" width="242.75" height="91" as="geometry" />
        </mxCell>
        <mxCell id="3x31MsnCpi4qH06DEA2G-151" value="&lt;b style=&quot;&quot;&gt;&lt;font style=&quot;font-size: 13px;&quot;&gt;Ataque DoS ICMP Flooding Mitigado&lt;/font&gt;&lt;/b&gt;" style="text;html=1;align=center;verticalAlign=middle;whiteSpace=wrap;rounded=0;fontFamily=Helvetica;fontSize=26;fontColor=default;" parent="1" vertex="1">
          <mxGeometry x="348.12" y="-487" width="233.88" height="20" as="geometry" />
        </mxCell>
        <mxCell id="3x31MsnCpi4qH06DEA2G-152" value="&lt;font style=&quot;font-size: 24px;&quot;&gt;11&lt;/font&gt;" style="ellipse;whiteSpace=wrap;html=1;aspect=fixed;fontStyle=1;fillColor=#f5f5f5;strokeColor=#666666;fontColor=#333333;" parent="1" vertex="1">
          <mxGeometry x="315.75" y="-516.9999999999999" width="41.5" height="41.5" as="geometry" />
        </mxCell>
        <mxCell id="3x31MsnCpi4qH06DEA2G-155" value="&lt;span style=&quot;font-size: 14px; font-weight: 400;&quot;&gt;&lt;i&gt;Todo trÃ¡fico generado por los atacantes es rechazado por la SDN&lt;/i&gt;&lt;/span&gt;" style="text;whiteSpace=wrap;html=1;align=center;fontStyle=1;fontSize=10;" parent="1" vertex="1">
          <mxGeometry x="348.62" y="-458" width="230" height="41" as="geometry" />
        </mxCell>
        <mxCell id="3x31MsnCpi4qH06DEA2G-158" value="" style="endArrow=classic;html=1;rounded=0;entryX=0.999;entryY=0.558;entryDx=0;entryDy=0;entryPerimeter=0;" parent="1" target="3x31MsnCpi4qH06DEA2G-150" edge="1">
          <mxGeometry width="50" height="50" relative="1" as="geometry">
            <mxPoint x="694" y="-520" as="sourcePoint" />
            <mxPoint x="588" y="-454" as="targetPoint" />
            <Array as="points">
              <mxPoint x="694" y="-441" />
            </Array>
          </mxGeometry>
        </mxCell>
        <mxCell id="3x31MsnCpi4qH06DEA2G-159" value="" style="endArrow=classic;html=1;rounded=0;entryX=-0.001;entryY=0.548;entryDx=0;entryDy=0;entryPerimeter=0;" parent="1" target="3x31MsnCpi4qH06DEA2G-150" edge="1">
          <mxGeometry width="50" height="50" relative="1" as="geometry">
            <mxPoint x="234" y="-520" as="sourcePoint" />
            <mxPoint x="340" y="-448" as="targetPoint" />
            <Array as="points">
              <mxPoint x="234" y="-441" />
            </Array>
          </mxGeometry>
        </mxCell>
        <mxCell id="3x31MsnCpi4qH06DEA2G-160" value="" style="endArrow=classic;html=1;rounded=0;dashed=1;dashPattern=8 8;fillColor=#d5e8d4;strokeColor=#82b366;strokeWidth=3;" parent="1" edge="1">
          <mxGeometry width="50" height="50" relative="1" as="geometry">
            <mxPoint x="-33" y="-573" as="sourcePoint" />
            <mxPoint x="147" y="-573" as="targetPoint" />
          </mxGeometry>
        </mxCell>
        <mxCell id="3x31MsnCpi4qH06DEA2G-161" value="" style="endArrow=classic;html=1;rounded=0;dashed=1;dashPattern=8 8;fillColor=#d5e8d4;strokeColor=#66CC00;strokeWidth=3;" parent="1" edge="1">
          <mxGeometry width="50" height="50" relative="1" as="geometry">
            <mxPoint x="265" y="-575" as="sourcePoint" />
            <mxPoint x="408" y="-574.88" as="targetPoint" />
          </mxGeometry>
        </mxCell>
        <mxCell id="3x31MsnCpi4qH06DEA2G-162" value="" style="endArrow=classic;html=1;rounded=0;dashed=1;dashPattern=8 8;fillColor=#d5e8d4;strokeColor=#66CC00;strokeWidth=3;" parent="1" edge="1">
          <mxGeometry width="50" height="50" relative="1" as="geometry">
            <mxPoint x="783.5" y="-578" as="sourcePoint" />
            <mxPoint x="1080" y="-580" as="targetPoint" />
          </mxGeometry>
        </mxCell>
        <mxCell id="3x31MsnCpi4qH06DEA2G-165" value="" style="endArrow=classic;html=1;rounded=0;dashed=1;dashPattern=8 8;fillColor=#d5e8d4;strokeColor=#66CC00;strokeWidth=3;" parent="1" edge="1">
          <mxGeometry width="50" height="50" relative="1" as="geometry">
            <mxPoint x="525" y="-576.75" as="sourcePoint" />
            <mxPoint x="668" y="-576.63" as="targetPoint" />
          </mxGeometry>
        </mxCell>
        <mxCell id="3x31MsnCpi4qH06DEA2G-166" value="&lt;p style=&quot;line-height: 50%;&quot;&gt;&lt;span style=&quot;font-size: 14px;&quot;&gt;&lt;i&gt;TrÃ¡fico Normal&lt;/i&gt;&lt;/span&gt;&lt;/p&gt;" style="text;html=1;align=center;verticalAlign=middle;whiteSpace=wrap;rounded=0;fontFamily=Helvetica;fontSize=26;fontColor=default;" parent="1" vertex="1">
          <mxGeometry x="-27" y="-605.5" width="158.5" height="30" as="geometry" />
        </mxCell>
        <mxCell id="3x31MsnCpi4qH06DEA2G-167" value="&lt;p style=&quot;line-height: 50%;&quot;&gt;&lt;span style=&quot;font-size: 14px;&quot;&gt;&lt;i&gt;TrÃ¡fico Normal&lt;/i&gt;&lt;/span&gt;&lt;/p&gt;" style="text;html=1;align=center;verticalAlign=middle;whiteSpace=wrap;rounded=0;fontFamily=Helvetica;fontSize=26;fontColor=default;" parent="1" vertex="1">
          <mxGeometry x="260" y="-609.5" width="158.5" height="30" as="geometry" />
        </mxCell>
        <mxCell id="3x31MsnCpi4qH06DEA2G-168" value="&lt;p style=&quot;line-height: 50%;&quot;&gt;&lt;span style=&quot;font-size: 14px;&quot;&gt;&lt;i&gt;TrÃ¡fico Normal&lt;/i&gt;&lt;/span&gt;&lt;/p&gt;" style="text;html=1;align=center;verticalAlign=middle;whiteSpace=wrap;rounded=0;fontFamily=Helvetica;fontSize=26;fontColor=default;" parent="1" vertex="1">
          <mxGeometry x="513.1" y="-612.5" width="158.5" height="30" as="geometry" />
        </mxCell>
        <mxCell id="3x31MsnCpi4qH06DEA2G-169" value="&lt;p style=&quot;line-height: 50%;&quot;&gt;&lt;span style=&quot;font-size: 14px;&quot;&gt;&lt;i&gt;TrÃ¡fico Normal&lt;/i&gt;&lt;/span&gt;&lt;/p&gt;" style="text;html=1;align=center;verticalAlign=middle;whiteSpace=wrap;rounded=0;fontFamily=Helvetica;fontSize=26;fontColor=default;" parent="1" vertex="1">
          <mxGeometry x="844.5" y="-612.5" width="158.5" height="30" as="geometry" />
        </mxCell>
        <mxCell id="GU6kTZ-pf8uX3ZpBFAUo-1" style="edgeStyle=orthogonalEdgeStyle;rounded=0;orthogonalLoop=1;jettySize=auto;html=1;exitX=0.5;exitY=0.15;exitDx=0;exitDy=0;exitPerimeter=0;" edge="1" parent="1" target="GU6kTZ-pf8uX3ZpBFAUo-2" source="M51-cbpcoO0k1B-L0Ytx-3">
          <mxGeometry relative="1" as="geometry">
            <mxPoint x="724" y="-843" as="sourcePoint" />
          </mxGeometry>
        </mxCell>
        <mxCell id="GU6kTZ-pf8uX3ZpBFAUo-2" value="" style="verticalLabelPosition=bottom;aspect=fixed;html=1;verticalAlign=top;strokeColor=none;align=center;outlineConnect=0;shape=mxgraph.citrix.tower_server;rounded=1;" vertex="1" parent="1">
          <mxGeometry x="685.5" y="-1009.38" width="76" height="99.38" as="geometry" />
        </mxCell>
        <mxCell id="GU6kTZ-pf8uX3ZpBFAUo-3" value="" style="shape=image;verticalLabelPosition=bottom;labelBackgroundColor=default;verticalAlign=top;aspect=fixed;imageAspect=0;image=data:image/png,iVBORw0KGgoAAAANSUhEUgAAAGAAAABgCAYAAADimHc4AAAAIGNIUk0AAHomAACAhAAA+gAAAIDoAAB1MAAA6mAAADqYAAAXcJy6UTwAAAAGYktHRAD/AP8A/6C9p5MAAAAHdElNRQfoBRERMzTevdQHAAAynElEQVR42u18d3hUVf7+e+69c6dPMum9EpIQIIB0CFWa9CZIV+zuuuquu+7qrqvrul9Wd10LIkpTASkqHWmhk5CEEhLSG+k9M8nUO3PvPb8/JkRQRFSUdX++z8MD4Zmce+Z9zzmfei7wC37BL/gFv+AX/II7AnKnHjx/2HAAAMcyYBgCSoGPT5y403z85GB+6geuf+LXAABRlvDy/AVMbFCQ2t/gRcJ8fe80F//boKfSAABT+vcHAMwdMsQQFxy8IDE09NlJ/fp5JYWHY/PTz9zpaf5v4oHRY0EpRd+ISFBKMSwhIS7E6POGSqFo0KlUNb0iIkfd6TneKXC3Y5CBcd1BKYWCZWG228AyLKIC/OGl0ULBsZApRXxYGMYm9VYnhoff3WAyPe1wuYazDKNwuFxyi6VjzkPjxmdyHGt/96mnQCZM6Br7X8vuR7+YbkjNyUZGSTE0ShW8NBrUm9rgZzBgUr9+2JWZic/S0+80l3dOAACggApAfOePtk77TgHIAKhRq/XddS5jptlmW6hRKqOWjR6DAC8vrDlyhDHbrHdnlhQnF1ZXp7/76XYsHjkK+dXVKG1owG83rAcAvDRvPg9C1AC0ABQA7IQQh1GrdXyWni6peAXiQ0IxJD4ekizjg8OH7zS3t4Tb4gX5GwwghAlzie5/Od3uXgwhDp7jKMswMgFkClCn2+3tcLmiowMClL+ZPAXzhqeAZRi8sn0bVh866PbWalcsHDHqlYvlZUJqbg6emjxVcanyin+j2ZzYbrf1drrd8U63O5BS6sVznEpwuzuUCoVZxfPlepX6op9efz4+NKR6w7Fj7nuHpyAjLw9X9nwBMnzQneb4xxcgLjgEKoUiorKl+aMOu32kUqGAUauFKMtwiSJkmYJlCHpGRuK3U6djXJ9k8Kxn85U3NeKJ91cjq7T0YmxQ0JJxvfuU7D1/Ltlss423Oh3jRUlKUPG8waBW81qViigVCgCAQ3DB4rDDZLOJLrfbrlYqS7w0ml2BXt6fbX3uTwWPv/0mPZSbc6f5/WkE6B/bDQaNxj+7omJ1m9UyMy4kBM9OnwGDWo12ux1uSYJGqUTf6BjEh4SAIQT06gQIwb7z5/CHjz50ttvtawiI3el2TdGrNd3jQ0O53pGR6BEejkj/APjp9VArlQAobE4B9aY2XK6qwpnCQmSUFMNss7l0KlVmoLf3mzMGDNyzMytTKKqtBRVlEI7BqZf/hpS//BmjkpJgE1wI8/VFWUMDciqv3DEBbosN0KlUiPb3t+VWXqkDAJYQ3BUTi74xMRAlCZRSkE7SZVkGBUBkGVRwA0oeY3r2wtyhw1RrUo8sD/P1VYxM6smN7tkLSeHh8DcYoOR5MIQAFKCd0hEAfaKicHfvZCxIGYGT+XlYc+Qwn15cPLympSViV1amccagQR9lFxQI0To1pg0YCKcoITY4GP9YtJi8d+wYv+Gvrwhz//T7OyrAbdkB948di3VHjpAwP79n602mv4UYjfyax5/A2N7JECXpa5+nAEqvVAIOAXHRkWDUKlS2NCOrtBRJ4eGICQiEkudBAMiUglL6tTEIx4FVq8AoFCAAJEFAYUUF/rVjB7alnQEBqsL9/J4u2LZ9x8IXnqdKhsXerEwMjo835FdXTSJgEiL9/VfWWy0teRdyQYy6OyLAbdkBI3okgRBCowMDK1hCOhwul1+r1QrcgDgAEJxObDp1ErFGH3SPCIdMKcJ9/RDp5w8KgFIKWZa/8XmMWg2X0YCchgYUVVZCp9Ggf2IiEgf2x4ve3tCp1dhwNDWiwWz+9cClS/KKamuLZgweovTR65NzrlxZbBeE2VanU0UIKSypr9sKb+0dIf+2CSBTij5R0ZBkuZplWbPT5fJr7bBAvtHKBdDQ3ILS+nqM7dYdBMSzwgm54ee//EUCEAJWoUALz+LDvXux9+gx1DU2wiEImD1pIv729FOIvKsvnlOrIYgiNp88MaTBbJ7ZKzJqV1pBwdxgo/HeMb17J4BSdtXBA2ixdMydPGBA6vRBg1senTAR7x088JMLwN6OQXZnZiIxLBwapZJpMrdPFNzuiH4xMRiakAiGuT7dREQJqRcuoKyxAfcNGAytVg3wCg/BNyGf8fYCFxaMRlnCik2bcTG/AA/cOxcTRo7Apfw8ZOflY+KokQgKCYHexwc9/PxRVlnJFdbUxKqV/OQZgwbOenLy5OAZgwYzSeERyL5SgaLaWi9Jks6nFRaWTuk/AMfzLv/kAty2ZFykvz+iAwJaOY6tFCUZzR0dcIvi9TxSoMPcjqN5eegRHAIfrfbmq75rlgzYAD+0guKNrVtRUVeLF596EgumT8PMiRMwe9JEUFDY7HYAgMwrEJOUiMcmT4GfwRBNKe07Y+Bg5V2x3aBgGPjp9ZjafwCUCj643W6/++Hx49WnCvIwKinp5yvAoilT8PTChQ61QlFNQaWWjg443e7rrDwjSbhQWoaChjoMiokFyzCdK//mvgBhGdhdLqzbtg35JSV47rFHMaB3b8iyDAXHoU9iD/gZfcCyLAghnl2n1WJQcjJGJSWhqqUF58pKPR4ZAIZhkJLYA7FBQYxdEFLOlZZFphcW4U/3zv/5CUApRf7Tf8DYoDD0Wv6ALFPaBEBssXTA5nSCdB4tBEB7ewc+O58JX50OScEhHoeSZb7VFyOUwi0ICA8JxYu/eRKD+vTpcm1FUYRKrYJOo4EoSWhobkHJlSsQGQKtjxED4rqDAOiw25FRUoyNJ46jqd2MqIAA3HPXXZBkOdFktQ6xVRSTFZ9t/8kFuC1GWGQZoFs8t3RYSp99OZfGAuDbLFZ0OOzXfEhCemEhTpcU49ERo2HUaEE5FkxnZHszyKIEPcdh/pTJnnii89hyuVzYdfgItu7di8q6Whw5fRrH088iJiIC0eHhYJRKRPgHQMXzKKqrRVpREc4UFuBEfj4m9e0LvUoFrVKla3fYJ4+7Z9qu/Orqtp+VAOY3VqLhtf+g14RJqp3r1ywpaah/rMNh78kQQkw2K8w2m+c4kCTUNzZh3akT8NPpMDYhEayCg6xRAdwt+AGUglpsgK8E2vl5hhBcKijE3qNHEejvh35JSegWGQV/Xx/EhEegvLoakUo1jHodlBxHU3NyC3UqVRpDiHFXZkbCibzLvhqlkhFlyabkOJ3T5fK3C8LPRwDXyg+gUKvhFRjE797x6fx1aSf/WmsyBS8ZPBSiJGHv5Rycys9HQmAwLOZ2rDp8EOeuVOCFydMQHRwCqlODKG798bLVCtLeAcbX6NEEwLncXIQFB8OoNyA5IRHzpk2FLEnYsmcPLubl46kpU6HhlVDzvK3FYl01d+jQ97MrypUmqzWQV/CBLMOwPMe1eWu07TqVsnFYQgL2X7jw3y/AC+MmQKQUikFDuN3vvDl1XdqpPxU1NgY/c/cELBo0BFVtrciuqcY7X+xHdkkp2m025NZW476BQzBt0CCwXlpQ5juaH7cIubEJhFeA6D1RK0MIWk0mRIeFYeSggeAVChRVVaG0sgq+BgMYlxsEFIQwokzltjf27BaSo6KE3MrKDpnSkqtDe2k16B4cgqzS0p+UfOB7xAGUUvRjFDA8uBSj1JpR69NO/T23rjbp6bHjsXDgYGh4JTQ8D6fbjQuVV5BbWw2XKGLhoCF4ctJk+Af6f3fyu0RwgzoFjwi8ElqtBuaODkwcNRLdoqJACEFlbS2yLl3CsPgE9Pb1R01TEz7PSG/nGGZXu91ewMgUg+LjsXDiBAjV1aix2/HH519AXdtPfvoA+B65oMwR41Esi0gYM7rHqtTDK0+VFo16JGU0lg9LAc9xHu8EgNUlIL++Hq1WC0K9jegeEQ6N0RuU+eHpJ8LzID7eYIzecDEMFEolGJYBKIXgcMLc0ACDzQHe5UZeVRWeXPOBq6S+7hjLspt99Pq0EYlJte8e2O/oHxOLbiEhGJaYiOb2dry8bet/rwD0w0+AJfNR8o/XoeH5wHcOH3z1s4vnl87o05f93bhJMKhU1wVVBOhyQcGxgF57awb3lmdOPEJo1ICSB2FZUFkGBAGw2SELLgCAWxSRfeUK9mRl4kR+XseVpqY8WZbPalSqTD+94XJccHD1w+PHd4x76a9UlmUY1Gr4GgzQq1Tw0mrBsyziw8JgUGswc/QYDJw1CwgJ8szh3yuBJx9F64mTWPfRBtS2tqKotg7tdjtaLRY0WzrgdHnm4aXRwt9gQFRAAH49aQq2pZ3GmtTD30EAStG84g34907WrNn88VMrj6c+F+Hjq399zjyEG31uGtEStQpEp755uuH74OozO/NEoLTz/0jX0iLwBF52QUBxXR2O5FzC0dxcWlBT09bhsNcyDFOsUihytSplnpdGW65XqevBsVZftdo1d8gQccF//tOVFVQpOOg5BcByMDsdUCkU0HMcbIIL7S6ha1rPz57DHc+7rGAYRhPg5aV3ulxim8Vq8dXrnXvPnxN6hIVjSv/+EGXpegHeXP4QWIbF/vOZqGtrQ63JBLcowkujQWxgEFJzc5D5pxfnv3Zw/2s5tTVhb89bgBFx8d+SRAOIVgOiUd1e8r8jCCFgCIFbktDc3o7sigocy7uM82VlqGxucrdZrU5Jkto4lq1VKhRVCpatUioU9TKldTqVqsMmCG0+er1bq1aLtc3Njrq2NrdGqWRigoNVKoVC2WgycTzL+jjcbj9ZliOdbnesSxSjGYbxlWXZzRDSqFIoCnQq9ekgozH9ZH5e02tLlnoEiPL1Rf/YWJQ1NePvi5Yw7+zf61vb1hpR19ZmcIkiZ9Bo3P4Gg3lqr2Sb2+V+bWNG+vQFAwbhuYn3gGc50Jt/cxCdBkStvKMCfFUMAgKX6EaD2YTC2lpkV1xBXnUlSusbUNPaArPNBlGWRUKIk2MYp0yphec4kWNYl8Ptsgput4NlGE7DK3UMQ9SC280B0EuyrJVlWS1Ryny1jsEyDOU5rlWvVh8K9fF9e8XixZkEAGaPHo29x45haHKy/5WGhllmm22qQ3B1k2RJzSsUjEqhkADYCNAmy7R7oF4fsHbJA+gXEQnpJnn7LgH0GhDVf48A14JhGM/OEEVYHA40tbejqqUFZQ31KK2vR3lTI+pNJrRZrbA6nRBcLoiSDJl6KnsMIWAIA8ZTsINLFOH6ShLyq2AZBt5abWq34OBnyfK7x+FyVRU4QoJLGupfNNtsC1yiqA/18cWwxEQMjusOX4MeJqsVxXV1SC8ugtPhxP/NmINxPZJuWK36mgD/ZTvghtNE587otFOyLMMlSXC4BFgdTrTb7TDbbWi32dBus8MmCHBLHtFqWltxpakJ9WYznJIIjVoNb50OWrUahCGwOJyobmhATWMjXG43AIBjWTHYaFzHAcBdsbH83qzM+0022xJRktSDu3fH01OnYVRST3hptZ4iOqUQRBHlDQ347Gw6Tl8pR7+ISPhqtfjWhPIdawG+dVytxF1bxVOwLHi1Bl4aLcJ8fT11CUIgyTKqmptxqiAfOZWVaLHbERUdhXtiohEfGYlQf39463RQqdUgGg2csoTyyiqs27YdWw58AafggihJnM3pvIfLrqgAAYJMNtsktyiqE0PD8OK8+RjTs5dnJVAKqXNSPMt2dij4o6q5GUqlGpSSbyw9XrO07jS/P0gYXM28ShLKGxuw79w5HLyUDZllkdKvH+4fMhgJkZHw1uvBMoxHTFkGFAoQLwOIgkNoeDiM3l7IKytF1uU8AIDD5QrlOjOWapco6gFgZM+eGNI9vov8r05GkmWolUokhIVBlmRQhxPU4fS0X32TAj9jAUine1vZ3IydmRn4POMs3IRgSspwzBo1CnEREVAqFJ46NqWQOmsOHgJlEFkGkWQQQhEXG4uh/frhQn4BJFmGJMuEi/DzAwFpMlmteW5RTLbY7XC4XNAold+4sintbA5hiMe9JATU7gRuZJBZBoT9ybvgbwsYQtDucOBwdjY+PH4U5S3NmDBkCBZNmoTkuDjwHOchXZa77IfL7QYhBBzLevgQRaAzQ6DgeURHRIDjOEguF5QKhZPd/9wLeObDdc7ta9fV2QVXt6qWlhBJlthI/wDo1WpwLAvmGuN0gyUCwrEAQwBR+ppoRMX/13pA34Sr37Worg6v79yBdw8egJfRG3+8/34snzYNsaGhHrtICFiOhQigorEBe0+fxr7TpxHi7w9/oxFUlj0nMM977AfDIKewEAdPnoQoSdCp1KXc9rNpqBm3B1mlJRlD4xMeqWxuvm/NkSOTskpL41J69DD2jY4hkf7+8NZqoVUpoeQUINdEml0iqJQghEC2C8DVXiCO/dmRzxACuyDgQHY23ty7BzVmE+6dMA6PzJyJmNBQTw+SLIPhOFCOQ3F9PXakHkVqehpsVhsmDBoEP2/vLu+QUhmk698UNocDMqVgCJHVPJ/O/WXrJ2AJg+p+d1GL01E8a+iQV/MqKz/Prap8+UTe5eleWi1iA4OQEh+PKX36ok94JFjSeaSwjCenz7Gec16l9ExMFAEKz864nfmfHxmEEDS2t2Nd6hGsS02Ft7cX/vbYo5iekgJDZwMBZVkwKhXaXQL2Hj2Ktdu3w2Jux4PTp2FYcjJiQkOh4vkv3XPCdNlAUZJQ19gEURLBc1ybVqVM5QBAop4k1MDERPQbcJd0+OLFeLPN1kemlER4GXFPfCKGd+uOaI0BxOEE7Uq0EEDBgeg0XxLNsR7if0a4GgMU19fh37t3Y2dmBgb2TMJzy5ZhaK9eYBgGMqUgSiUYjRqldfV4+6OPsG3vPrSZzXj+gfvx4PTpUHAcJFm+LjYiDOOpCjIM2i0WlFZVQpJk6FXqPC+NJpMDgPq167Hqiy/w8qfbkFVYNLjOZHpexXFRi4aNwIPDUhDj5w+OZb/eJkgpqNsNiOLPjvRryQcBMktK8PfPtiO9uBizxozBs4sWoXtkBCiVQQkBo9VA5nkcO38BK957D8fSz0IURQzo0QMzR40CyzBfa8NklTxcHIumpib4+fqitqEBZZWVYAgRtCrV4SVjx17hACAoNAzvHzmEu3v3Dsi+cuUxlpDej48cg8dHjoFRo+my9DcEy4KwP1/yZUpxKj8fL275BMUNDXhwxgw8dd98BPn6etojOQ6MVgsXQ7Dj4EGsWLUauUVFoJQiwMcHT8ydg8SoqOtT8Z3BWn5lJY6fvwCeZbFw9izklZSgrrEJKoWixM9gOPjS2rVuDgBSnv4N0l9dwYx96cXJNqdzyuw+dzGPpIzqIv/Gs+88fjQq4DvUdv9bQAiBLMs4knMJf/lkMyrb2vDkvHvx+Jw58PXygizLIAoFGL0OdknCxs924B/vrkJVXV3X708eNhT3DBsGlmU9n+/8/yaTCZ8dO4aMwkIM7dsX40eMAMNxOHsxG+0dHaK/wWvfiB49cpnevcEVvbMKk195GUvfeSu0xdKxNNrXz/uhlJHw1+u/edV3ejdEyXv6en5mIPDkeg5cvIg/b96E+o52PLt4ER6dORMGnc5DJs+D0etgcbnwwSdb8Pr7H6CxpaVrjO4R4Vhyzz3wNRi64gBZlnEuPx9vb92GtNxc/PnXv8KSObPBq1TILy5G2rnzULBscbDRuOXtffsEAOB89XqUVFST2Kiw8aIk9ZvUsxd6hYbdeOUTAqJUgKh/nqu+i3xKcSQnB3/+ZDMaLB14ZsECPDprFvQazXXkW10urN64Cf9asxZNra1dY6h4HgsmTMCAHj08xpkQOAUBe8+cwWsff4xLxSWYM2ECpo8fB06hgCSKOJWZhZKKCsFHp9s+sFfPfEplnPz7q2CWr3wLU4cP9m21WqYE6vT68Yk9obnWjbqWfBXv8Xh+xuSDEJwuKMCLWz5BVVsrnpgzB4/NngWDVuupZ3ceOw5Jwrpt2/H6B2uuIx8ARvTri0WTJkHF8yAEsNrtWLt7D557ZyUuFBYhMiQEy++dC7/Oy+dNra3YefAQJLc729/La/vafftdfWNjoV9wH7gjly4h3M8/WXC5+vWJi//m1c+xnvP++3Y0fBWUAm4JVJY8kSfLdrYp/nh5I0IIskpL8detW1BYV4vH58zBr+6dCy+9/kuDq9dBoBQff/45Vry3Gs1f6ZboFh6Op+bPR0SQpy5stljxzvbteGfbdrSYzVDyPBZOnYJhA/p3ZVgPnzqF87m5FqNOt/G1JfcXrjr4BdosFgAAU7LyPbbDYR/AMWzQsNg4eKnV33gj5baRD4A6BcgWK6jFDrnDBrnD5sknidIPH/wbyC+qq8Mrn27DhYpyzBt3N56aPx9Gg8FDPsuC0WkhsSx2HjyEf773Phqam68bw0unw6MzZ2JE374ghMBkseCdbdvx5idb0GI2AwCG9emDhTOmQ63VghCCmvp6fLJ7L9yC61Skf8Cuv279RDpTWIidGRkeAe5/5y2jw+VKNqhUfL+ISM9drBtTdvvYkGVQpwuQ5K5COpEkULsTssUGOF03T3F/RzCEoNFsxr9270JqTg7GDOiPZxcvRrC/X9flEE93hRInMzLx95UrUVFTc90YCo7D/HHjsHDSRKhVKljtdnywcxfe3rYNps7VHOznh8cXLkC32FhQSiFKEnYfPoILublNfnr92pP5eTXrHnsMjWZT17hcbVurn1sUo7v7ByDS1/cbaaZuCcTtyezhh/b20Ov1lGQZLkmEWsGDuEXIkh1E5D3G/gd6WaQzt7MuNRXb086gV1wc/rhsGeIjIjwrnxAQtRqsRoPsgkK8/NbbyCsuuW4MhhCMGzQIzyxcAH+jEYIg4OMvvsCbW7agtb0dgMcwL50xHRPGjAZhGBBCcLmwCJt27ZJkt/uzvgkJh4bGJ9DRPXtePzYoAmRKAyJ9fGFQqb+5xCiKkC02T5Os++Y1z28Fy4CoeaCzHltrNuE/qYfxRV4uBEkCkSmoQwC1/vBnUUpxIPsi1qYegdHLgN8vWdzlvQCeTCWr06KqoQGvrX4faefPf22M/j164LmlSxAbGgpJknDg7Fn8e9NmNHbaB0IIxg8bigfvmw+tztM2abFasX77dpSUlecEeRvXb09Ls4b5+eHVzz+7XgCWZQIA6AP0BvDfFtFKMqjgAnUINynA3BqISgmi14AqOHhrtJBlipf37sL7p47D7LCDAUAFt0d0p/C9jiSGEBTU1OA/e/bAZLfhkZmzMHnoMM/FEKAryrU4HHj3w4+w8/Dhr6UT4sLD8cdlSzG4Z08QQpBdXIx/fvQxKjoDMgDo1a0bnnngAUR3RsSUUhw4cQK7Dx1u1/L8uicmTb44fcDAGy5uziG4FJRSVnP1Lu6trCpJ6kyx/oCjiBBPIMdxMCo4PD56LNqddvz7yEHUmEx4cszdCPM2QhYlUKsdkGRPYf8WHQGGELSZzXh3315cqCjH3LFj8cDUKVCrlF1HD6PVwE2Azbt2Y822bXA4ndeNEeznhz8uW4qJgweDZRhUNTTg9Y2bkJmXd91nfv/QcgwdONBziZAQ5BYXY+WHH1Nrh2Vf39iY7SsP7BMvV1XdeJ4qXiERQqhLFG/ZzJLb6S6yDKhGBd8APzx593gMiIzGurRT+Nu+3bjS2uJxUWUKaneCWh235CURSuG22rHj9Bl8npGBpJgYPDF3DoL8/LquvxK1ClAqcSz9LN5cvwFt5vbrxvD18sJT8+djztix4DgOFrsd7+/ciX1nznQdXwatFo/Nm4fpEyeCVXAgAFpMJqz6eBMuFxYWBPsY3zmSk9OYW1mJfy5eesO5cpJMmwB01JrNPoLohpZXXicEQwikzm3FMIwn7axS/WBD7GmO6qw7d9YSIsPC8MSYu1HYUI/NWRmQZBnPT5qKaD8/z9Z2dhZ7NGoQnvv6IqDUYzMENy6XlWHtiWOQGILH58zGXQkJX949VijAarUoqKjA6x+sQWFZ2XXDaFVqLJ82DQ9MmwqNSgVRFLHzxAms3bUb9s5dwrEsZo0diwcXzIdWrwelFG5RxJbde7Dz4EGzjufffWzCxKwPjhz55moiAIZjmRqOYaov1VajoqX1yztdnX8X1Ndhc9ZZFLebwOi1YPRaz5f/geS3dHTgUHY2Kpubu1LCUPIY3C0OU3snQ6YU285n4R8H9qHa1NZ1PFK3CGq1gdo7d4NMPX/cIqjVAWqxw2w2Y82pE8itq8Ws0aMxa9QosFftG8OA1WrQZrPhzfUbcOLs2evmpuA43DdhPJ6cdy+MBgNAKc5ezsO/N21Gk+lL93F43754+sHlCAoO9rx+gVIcTUvDyo8+EkXBtTUhPHzL6sOHxFfuW3hTLph+0dH1aqUyq6qtVd6YmQ6T3Q6OYWATBOzMvoB/HTuMOpcTOqOX5wz+gXl/AsAuCFj5xX6sO5oKobOIDXjeA6FRKjE4Oha+Wi3ckoRPL5zDG6mH0GK1frmSJBnU5oTcYQXt9Mw8xtoJKkk4lJ+HHdnnER8VhQenT4e3wdBlAIlKBZFlsX3vPmzft/86o8sQggmDB+N3ixYisDONUNXYiLe2bsXla3ZJ94gI/OHhh5CUmOApL3bWelesWo2GhqYzUYEB7xzKzm5d/dAj+ODIoZvywa0/dsyWFB6+2+pwTNmYkdYdoBgRF49TJcWotXZgbkoKxiX3gVap/HqKQpI95UdR9nSfcKwnT/Qtl67b7XbYBQHLx96NuODgL8eVKQil8NHqoFbwAACH24WNGekI1Bvwq9FjoeGVX3oTogQqXksgg/LWJqw7cxIOScKiSRPRN777l+R3Hj0Zly7h3Y0bYWq//twfkJSEPy5bim7h4aCUwuF0Yt3u3fgiLa1rjoG+vvjt8gcwZkQKSGfDQmVtHV57731cyM0tDzX6/HPv83/Ju1BaCiWnwK6szJsKwD4yfjy6h4TUV7e2utpstkFZVyo0h/Ivw9vbC7+bOROjk3pC0dlW0QVKQV1uwGr3uKQuN+Byg7rETiFuLoJSocCguO5IDAu77nykbjeI4MbF6krszrkIu8slaZTKNofLxeY31HHBXt5ICg65obdGCIFLFLHuzClsOZeJ4X364PdLFsPXy8szd4YBq9ej2dKBv698F6ln0q77/YSoKLzy6CMY0bdv51ek2Hf6DF7dsKEr0vXW6/H0sqV4cMF9UKvVADxG9+8rV+Lz/V+0GrXaf0wbNGj7uiNHpDpTGx5everbDgRwnJcP3ty+xTU8IfGS2WZrsTqdfiOSeuKl+fchPjT0a+16AEBdnvMWX30TiiyDOgSPAPw3Xz9VsCyMOt31oooSiEOAUxBwsboKZrsdGl5ZERMY9HpLR/uIpvb2eW8fO8LG+PljaGy3r7e/ALhUU41t57OgVKmwZPI9CA8M/NLrUfKQORa7j6Ri/7Fj1z07LCAAzy1dgrEDBnT19xRVVmLl9u2o76wBaNVqPDTvXjy8cGFXsGXu6MBbGz7EJ7t22zU8vyY5NnbjvrQ0d2FT000N77VgVm7fgkHd43sX1dU+b3E4uo3skYQ/z70XCWFhXwscCCGebjin8+vkX4UkQ3YIN27SulbEq2N37ibZagcRJZQ0N+FIQR4kSp0+et2me8eM3RATFPSKl1Z7PL++Dm8fO4KGdvN1u4AAsLtc2HY+C0WNDRjdrx/uHjjwSxJYFoxajbLqaqzbtu26oyfQxwe/W7QQs8eMgYLzOBc2hwMf7d+PtNxcAIBGrcYDc+fgmYcegq+fLwgh6LBasWrjJqzetFnkgE8Tw8Lf3n32bHthUxPQbr0l8gGAGZqQGFvR2PCXVotlUregIO7ZGTPQMzLya6+LYQhBbVsbsgoK4HI4bx6CudygNucNG7WuUcDjudgcoB02MG4RHU4HPjp7BpdqqqHm+ZYwX78Tf9mwTkgrLCwI8vb+l1KhqDyUfxkbM9IhiGLXHAghuFBdid2XLsJoMOC+CePhf01vDuF5uABs2bMXFy5/GUQFGI347cKFWDZlCtTX1EBOXryILYcOw+V2w6DT4tEF8/GnJ55AUIA/CKVo77Dg7Q8/wlvrN0huQdgXGxT88tHcnFp64iTefeQREG/9rQtQ19b6mMlqncQyDJk7bBiGJSR6Gkuv+XIAkF1Rgb98shmncy9DQZibB22Ugjo7vRSr3eO/u9ygbtFDulMAtTq6UtAMpWh3OLAh/Qw2Z5692o0dWNHU+GBKYmL4sIQEdA8JPa1XqXc7RVHalHkWGVfKu44Lu8uFHRfPo8ZkwtDevTG0d+8vbRAhYNUqFJSVYWcnqQAQ5OuLZxcvwoPTp0GrVndVtlrMZmzYsxdVDQ3w8fbGk8uW4dlHH0VggD8opWgxm/Hm+vV4a/0GWXK5jncPCfnb2eKisgUpKXhyxQo88f77t0w+AHBmm22hW5I0Bo0G/WJioeJ5iJLU1Y5ocTpwKDsbb+3bi3OlpXgkZSQkSsF39sp8swj40ktxukCJp5uOAh5vB547shKA0qYmrE07hY0ZaWA5Ds/Nmg23LCnWHUmdUt3aevRKU9NaFc9bYgIDd3Y47FOLmxqjNmWko2dIKPx1ehQ1NuBoUSG0GhUmDRmCIB+frkVEOA5uAAdOnOwKuKKCg/G7RQuxeNIkaK6rf1CkZmXhSFYWggP88dQDD+Ch++bD22DwvOeopQVvrF2HNVu2QnK7T8UGBb2QUVx8fvmYsTDZbXh7/77vRD4AcHZBCAIAwe1GYU0N7u6dDAXLwuJ0oqi2BvvOn7fuzMgoL2tsCHBLUtCB/MsYGhuHCT16Qafku7j2LHx63c9f3RWEoqun0uF2o8bUhlOlxdh+/pwjo6IcdpegHpnUE3OHDUNhTS0+ZI5pXKIYQCklC1JSqFuSzzW3d5x2uFyRB/JyyaSevTEjuS8yr5SjsrUFiTExSOnbBwzDdDUUMDyP6qZmHD51Ck5BQN/4eDy3dAmmDB8OpULRtYgYQtDY1oYthw7Bx2jEc48/hoXTp0GjVgOUoqy6Bv+3ahW27tkrM5SeCvP1+/35srLMRSNGwi4I2JGZ8Z3JBwBOq1KViDZbN8HtJuuOpqLNaoWPTofq1laxsLYmv7a1dbNGqdof7ucXb7Ja59S1tw9/cc/OoPTyMnZITCyCvbygV6qg5nmoOAV4joOCZcF25sQ93MtwiRKsgoAWqwXlLc3IrauVc+tqmoqbGi/a3e5UvUbtI1H5gctVlUHPfvghaltbYXE4ikJ9fdIJIXTVQw/jsQ/e7+gWHHyg3W6b3mSx6Lefz8KAyCgUNNRDkEQM7tUTkZ2RaRdYFrlFRSgsLcPdAwfghQeWY3CvnmC/soMJIcjKL0Cr1Ya/Pv0bzL3nHqiUnsRddn4+/vHuKuw7ekzS8vzxSH//F86XlWWOS04GBZCa8/1fj8mFGH2eVLDsYpsg9K1pbTW8d/CAU6tSVXEMe1zBcftSEhNzM0tLXaX19bmje/Y6UW8yJZvttmFbz2cO2Hc5J0bD8z48y6rUCp5XKRREyXFQ8zyj5DiOAMzVe1M2QUCrzQazwy5TQvLckrTHTeVT/nr95dKDR+pmLlusyS0vL2mzWJaeyLscxHNcaYCX15pI/8D0nhGRcIkiVDwPf4Mhvam9vcQliv3OlJXgeHER6sxmKDgFBiYlQd1JWiercFMZ2QUF6Nu9O1559FH0juvWlTq4lnyHKKK4oR5L587BvZMnQ8XzcLndOJqejldXvouzFy6KOqVyT0xQ0N8yi4svLhw5EoQQHLl06XuTDwDc5arKA/f065fWYDYHKBW8j10Q7AqObYoKCDR9lp7mjgsOQlFtDZaPG4eMoqLmwtqaI8tGjz5R0tCgM9ls/g63O6DFbjMaNGr/9jY7a7JYiVGn8+I5LrzVYpnocLniPLfnCQxaDTiGISzD2Hz1+iMV1dXHu4WE0IeeeAyXLl+2Pjpz9scHLpw74BAEnVGnM/3f4gVtT7y/jlqdDvxm/Tr0CA+Hv5dXrbap6aTV6ezbarWRzy6eR6vVAm+dDt3Cwr/2BR0OJ0RBwG/mz0Ny9zjIN3CfCc/D4nQgNq4bhg8YAJVKhTaTCdv27cO/P1iLK9XVdh+9flt0YOArZ4uKypaNGQubU8DhH0g+AHDjkpNRVFvb0WA2d7g7J2fofPnRstFjurZpiLcPcisrsXjkKORWVrqrWltMrRariWWYYrcoYnBcd2OdqS2CZzjvWlMb/A2GS5H+/mxVc3OYTRDUd8XG4glPKwc5U1Aw+HDOpZd6RUY9VVZff2HFgiX44NBBDI5PkErqahtsggAvjQaPr16DM4WFXZPtHhKCnRkZQlxw8DGTzbbI6XL5ZVSUgRACo9Eb3nrd19xe0e1GUlQUBiQmdr2z9JqlD6JUAlotlByLgb2T4evtjcLSUqzauAmbd+6CxWptCfDyfj8hLPSd1Jyc+nnDh8Nss2JXZua3cXtL+F455Scm3YOpdw3A42veQ++IKH1Bbc3Epvb2e1mGSfQzGHS+Oh04hqVWwclXt7QEtFosXI+wcLy6cBHGJifD4rDjL598Iu89l/X6tP4D/1rW2OA4dCn7W597ZsUKzHvtNYT6+EQW1daubbfZxl4lNC48HDtf+yfiIyOvO9udAFra2hBqNF4fnTIMiFoNolF39bbaHA6cOJuB/6xbhzPnzoGhpCTI6P16QkTElv1ZWR20vhG/Wn4/Vu7ff1vIB77nWxMfnTABD65aiYSQMGNuVeUz9SbTi6G+vgMeGjc+4MnJU7wXjRzlPXPwYO97+t2lH9I9ngk0eqO8sRH7zp+HTCn6RsfA6nSSE/l5tuaOjkNmm83S3NHxrc+NDw2FLFM8PGGi9XhuTqDD5UqRKeUAgFcoMGX4MIQHBV13vnMA9Gr1l+QT4rk8p9OCqNWe+wyUoqSiAu9+vBH/WPkuLhcWubRK5dHIgIDnZw8duuN8UZGjsaMd0YKA5zdtum3kX53fd8b6o6nY/PQzzJNr10xtsVh+5avX+7w0bz6m9B8AnuPgEkVUNDaizWJBcnQ0RvfqhfnDUrD60EGsOvAFbE4nQow+YBhGYXU62FutxP3hww8RYjSisqlR8vfyOtxuty9wOxzJAGC2WnGhqBiDe/XykHy1a7uz8EM97w3yNJjxPEjnq9Iamppx4MQJbPj0U2ReygFkucnfy2tjZEDA6vT8wpJpgwbS7KrKTu1uf9PY9xKgvLERf/hwA9/a0THQJYo+PSMiMKpnL3AsC0EUseNsOt7evw8NZjMi/PwxpX9/zB+eglcXLsJ7Bw9g86lT0KtUcItiQ7ewMKvV6cQzU6fh12s++NZn15lMGD9wIJQKRV5LR8fnDpcrUZQk3ikI2HXiBCYOG4r4hHjICkVn8OchjQG62kVEWUZzaytOZGRgy+49OJWZhTZzu2jQqM8H+PiuTAwP33UmM6OjceduxAYG/SjEX8X3OoLCff0QExRMWjo6+toFIUWvUjMT+vaFv8EASZJQ0dSE8kbPFf/iulqczM9DYW0tekZEYFK/u+Bwu/DFxQuUMMzp0T2SDpY2NLjWH03FSy+9dEvP510u5JaXS+EBAVUWhyNJcLtjKUAaWlthEQTExXeH0ccHnEIB5irpkgxzRwfyS8uw4+BB/OuDD7B60yfIKSiAJEn1AV6GD6MDg17M2bk39Z/r1wrl9fXQ9UrCpIULfjTyge9phOcNG46tZ05jQLe4HhVNja/bBGH8gpQR7FNTpqBbUDAYQtBisSCvqhLnyspwsiAfJ/Py0DMiAi/Nvw+9I6Pw162fYNuZMzWB3t4vzx+esuFQ9kX3byZPw31vvP6tz6eUYnTvZBzLuYQe4eEpdW1tKywOx2CZUqJSKjGgd2/cPXw4osJDoeA4WKxWVNc3oLCsDHnFxaioroFTEMBznFWnVp/01evX9o2JObw3K8vSOyoa6YUFWDxqNDaeOP6jkv+9Bbh32HAYdVq89967ZOC4Cb2vNDX9zul2T+8bHaOfPnAgRvRIQrifH/SdeZYjOTn49Zr3Ud3SguGJiXhr+UMgBHhs9XvIqawsiQ0KeiC3svL0d5lDSo8kqDgFpg8YSFYd+mJog9n8p3a7fawoSUoAUCg4aNRqsISBy+2GUxCulh8lpULRrlUqL3pptdtDfXwOnC4oqJzUpw++yM7+0Qm/LQIAwOwhQ+Cj0+GDw4cxsU9f/4Lamukmm202Q0ivIG9v/+jAQD7czw8cw+JyVRXOlZVCcLslQgjz60mTyYvz5uHjE8fx5082yzzHvb1oxKg/iJIkvLV/7y3PYWh8AvQqNQ5kX8DIpKTIK01Ni80223RBFCMlWdYRgKeUioQQO8eyZp7jqjVK5TlvrfZEkLcx84W585pmrXhVnjl0OC4X5COrpvpHPe9vqwAAMGPAQBAAFc1NePHeeeTNffuCa9pae9uczmTB7Y6yu1x6AqIEqKBXqds5jjW12+2TogMC+m397bMAgGVvv4XC2pqTwxN7LARQ88WF899pDmN79QbLsiipqsTEoUMV54uKurVaLImiLIcrOc7LLUk2SZbrdCpVdZC38cqwxPjGv23b7vbR6ZAQFoaHx0+AXRDw+Or3flLir+IH9Zfs7Cw4Pzp+AgpqaighpK6xubmuo7n10PI5s9QZJSUKBctyoiSJQ+MSXKt/87Qr+sGlVfUm04rsinLvyf0HoHtICIrqalWUUsX3WXypuTmglGJwWBgEt9sNoKCsoaEAAGh9PYugIJkQQpPCIwAAgltEn+hoZFdUIK2wEGnXRNp3Ard1vy0fMQrT5s/D559uR1VTE8qbmqBgWIiyhLigYJhsNjAM6V5YW7vp1/dM7v/sjJn47Yb1+Cw9bcfIpKQHWIYxf/6VPp3visXDUvCnJUvw6YnjcLoEKDkOIT6+KG2ow/99vuOOkn1HUbzyXYzq2QvDE3sY9Wr17scnTqLlq1bTyXf1dwV6e/955cMPM68tXfrDH/Qzw092xbHO1AbOU2pkCaDQqVS4dOUKrjQ11nqpNamvbN8mf+vbt37BD4OXRoOeEREDogICCv5z/3K6dPQYIczX99URPXqouoeE3Onp3RH8ZDtgTK9eWDRypNLicN7TMyIyurypQcwoLtrho9OtOZmf75zY7647zcUdwY963/QPs2cjKjAQe86exeyhQ9l/fPbZZJYhSyil8tni4m0ypa/mVFaWPz5h0re/ffF/FD/aSx4q1qzFxYoyGLQ6UlJb63swO3tGm8XylCTLFgD/UfH8GxcrKiqXjhyNqpZmbDl96k5zcUfwo+4Ai9UG4iNrtSrVXaAIM6jV7/no9emJYWHlhbW10oTkPmjqaMetFGP+V/GjCiAILoBSwaBWn+sRHnZ665kz9oF6PQiAEKMROzK+XyvH/xJ+VAE68ypuWaZtZpsNv585E4cuXsSGY8fu9Pf+Bb/gF/yCX/ALfsH/7/h/OGVdWpQXrrAAAAAldEVYdGRhdGU6Y3JlYXRlADIwMjQtMDUtMTdUMTc6NTE6MzUrMDA6MDC2tkNoAAAAJXRFWHRkYXRlOm1vZGlmeQAyMDI0LTA1LTE3VDE3OjUxOjM1KzAwOjAwx+v71AAAACh0RVh0ZGF0ZTp0aW1lc3RhbXAAMjAyNC0wNS0xN1QxNzo1MTo1MiswMDowMJM27QIAAAAASUVORK5CYII=;flipH=1;" vertex="1" parent="1">
          <mxGeometry x="720.15" y="-947.12" width="55.25" height="55.25" as="geometry" />
        </mxCell>
        <mxCell id="GU6kTZ-pf8uX3ZpBFAUo-4" value="&lt;font size=&quot;1&quot; style=&quot;&quot;&gt;&lt;b style=&quot;&quot;&gt;&lt;i style=&quot;font-size: 12px;&quot;&gt;enp0s8&lt;/i&gt;&lt;/b&gt;&lt;/font&gt;" style="text;html=1;align=center;verticalAlign=middle;whiteSpace=wrap;rounded=0;fontFamily=Helvetica;fontSize=18;fontColor=default;" vertex="1" parent="1">
          <mxGeometry x="720.15" y="-893" width="64" height="30" as="geometry" />
        </mxCell>
        <mxCell id="GU6kTZ-pf8uX3ZpBFAUo-5" value="&lt;font style=&quot;font-size: 15px;&quot;&gt;&lt;b&gt;&lt;i&gt;IDS-IPS&lt;/i&gt;&lt;/b&gt;&lt;/font&gt;" style="text;html=1;align=center;verticalAlign=middle;whiteSpace=wrap;rounded=0;fontFamily=Helvetica;fontSize=26;fontColor=default;" vertex="1" parent="1">
          <mxGeometry x="755.5" y="-1012.88" width="124" height="25" as="geometry" />
        </mxCell>
        <mxCell id="GU6kTZ-pf8uX3ZpBFAUo-6" value="&lt;font style=&quot;font-size: 12px;&quot;&gt;&lt;b style=&quot;font-size: 12px;&quot;&gt;&lt;i style=&quot;font-size: 12px;&quot;&gt;enp0s3&amp;nbsp;&lt;br style=&quot;font-size: 12px;&quot;&gt;&lt;/i&gt;&lt;/b&gt;&lt;/font&gt;" style="text;html=1;align=center;verticalAlign=middle;whiteSpace=wrap;rounded=0;fontFamily=Helvetica;fontSize=12;fontColor=default;" vertex="1" parent="1">
          <mxGeometry x="627.5" y="-960.25" width="67" height="20" as="geometry" />
        </mxCell>
        <mxCell id="GU6kTZ-pf8uX3ZpBFAUo-7" style="edgeStyle=orthogonalEdgeStyle;rounded=0;orthogonalLoop=1;jettySize=auto;html=1;exitX=0;exitY=0.5;exitDx=0;exitDy=0;entryX=0.965;entryY=0.395;entryDx=0;entryDy=0;entryPerimeter=0;" edge="1" parent="1" source="GU6kTZ-pf8uX3ZpBFAUo-3" target="GU6kTZ-pf8uX3ZpBFAUo-3">
          <mxGeometry relative="1" as="geometry" />
        </mxCell>
        <mxCell id="GU6kTZ-pf8uX3ZpBFAUo-8" style="edgeStyle=none;rounded=1;orthogonalLoop=1;jettySize=auto;html=1;entryX=1;entryY=0;entryDx=0;entryDy=0;entryPerimeter=0;fontFamily=Helvetica;fontSize=12;fontColor=default;endArrow=none;endFill=0;" edge="1" parent="1">
          <mxGeometry relative="1" as="geometry">
            <mxPoint x="680" y="-940" as="sourcePoint" />
            <mxPoint x="515" y="-830" as="targetPoint" />
          </mxGeometry>
        </mxCell>
      </root>
    </mxGraphModel>
  </diagram>
</mxfile>
